<svg width="165" height="86" viewBox="0 0 165 86" fill="none" xmlns="http://www.w3.org/2000/svg">
<path d="M2.57937 31.017L2.59255 28.6147L9.27214 28.6513L9.39948 5.44857L2.70446 8.22437L2.71765 5.82206L9.41267 3.04626L11.9322 3.06009L11.7916 28.6652L18.4712 28.7018L18.458 31.1041L2.57937 31.017ZM37.8683 24.7262C37.8631 25.6767 37.6759 26.5676 37.3068 27.3989C36.9506 28.2303 36.4584 28.9568 35.83 29.5784C35.2015 30.1999 34.4697 30.6907 33.6343 31.0507C32.7991 31.3977 31.9062 31.5686 30.9557 31.5634L29.7643 31.5568C28.8138 31.5516 27.9163 31.3709 27.0719 31.0147C26.2406 30.6455 25.5142 30.1468 24.8926 29.5183C24.2711 28.8899 23.7803 28.158 23.4203 27.3227C23.0733 26.4875 22.9024 25.5946 22.9076 24.6441L22.9902 9.60525C22.9954 8.65474 23.176 7.7638 23.5322 6.9324C23.9013 6.10108 24.4001 5.37464 25.0285 4.75308C25.657 4.13152 26.3888 3.64725 27.224 3.30027C28.0724 2.94033 28.9718 2.76298 29.9223 2.76819L31.1137 2.77473C32.0642 2.77995 32.9551 2.96713 33.7864 3.33628C34.6178 3.69241 35.3443 4.18469 35.9659 4.81311C36.5874 5.44153 37.0717 6.17337 37.4187 7.00862C37.7787 7.84394 37.9561 8.73685 37.9509 9.68736L37.8683 24.7262ZM35.4314 9.67353C35.4348 9.04854 35.3208 8.46848 35.0894 7.93335C34.858 7.38519 34.5416 6.90819 34.1402 6.50234C33.7387 6.09648 33.2652 5.77487 32.7197 5.53749C32.1871 5.30019 31.6083 5.17983 30.9833 5.1764L30.0263 5.17114C29.4013 5.16771 28.8148 5.28168 28.2666 5.51305C27.7315 5.7445 27.2545 6.06089 26.8356 6.46225C26.4297 6.86367 26.1081 7.33717 25.8707 7.88275C25.6334 8.41531 25.5131 8.99409 25.5096 9.61908L25.4271 24.6579C25.4237 25.2829 25.5377 25.8695 25.769 26.4176C26.0005 26.9528 26.3169 27.4298 26.7182 27.8486C27.1327 28.2546 27.6062 28.5762 28.1387 28.8135C28.6843 29.0509 29.2696 29.1713 29.8946 29.1747L30.8516 29.1799C31.4766 29.1834 32.0566 29.0694 32.5918 28.8379C33.1399 28.6066 33.6169 28.2902 34.0228 27.8887C34.4287 27.4743 34.7503 27.0008 34.9876 26.4682C35.225 25.9226 35.3454 25.3374 35.3488 24.7124L35.4314 9.67353ZM43.5879 82.2428L43.6011 79.8405L50.2807 79.8772L50.408 56.6744L43.713 59.4502L43.7262 57.0479L50.4212 54.2721L52.9407 54.2859L52.8002 79.891L59.4798 79.9277L59.4666 82.33L43.5879 82.2428ZM78.8769 75.952C78.8717 76.9025 78.6845 77.7934 78.3153 78.6248C77.9592 79.4562 77.4669 80.1826 76.8385 80.8042C76.2101 81.4258 75.4782 81.9165 74.6429 82.2765C73.8076 82.6235 72.9148 82.7944 71.9642 82.7892L70.7729 82.7827C69.8223 82.7774 68.9249 82.5967 68.0805 82.2405C67.2492 81.8714 66.5227 81.3726 65.9012 80.7442C65.2796 80.1157 64.7888 79.3839 64.4288 78.5486C64.0818 77.7133 63.9109 76.8204 63.9162 75.8699L63.9987 60.8311C64.0039 59.8806 64.1846 58.9896 64.5407 58.1582C64.9099 57.3269 65.4087 56.6005 66.0371 55.9789C66.6655 55.3574 67.3973 54.8731 68.2326 54.5261C69.0809 54.1662 69.9803 53.9888 70.9309 53.994L72.1222 54.0006C73.0728 54.0058 73.9637 54.193 74.795 54.5621C75.6264 54.9182 76.3529 55.4105 76.9744 56.0389C77.596 56.6674 78.0802 57.3992 78.4272 58.2345C78.7872 59.0698 78.9646 59.9627 78.9594 60.9132L78.8769 75.952ZM76.4399 60.8994C76.4433 60.2744 76.3293 59.6943 76.0979 59.1592C75.8665 58.611 75.5501 58.134 75.1487 57.7282C74.7473 57.3223 74.2738 57.0007 73.7282 56.7633C73.1956 56.526 72.6169 56.4057 71.9919 56.4022L71.0349 56.397C70.4099 56.3935 69.8233 56.5075 69.2751 56.7389C68.74 56.9703 68.263 57.2867 67.8441 57.6881C67.4383 58.0895 67.1167 58.563 66.8793 59.1086C66.642 59.6411 66.5216 60.2199 66.5182 60.8449L66.4357 75.8837C66.4322 76.5087 66.5462 77.0953 66.7776 77.6435C67.009 78.1786 67.3254 78.6556 67.7268 79.0745C68.1412 79.4804 68.6147 79.802 69.1473 80.0393C69.6928 80.2767 70.2781 80.3971 70.9031 80.4005L71.8601 80.4058C72.4851 80.4092 73.0652 80.2952 73.6003 80.0638C74.1485 79.8324 74.6255 79.516 75.0313 79.1146C75.4373 78.7001 75.7589 78.2266 75.9962 77.6941C76.2335 77.1485 76.3539 76.5632 76.3574 75.9382L76.4399 60.8994ZM146.868 82.8097L146.881 80.4073L153.56 80.444L153.688 57.2412L146.993 60.017L147.006 57.6147L153.701 54.8389L156.22 54.8528L156.08 80.4578L162.759 80.4945L162.746 82.8968L146.868 82.8097Z" fill="#798EC5"/>
<path d="M58.454 24.8392C58.4487 25.7897 58.2616 26.6806 57.8924 27.5119C57.5363 28.3433 57.044 29.0698 56.4156 29.6913C55.7872 30.3129 55.0553 30.8037 54.22 31.1637C53.3847 31.5107 52.4918 31.6816 51.5413 31.6763L50.3499 31.6698C49.3994 31.6646 48.502 31.4839 47.6576 31.1277C46.8262 30.7585 46.0998 30.2597 45.4782 29.6313C44.8567 29.0029 44.3659 28.271 44.0059 27.4357C43.6589 26.6005 43.488 25.7076 43.4932 24.7571L43.5758 9.71823C43.581 8.76772 43.7617 7.87678 44.1178 7.04538C44.487 6.21406 44.9857 5.48762 45.6142 4.86606C46.2426 4.2445 46.9744 3.76023 47.8097 3.41325C48.658 3.05331 49.5574 2.87596 50.5079 2.88117L51.6993 2.88771C52.6498 2.89293 53.5408 3.08011 54.3721 3.44926C55.2035 3.80539 55.9299 4.29767 56.5515 4.92609C57.1731 5.55451 57.6573 6.28635 58.0043 7.1216C58.3643 7.95692 58.5417 8.84983 58.5365 9.80034L58.454 24.8392ZM56.017 9.78651C56.0204 9.16152 55.9064 8.58146 55.675 8.04633C55.4436 7.49817 55.1272 7.02117 54.7258 6.61532C54.3244 6.20946 53.8509 5.88785 53.3053 5.65047C52.7727 5.41317 52.194 5.29281 51.569 5.28938L50.6119 5.28412C49.987 5.28069 49.4004 5.39466 48.8522 5.62603C48.3171 5.85748 47.8401 6.17387 47.4212 6.57523C47.0154 6.97665 46.6937 7.45015 46.4564 7.99573C46.2191 8.52829 46.0987 9.10707 46.0953 9.73206L46.0127 24.7709C46.0093 25.3959 46.1233 25.9825 46.3546 26.5306C46.5861 27.0657 46.9025 27.5427 47.3038 27.9616C47.7183 28.3675 48.1918 28.6892 48.7243 28.9265C49.2699 29.1638 49.8552 29.2842 50.4802 29.2877L51.4372 29.2929C52.0622 29.2964 52.6423 29.1823 53.1774 28.9509C53.7256 28.7195 54.2026 28.4031 54.6084 28.0017C55.0143 27.5873 55.336 27.1138 55.5733 26.5812C55.8106 26.0356 55.931 25.4503 55.9345 24.8253L56.017 9.78651ZM79.0396 24.9522C79.0344 25.9027 78.8472 26.7936 78.478 27.6249C78.1219 28.4563 77.6296 29.1828 77.0012 29.8043C76.3728 30.4259 75.6409 30.9167 74.8056 31.2767C73.9703 31.6237 73.0775 31.7945 72.127 31.7893L70.9356 31.7828C69.9851 31.7776 69.0876 31.5969 68.2432 31.2407C67.4119 30.8715 66.6854 30.3727 66.0639 29.7443C65.4423 29.1159 64.9515 28.384 64.5915 27.5487C64.2445 26.7134 64.0737 25.8206 64.0789 24.87L64.1614 9.83121C64.1666 8.8807 64.3473 7.98976 64.7034 7.15836C65.0726 6.32704 65.5714 5.6006 66.1998 4.97904C66.8282 4.35748 67.56 3.87321 68.3953 3.52623C69.2436 3.16629 70.1431 2.98894 71.0936 2.99415L72.285 3.00069C73.2355 3.00591 74.1264 3.19309 74.9577 3.56224C75.7891 3.91837 76.5156 4.41065 77.1371 5.03907C77.7587 5.66749 78.243 6.39933 78.5899 7.23458C78.9499 8.0699 79.1273 8.96281 79.1221 9.91332L79.0396 24.9522ZM76.6026 9.89949C76.6061 9.2745 76.4921 8.69444 76.2606 8.15931C76.0292 7.61115 75.7128 7.13415 75.3114 6.7283C74.91 6.32244 74.4365 6.00083 73.8909 5.76345C73.3584 5.52615 72.7796 5.40579 72.1546 5.40236L71.1976 5.3971C70.5726 5.39367 69.986 5.50764 69.4379 5.73901C68.9027 5.97046 68.4257 6.28685 68.0068 6.68821C67.601 7.08963 67.2794 7.56313 67.042 8.10871C66.8047 8.64127 66.6843 9.22005 66.6809 9.84504L66.5984 24.8839C66.5949 25.5089 66.7089 26.0954 66.9403 26.6436C67.1717 27.1787 67.4881 27.6557 67.8895 28.0746C68.3039 28.4805 68.7774 28.8021 69.31 29.0394C69.8556 29.2768 70.4408 29.3972 71.0658 29.4006L72.0228 29.4059C72.6478 29.4093 73.2279 29.2953 73.763 29.0639C74.3112 28.8325 74.7882 28.5161 75.194 28.1147C75.6 27.7002 75.9216 27.2267 76.1589 26.6942C76.3963 26.1486 76.5167 25.5633 76.5201 24.9383L76.6026 9.89949ZM85.0391 31.4696L85.0522 29.0672L91.7318 29.1039L91.8592 5.90113L85.1642 8.67693L85.1773 6.27462L91.8724 3.49882L94.3919 3.51265L94.2513 29.1177L100.931 29.1544L100.918 31.5567L85.0391 31.4696ZM146.913 31.8091L146.926 29.4068L153.606 29.4435L153.733 6.24071L147.038 9.01651L147.051 6.61421L153.746 3.83841L156.266 3.85224L156.125 29.4573L162.805 29.494L162.792 31.8963L146.913 31.8091ZM2.29947 82.0162L2.31265 79.6139L8.99224 79.6506L9.11958 56.4478L2.42456 59.2236L2.43775 56.8213L9.13277 54.0455L11.6523 54.0593L11.5117 79.6644L18.1913 79.7011L18.1781 82.1034L2.29947 82.0162ZM37.5884 75.7254C37.5832 76.6759 37.396 77.5668 37.0269 78.3982C36.6707 79.2296 36.1785 79.956 35.5501 80.5776C34.9216 81.1992 34.1898 81.6899 33.3544 82.0499C32.5192 82.3969 31.6263 82.5678 30.6758 82.5626L29.4844 82.5561C28.5339 82.5508 27.6364 82.3701 26.792 82.0139C25.9607 81.6448 25.2343 81.146 24.6127 80.5176C23.9912 79.8891 23.5004 79.1573 23.1404 78.322C22.7934 77.4867 22.6225 76.5938 22.6277 75.6433L22.7103 60.6045C22.7155 59.654 22.8961 58.763 23.2523 57.9316C23.6214 57.1003 24.1202 56.3739 24.7486 55.7523C25.3771 55.1308 26.1089 54.6465 26.9441 54.2995C27.7925 53.9396 28.6919 53.7622 29.6424 53.7674L30.8338 53.774C31.7843 53.7792 32.6752 53.9664 33.5065 54.3355C34.3379 54.6916 35.0644 55.1839 35.686 55.8123C36.3075 56.4408 36.7918 57.1726 37.1388 58.0078C37.4988 58.8432 37.6762 59.7361 37.671 60.6866L37.5884 75.7254ZM35.1515 60.6728C35.1549 60.0478 35.0409 59.4677 34.8095 58.9326C34.5781 58.3844 34.2617 57.9074 33.8603 57.5016C33.4588 57.0957 32.9853 56.7741 32.4398 56.5367C31.9072 56.2994 31.3284 56.1791 30.7034 56.1756L29.7464 56.1704C29.1214 56.1669 28.5349 56.2809 27.9867 56.5123C27.4516 56.7437 26.9746 57.0601 26.5557 57.4615C26.1498 57.8629 25.8282 58.3364 25.5908 58.882C25.3535 59.4145 25.2332 59.9933 25.2298 60.6183L25.1472 75.6571C25.1438 76.2821 25.2578 76.8687 25.4891 77.4169C25.7206 77.952 26.037 78.429 26.4383 78.8479C26.8528 79.2538 27.3263 79.5754 27.8588 79.8127C28.4044 80.0501 28.9897 80.1705 29.6147 80.1739L30.5717 80.1792C31.1967 80.1826 31.7767 80.0686 32.3119 79.8372C32.86 79.6058 33.337 79.2894 33.7429 78.888C34.1488 78.4735 34.4704 78 34.7077 77.4675C34.9451 76.9219 35.0655 76.3366 35.0689 75.7116L35.1515 60.6728ZM84.8763 82.4694L84.8895 80.0671L91.5691 80.1038L91.6965 56.901L85.0014 59.6768L85.0146 57.2745L91.7096 54.4987L94.2291 54.5125L94.0886 80.1176L100.768 80.1543L100.755 82.5566L84.8763 82.4694ZM120.165 76.1786C120.16 77.1291 119.973 78.0201 119.604 78.8514C119.248 79.6828 118.755 80.4092 118.127 81.0308C117.499 81.6524 116.767 82.1431 115.931 82.5031C115.096 82.8501 114.203 83.021 113.253 83.0158L112.061 83.0093C111.111 83.004 110.213 82.8233 109.369 82.4671C108.538 82.098 107.811 81.5992 107.19 80.9708C106.568 80.3424 106.077 79.6105 105.717 78.7752C105.37 77.9399 105.199 77.047 105.205 76.0965L105.287 61.0577C105.292 60.1072 105.473 59.2162 105.829 58.3848C106.198 57.5535 106.697 56.8271 107.326 56.2055C107.954 55.584 108.686 55.0997 109.521 54.7527C110.369 54.3928 111.269 54.2154 112.219 54.2206L113.411 54.2272C114.361 54.2324 115.252 54.4196 116.083 54.7887C116.915 55.1449 117.641 55.6371 118.263 56.2655C118.884 56.894 119.369 57.6258 119.716 58.4611C120.076 59.2964 120.253 60.1893 120.248 61.1398L120.165 76.1786ZM117.728 61.126C117.732 60.501 117.618 59.9209 117.386 59.3858C117.155 58.8376 116.839 58.3606 116.437 57.9548C116.036 57.5489 115.562 57.2273 115.017 56.9899C114.484 56.7526 113.905 56.6323 113.28 56.6288L112.323 56.6236C111.698 56.6202 111.112 56.7341 110.564 56.9655C110.028 57.1969 109.551 57.5133 109.133 57.9147C108.727 58.3161 108.405 58.7896 108.168 59.3352C107.93 59.8677 107.81 60.4465 107.807 61.0715L107.724 76.1104C107.721 76.7353 107.835 77.3219 108.066 77.8701C108.297 78.4052 108.614 78.8822 109.015 79.3011C109.43 79.707 109.903 80.0286 110.436 80.2659C110.981 80.5033 111.567 80.6237 112.192 80.6271L113.149 80.6324C113.774 80.6358 114.354 80.5218 114.889 80.2904C115.437 80.059 115.914 79.7426 116.32 79.3412C116.726 78.9267 117.047 78.4532 117.285 77.9207C117.522 77.3751 117.642 76.7898 117.646 76.1648L117.728 61.126ZM126.165 82.696L126.178 80.2937L132.858 80.3304L132.985 57.1276L126.29 59.9034L126.303 57.5011L132.998 54.7253L135.518 54.7391L135.377 80.3442L142.057 80.3809L142.043 82.7832L126.165 82.696Z" fill="black"/>
<path d="M120.328 25.1788C120.323 26.1293 120.136 27.0202 119.766 27.8515C119.41 28.6829 118.918 29.4094 118.29 30.0309C117.661 30.6525 116.929 31.1433 116.094 31.5033C115.259 31.8503 114.366 32.0211 113.415 32.0159L112.224 32.0094C111.274 32.0042 110.376 31.8235 109.532 31.4673C108.7 31.0981 107.974 30.5993 107.352 29.9709C106.731 29.3425 106.24 28.6106 105.88 27.7753C105.533 26.94 105.362 26.0472 105.367 25.0966L105.45 10.0578C105.455 9.10731 105.636 8.21636 105.992 7.38497C106.361 6.55365 106.86 5.82721 107.488 5.20565C108.117 4.58409 108.848 4.09981 109.684 3.75283C110.532 3.3929 111.432 3.21554 112.382 3.22076L113.573 3.22729C114.524 3.23251 115.415 3.4197 116.246 3.78885C117.078 4.14498 117.804 4.63725 118.426 5.26567C119.047 5.89409 119.531 6.62593 119.878 7.46118C120.238 8.2965 120.416 9.18942 120.411 10.1399L120.328 25.1788ZM117.891 10.1261C117.894 9.5011 117.78 8.92104 117.549 8.38591C117.318 7.83776 117.001 7.36075 116.6 6.9549C116.198 6.54904 115.725 6.22743 115.179 5.99006C114.647 5.75276 114.068 5.63239 113.443 5.62896L112.486 5.62371C111.861 5.62028 111.274 5.73425 110.726 5.96562C110.191 6.19706 109.714 6.51346 109.295 6.91481C108.889 7.31623 108.568 7.78974 108.33 8.33532C108.093 8.86788 107.973 9.44665 107.969 10.0716L107.887 25.1105C107.883 25.7355 107.997 26.322 108.229 26.8702C108.46 27.4053 108.777 27.8823 109.178 28.3012C109.592 28.7071 110.066 29.0287 110.598 29.266C111.144 29.5034 111.729 29.6238 112.354 29.6273L113.311 29.6325C113.936 29.6359 114.516 29.5219 115.051 29.2905C115.6 29.0591 116.077 28.7427 116.482 28.3413C116.888 27.9268 117.21 27.4533 117.447 26.9208C117.685 26.3752 117.805 25.7899 117.809 25.1649L117.891 10.1261ZM140.914 25.2917C140.908 26.2422 140.721 27.1332 140.352 27.9645C139.996 28.7959 139.504 29.5223 138.875 30.1439C138.247 30.7655 137.515 31.2562 136.68 31.6163C135.844 31.9632 134.952 32.1341 134.001 32.1289L132.81 32.1224C131.859 32.1171 130.962 31.9364 130.117 31.5802C129.286 31.2111 128.559 30.7123 127.938 30.0839C127.316 29.4555 126.826 28.7236 126.466 27.8883C126.119 27.053 125.948 26.1601 125.953 25.2096L126.035 10.1708C126.041 9.22029 126.221 8.32934 126.577 7.49795C126.947 6.66663 127.445 5.94019 128.074 5.31863C128.702 4.69707 129.434 4.21279 130.269 3.86581C131.118 3.50588 132.017 3.32852 132.968 3.33374L134.159 3.34028C135.11 3.34549 136 3.53268 136.832 3.90183C137.663 4.25796 138.39 4.75023 139.011 5.37865C139.633 6.00707 140.117 6.73891 140.464 7.57416C140.824 8.40948 141.001 9.3024 140.996 10.2529L140.914 25.2917ZM138.477 10.2391C138.48 9.61408 138.366 9.03402 138.135 8.49889C137.903 7.95074 137.587 7.47373 137.185 7.06788C136.784 6.66202 136.311 6.34041 135.765 6.10304C135.232 5.86574 134.654 5.74537 134.029 5.74194L133.072 5.73669C132.447 5.73326 131.86 5.84723 131.312 6.0786C130.777 6.31004 130.3 6.62644 129.881 7.02779C129.475 7.42921 129.153 7.90272 128.916 8.4483C128.679 8.98086 128.558 9.55963 128.555 10.1846L128.472 25.2235C128.469 25.8484 128.583 26.435 128.814 26.9832C129.046 27.5183 129.362 27.9953 129.764 28.4142C130.178 28.8201 130.651 29.1417 131.184 29.379C131.73 29.6164 132.315 29.7368 132.94 29.7402L133.897 29.7455C134.522 29.7489 135.102 29.6349 135.637 29.4035C136.185 29.1721 136.662 28.8557 137.068 28.4543C137.474 28.0398 137.796 27.5663 138.033 27.0338C138.27 26.4882 138.391 25.9029 138.394 25.2779L138.477 10.2391Z" fill="#798EC5"/>
<path d="M2.57937 31.017L0.579399 31.006L0.568422 33.006L2.56839 33.017L2.57937 31.017ZM2.59255 28.6147L2.60353 26.6147L0.60356 26.6037L0.592583 28.6037L2.59255 28.6147ZM9.27214 28.6513L9.26116 30.6513L11.2611 30.6623L11.2721 28.6623L9.27214 28.6513ZM9.39948 5.44857L11.3995 5.45954L11.416 2.44743L8.6335 3.60107L9.39948 5.44857ZM2.70446 8.22437L0.704491 8.21339L0.68796 11.2255L3.47045 10.0719L2.70446 8.22437ZM2.71765 5.82206L1.95166 3.97456L0.724964 4.48315L0.717676 5.81108L2.71765 5.82206ZM9.41267 3.04626L9.42364 1.04629L9.01977 1.04407L8.64668 1.19876L9.41267 3.04626ZM11.9322 3.06009L13.9321 3.07106L13.9431 1.0711L11.9431 1.06012L11.9322 3.06009ZM11.7916 28.6652L9.79166 28.6542L9.78069 30.6542L11.7807 30.6651L11.7916 28.6652ZM18.4712 28.7018L20.4712 28.7128L20.4822 26.7128L18.4822 26.7019L18.4712 28.7018ZM18.458 31.1041L18.4471 33.1041L20.447 33.1151L20.458 31.1151L18.458 31.1041ZM4.57934 31.028L4.59252 28.6257L0.592583 28.6037L0.579399 31.006L4.57934 31.028ZM2.58158 30.6147L9.26116 30.6513L9.28312 26.6514L2.60353 26.6147L2.58158 30.6147ZM11.2721 28.6623L11.3995 5.45954L7.39951 5.43759L7.27217 28.6404L11.2721 28.6623ZM8.6335 3.60107L1.93848 6.37686L3.47045 10.0719L10.1655 7.29607L8.6335 3.60107ZM4.70443 8.23534L4.71762 5.83304L0.717676 5.81108L0.704491 8.21339L4.70443 8.23534ZM3.48363 7.66956L10.1787 4.89376L8.64668 1.19876L1.95166 3.97456L3.48363 7.66956ZM9.40169 5.04623L11.9212 5.06006L11.9431 1.06012L9.42364 1.04629L9.40169 5.04623ZM9.93219 3.04911L9.79166 28.6542L13.7916 28.6761L13.9321 3.07106L9.93219 3.04911ZM11.7807 30.6651L18.4602 30.7018L18.4822 26.7019L11.8026 26.6652L11.7807 30.6651ZM16.4712 28.6909L16.4581 31.0932L20.458 31.1151L20.4712 28.7128L16.4712 28.6909ZM18.469 29.1042L2.59034 29.017L2.56839 33.017L18.4471 33.1041L18.469 29.1042ZM37.3068 27.3989L35.4789 26.5873L35.4735 26.5993L35.4683 26.6114L37.3068 27.3989ZM33.6343 31.0507L34.4016 32.8977L34.4138 32.8926L34.4259 32.8874L33.6343 31.0507ZM27.0719 31.0147L26.2603 32.8426L26.2774 32.8502L26.2946 32.8574L27.0719 31.0147ZM23.4203 27.3227L21.5733 28.09L21.5784 28.1022L21.5836 28.1143L23.4203 27.3227ZM23.5322 6.9324L21.7043 6.12072L21.6989 6.13278L21.6937 6.1449L23.5322 6.9324ZM27.224 3.30027L27.9913 5.14723L27.9983 5.14435L28.0052 5.14141L27.224 3.30027ZM33.7864 3.33628L32.9748 5.16417L32.9868 5.16952L32.9989 5.17472L33.7864 3.33628ZM37.4187 7.00862L35.5717 7.77589L35.5768 7.78807L35.582 7.80019L37.4187 7.00862ZM35.0894 7.93335L33.2468 8.71108L33.2502 8.71919L33.2537 8.72726L35.0894 7.93335ZM32.7197 5.53749L31.9056 7.36434L31.9137 7.36792L31.9217 7.37143L32.7197 5.53749ZM28.2666 5.51305L27.4889 3.67047L27.4808 3.67389L27.4727 3.67738L28.2666 5.51305ZM26.8356 6.46225L25.4519 5.01815L25.4404 5.02913L25.4292 5.04029L26.8356 6.46225ZM25.8707 7.88275L27.6976 8.69677L27.7012 8.68874L27.7047 8.68067L25.8707 7.88275ZM25.769 26.4176L23.9264 27.1954L23.9299 27.2035L23.9333 27.2115L25.769 26.4176ZM26.7182 27.8486L25.2741 29.2323L25.2961 29.2552L25.3188 29.2775L26.7182 27.8486ZM28.1387 28.8135L27.3247 30.6403L27.3327 30.6439L27.3408 30.6474L28.1387 28.8135ZM32.5918 28.8379L31.814 26.9953L31.8059 26.9988L31.7979 27.0023L32.5918 28.8379ZM34.0228 27.8887L35.4292 29.3107L35.4405 29.2995L35.4516 29.2882L34.0228 27.8887ZM34.9876 26.4682L36.8145 27.2822L36.8181 27.2742L36.8216 27.2661L34.9876 26.4682ZM35.8684 24.7152C35.8646 25.4025 35.731 26.0194 35.4789 26.5873L39.1347 28.2106C39.6208 27.1158 39.8616 25.9509 39.8683 24.7372L35.8684 24.7152ZM35.4683 26.6114C35.2115 27.2111 34.864 27.7207 34.4235 28.1564L37.2364 31.0003C38.0527 30.1929 38.6898 29.2496 39.1452 28.1864L35.4683 26.6114ZM34.4235 28.1564C33.9776 28.5975 33.4559 28.9498 32.8428 29.214L34.4259 32.8874C35.4835 32.4316 36.4255 31.8024 37.2364 31.0003L34.4235 28.1564ZM32.8671 29.2037C32.2909 29.4431 31.664 29.5672 30.9667 29.5634L30.9447 33.5633C32.1484 33.5699 33.3073 33.3523 34.4016 32.8977L32.8671 29.2037ZM30.9667 29.5634L29.7753 29.5569L29.7533 33.5568L30.9447 33.5633L30.9667 29.5634ZM29.7753 29.5569C29.0781 29.553 28.442 29.422 27.8493 29.1719L26.2946 32.8574C27.3907 33.3198 28.5495 33.5502 29.7533 33.5568L29.7753 29.5569ZM27.8836 29.1868C27.2735 28.9159 26.7556 28.5578 26.3146 28.1119L23.4707 30.9248C24.2727 31.7357 25.2078 32.3752 26.2603 32.8426L27.8836 29.1868ZM26.3146 28.1119C25.8735 27.666 25.5212 27.1442 25.257 26.5312L21.5836 28.1143C22.0394 29.1718 22.6686 30.1139 23.4707 30.9248L26.3146 28.1119ZM25.2672 26.5554C25.0279 25.9793 24.9038 25.3524 24.9076 24.6551L20.9076 24.6331C20.901 25.8368 21.1187 26.9957 21.5733 28.09L25.2672 26.5554ZM24.9076 24.6551L24.9901 9.61623L20.9902 9.59427L20.9076 24.6331L24.9076 24.6551ZM24.9901 9.61623C24.994 8.91891 25.1249 8.29343 25.3706 7.71991L21.6937 6.1449C21.2272 7.23416 20.9968 8.39057 20.9902 9.59427L24.9901 9.61623ZM25.3601 7.74409C25.631 7.13393 25.989 6.6161 26.435 6.17504L23.6221 3.33113C22.8112 4.13318 22.1717 5.06824 21.7043 6.12072L25.3601 7.74409ZM26.435 6.17504C26.8755 5.73936 27.3889 5.3975 27.9913 5.14723L26.4568 1.4533C25.3887 1.897 24.4385 2.52369 23.6221 3.33113L26.435 6.17504ZM28.0052 5.14141C28.5951 4.89112 29.2242 4.76439 29.9113 4.76816L29.9333 0.768223C28.7194 0.761561 27.5497 0.989548 26.4429 1.45913L28.0052 5.14141ZM29.9113 4.76816L31.1027 4.7747L31.1247 0.774762L29.9333 0.768223L29.9113 4.76816ZM31.1027 4.7747C31.79 4.77847 32.4069 4.91203 32.9748 5.16417L34.5981 1.5084C33.5033 1.02223 32.3384 0.781423 31.1247 0.774762L31.1027 4.7747ZM32.9989 5.17472C33.5986 5.43158 34.1082 5.77905 34.5439 6.21954L37.3878 3.40668C36.5804 2.59033 35.6371 1.95325 34.5739 1.49785L32.9989 5.17472ZM34.5439 6.21954C34.9796 6.66003 35.3215 7.17346 35.5717 7.77589L39.2657 6.24134C38.822 5.17327 38.1953 4.22303 37.3878 3.40668L34.5439 6.21954ZM35.582 7.80019C35.8279 8.37073 35.9547 8.98911 35.9509 9.67638L39.9508 9.69834C39.9575 8.48459 39.7295 7.31715 39.2554 6.21705L35.582 7.80019ZM35.9509 9.67638L35.8684 24.7152L39.8683 24.7372L39.9508 9.69834L35.9509 9.67638ZM37.4313 9.68451C37.4362 8.80295 37.2741 7.94651 36.925 7.13943L33.2537 8.72726C33.3675 8.99045 33.4334 9.29414 33.4314 9.66256L37.4313 9.68451ZM36.9319 7.15561C36.6059 6.38312 36.15 5.69028 35.5621 5.0959L32.7182 7.90877C32.9332 8.1261 33.1101 8.38726 33.2468 8.71108L36.9319 7.15561ZM35.5621 5.0959C34.9742 4.50153 34.2864 4.03807 33.5176 3.70355L31.9217 7.37143C32.244 7.51166 32.5032 7.69143 32.7182 7.90877L35.5621 5.0959ZM33.5337 3.71064C32.7305 3.35275 31.8759 3.18126 30.9943 3.17643L30.9724 7.17637C31.3408 7.17839 31.6437 7.24764 31.9056 7.36434L33.5337 3.71064ZM30.9943 3.17643L30.0373 3.17117L30.0153 7.17111L30.9724 7.17637L30.9943 3.17643ZM30.0373 3.17117C29.1554 3.16633 28.2991 3.32849 27.4889 3.67047L29.0443 7.35564C29.3304 7.23488 29.6473 7.16909 30.0153 7.17111L30.0373 3.17117ZM27.4727 3.67738C26.7204 4.00275 26.0434 4.4514 25.4519 5.01815L28.2193 7.90634C28.4655 7.67039 28.7426 7.48624 29.0605 7.34873L27.4727 3.67738ZM25.4292 5.04029C24.8348 5.62818 24.3713 6.31598 24.0368 7.08484L27.7047 8.68067C27.8449 8.35837 28.0247 8.09916 28.242 7.8842L25.4292 5.04029ZM24.0439 7.06873C23.686 7.87194 23.5145 8.72654 23.5097 9.6081L27.5096 9.63005C27.5116 9.26163 27.5809 8.95869 27.6976 8.69677L24.0439 7.06873ZM23.5097 9.6081L23.4271 24.6469L27.4271 24.6689L27.5096 9.63005L23.5097 9.6081ZM23.4271 24.6469C23.4223 25.5289 23.5845 26.3852 23.9264 27.1954L27.6116 25.6399C27.4908 25.3538 27.4251 25.0369 27.4271 24.6689L23.4271 24.6469ZM23.9333 27.2115C24.2587 27.9639 24.7074 28.6408 25.2741 29.2323L28.1623 26.465C27.9264 26.2187 27.7422 25.9417 27.6047 25.6237L23.9333 27.2115ZM25.3188 29.2775C25.904 29.8507 26.576 30.3067 27.3247 30.6403L28.9527 26.9866C28.6363 26.8456 28.3613 26.6585 28.1177 26.4198L25.3188 29.2775ZM27.3408 30.6474C28.1472 30.9983 29.0017 31.1698 29.8836 31.1747L29.9056 27.1747C29.5375 27.1727 29.2214 27.1034 28.9366 26.9795L27.3408 30.6474ZM29.8836 31.1747L30.8406 31.1799L30.8626 27.18L29.9056 27.1747L29.8836 31.1747ZM30.8406 31.1799C31.7222 31.1847 32.5786 31.0227 33.3857 30.6736L31.7979 27.0023C31.5347 27.1161 31.231 27.182 30.8626 27.18L30.8406 31.1799ZM33.3695 30.6805C34.142 30.3544 34.8348 29.8986 35.4292 29.3107L32.6164 26.4668C32.399 26.6817 32.1379 26.8587 31.814 26.9953L33.3695 30.6805ZM35.4516 29.2882C36.0248 28.7029 36.4809 28.0309 36.8145 27.2822L33.1608 25.6542C33.0198 25.9706 32.8326 26.2456 32.594 26.4893L35.4516 29.2882ZM36.8216 27.2661C37.1724 26.4597 37.344 25.6053 37.3488 24.7233L33.3489 24.7014C33.3468 25.0695 33.2776 25.3855 33.1537 25.6703L36.8216 27.2661ZM37.3488 24.7233L37.4313 9.68451L33.4314 9.66256L33.3489 24.7014L37.3488 24.7233ZM57.8924 27.5119L56.0645 26.7002L56.0592 26.7123L56.054 26.7244L57.8924 27.5119ZM54.22 31.1637L54.9872 33.0107L54.9994 33.0056L55.0115 33.0004L54.22 31.1637ZM47.6576 31.1277L46.8459 32.9556L46.863 32.9632L46.8802 32.9704L47.6576 31.1277ZM44.0059 27.4357L42.1589 28.203L42.164 28.2152L42.1692 28.2273L44.0059 27.4357ZM44.1178 7.04538L42.2899 6.2337L42.2846 6.24576L42.2794 6.25788L44.1178 7.04538ZM47.8097 3.41325L48.5769 5.26021L48.5839 5.25733L48.5908 5.25439L47.8097 3.41325ZM54.3721 3.44926L53.5604 5.27715L53.5724 5.2825L53.5846 5.2877L54.3721 3.44926ZM58.0043 7.1216L56.1573 7.88887L56.1624 7.90105L56.1676 7.91317L58.0043 7.1216ZM55.675 8.04633L53.8324 8.82406L53.8358 8.83217L53.8393 8.84024L55.675 8.04633ZM53.3053 5.65047L52.4913 7.47732L52.4993 7.4809L52.5074 7.48441L53.3053 5.65047ZM48.8522 5.62603L48.0745 3.78345L48.0664 3.78687L48.0583 3.79036L48.8522 5.62603ZM47.4212 6.57523L46.0375 5.13113L46.0261 5.14211L46.0148 5.15327L47.4212 6.57523ZM46.4564 7.99573L48.2832 8.80975L48.2868 8.80172L48.2903 8.79365L46.4564 7.99573ZM46.3546 26.5306L44.5121 27.3083L44.5155 27.3165L44.519 27.3245L46.3546 26.5306ZM47.3038 27.9616L45.8597 29.3453L45.8817 29.3682L45.9044 29.3904L47.3038 27.9616ZM48.7243 28.9265L47.9103 30.7533L47.9184 30.7569L47.9264 30.7604L48.7243 28.9265ZM53.1774 28.9509L52.3997 27.1083L52.3916 27.1117L52.3835 27.1152L53.1774 28.9509ZM54.6084 28.0017L56.0149 29.4237L56.0261 29.4125L56.0372 29.4012L54.6084 28.0017ZM55.5733 26.5812L57.4001 27.3952L57.4037 27.3872L57.4072 27.3791L55.5733 26.5812ZM56.454 24.8282C56.4502 25.5155 56.3167 26.1324 56.0645 26.7002L59.7203 28.3236C60.2065 27.2288 60.4473 26.0639 60.4539 24.8502L56.454 24.8282ZM56.054 26.7244C55.7971 27.3241 55.4496 27.8337 55.0091 28.2694L57.822 31.1133C58.6384 30.3059 59.2754 29.3626 59.7308 28.2994L56.054 26.7244ZM55.0091 28.2694C54.5632 28.7105 54.0415 29.0628 53.4284 29.327L55.0115 33.0004C56.0691 32.5446 57.0111 31.9154 57.822 31.1133L55.0091 28.2694ZM53.4527 29.3167C52.8765 29.5561 52.2496 29.6802 51.5523 29.6764L51.5304 33.6763C52.7341 33.6829 53.8929 33.4653 54.9872 33.0107L53.4527 29.3167ZM51.5523 29.6764L50.3609 29.6698L50.339 33.6698L51.5304 33.6763L51.5523 29.6764ZM50.3609 29.6698C49.6637 29.666 49.0277 29.535 48.4349 29.2849L46.8802 32.9704C47.9763 33.4328 49.1351 33.6632 50.339 33.6698L50.3609 29.6698ZM48.4692 29.2998C47.8591 29.0288 47.3413 28.6708 46.9002 28.2249L44.0563 31.0377C44.8583 31.8487 45.7934 32.4882 46.8459 32.9556L48.4692 29.2998ZM46.9002 28.2249C46.4591 27.779 46.1068 27.2572 45.8426 26.6441L42.1692 28.2273C42.625 29.2848 43.2542 30.2268 44.0563 31.0377L46.9002 28.2249ZM45.8529 26.6684C45.6135 26.0922 45.4894 25.4654 45.4932 24.768L41.4933 24.7461C41.4867 25.9498 41.7043 27.1087 42.1589 28.203L45.8529 26.6684ZM45.4932 24.768L45.5758 9.72921L41.5758 9.70725L41.4933 24.7461L45.4932 24.768ZM45.5758 9.72921C45.5796 9.03189 45.7106 8.40641 45.9562 7.83289L42.2794 6.25788C41.8128 7.34714 41.5824 8.50355 41.5758 9.70725L45.5758 9.72921ZM45.9457 7.85707C46.2166 7.24691 46.5747 6.72908 47.0206 6.28802L44.2077 3.44411C43.3968 4.24616 42.7573 5.18122 42.2899 6.2337L45.9457 7.85707ZM47.0206 6.28802C47.4611 5.85234 47.9745 5.51048 48.5769 5.26021L47.0424 1.56628C45.9743 2.00998 45.0241 2.63667 44.2077 3.44411L47.0206 6.28802ZM48.5908 5.25439C49.1807 5.0041 49.8098 4.87737 50.497 4.88114L50.5189 0.881203C49.3051 0.874541 48.1353 1.10253 47.0285 1.57211L48.5908 5.25439ZM50.497 4.88114L51.6884 4.88768L51.7103 0.887742L50.5189 0.881203L50.497 4.88114ZM51.6884 4.88768C52.3756 4.89145 52.9926 5.02501 53.5604 5.27715L55.1838 1.62138C54.0889 1.13521 52.9241 0.894403 51.7103 0.887742L51.6884 4.88768ZM53.5846 5.2877C54.1842 5.54456 54.6939 5.89203 55.1295 6.33252L57.9735 3.51966C57.166 2.70331 56.2227 2.06623 55.1596 1.61083L53.5846 5.2877ZM55.1295 6.33252C55.5652 6.77301 55.9071 7.28644 56.1573 7.88887L59.8513 6.35432C59.4076 5.28625 58.7809 4.33601 57.9735 3.51966L55.1295 6.33252ZM56.1676 7.91317C56.4135 8.48371 56.5403 9.10209 56.5365 9.78936L60.5365 9.81132C60.5431 8.59757 60.3151 7.43013 59.841 6.33003L56.1676 7.91317ZM56.5365 9.78936L56.454 24.8282L60.4539 24.8502L60.5365 9.81132L56.5365 9.78936ZM58.017 9.79749C58.0218 8.91593 57.8597 8.05949 57.5107 7.25241L53.8393 8.84024C53.9531 9.10343 54.0191 9.40712 54.017 9.77554L58.017 9.79749ZM57.5176 7.26859C57.1915 6.4961 56.7356 5.80326 56.1477 5.20888L53.3038 8.02175C53.5188 8.23908 53.6957 8.50024 53.8324 8.82406L57.5176 7.26859ZM56.1477 5.20888C55.5599 4.61451 54.8721 4.15105 54.1032 3.81653L52.5074 7.48441C52.8297 7.62464 53.0889 7.80441 53.3038 8.02175L56.1477 5.20888ZM54.1193 3.82362C53.3161 3.46573 52.4615 3.29424 51.5799 3.28941L51.558 7.28935C51.9264 7.29137 52.2294 7.36062 52.4913 7.47732L54.1193 3.82362ZM51.5799 3.28941L50.6229 3.28415L50.601 7.28409L51.558 7.28935L51.5799 3.28941ZM50.6229 3.28415C49.741 3.27931 48.8847 3.44147 48.0745 3.78345L49.63 7.46862C49.9161 7.34786 50.2329 7.28207 50.601 7.28409L50.6229 3.28415ZM48.0583 3.79036C47.306 4.11573 46.629 4.56438 46.0375 5.13113L48.8049 8.01932C49.0512 7.78337 49.3282 7.59922 49.6461 7.46171L48.0583 3.79036ZM46.0148 5.15327C45.4204 5.74116 44.957 6.42896 44.6224 7.19782L48.2903 8.79365C48.4305 8.47135 48.6103 8.21214 48.8276 7.99718L46.0148 5.15327ZM44.6295 7.18171C44.2716 7.98492 44.1001 8.83952 44.0953 9.72108L48.0952 9.74303C48.0973 9.37461 48.1665 9.07167 48.2832 8.80975L44.6295 7.18171ZM44.0953 9.72108L44.0128 24.7599L48.0127 24.7819L48.0952 9.74303L44.0953 9.72108ZM44.0128 24.7599C44.0079 25.6418 44.1701 26.4982 44.5121 27.3083L48.1972 25.7529C48.0765 25.4668 48.0107 25.1499 48.0127 24.7819L44.0128 24.7599ZM44.519 27.3245C44.8444 28.0768 45.293 28.7538 45.8597 29.3453L48.7479 26.5779C48.512 26.3317 48.3278 26.0546 48.1903 25.7367L44.519 27.3245ZM45.9044 29.3904C46.4896 29.9637 47.1616 30.4197 47.9103 30.7533L49.5384 27.0996C49.2219 26.9586 48.9469 26.7714 48.7033 26.5328L45.9044 29.3904ZM47.9264 30.7604C48.7328 31.1113 49.5873 31.2828 50.4692 31.2876L50.4912 27.2877C50.1231 27.2857 49.807 27.2164 49.5223 27.0925L47.9264 30.7604ZM50.4692 31.2876L51.4262 31.2929L51.4482 27.293L50.4912 27.2877L50.4692 31.2876ZM51.4262 31.2929C52.3078 31.2977 53.1642 31.1356 53.9713 30.7866L52.3835 27.1152C52.1203 27.2291 51.8166 27.295 51.4482 27.293L51.4262 31.2929ZM53.9551 30.7935C54.7276 30.4674 55.4205 30.0116 56.0149 29.4237L53.202 26.5798C52.9847 26.7947 52.7235 26.9716 52.3997 27.1083L53.9551 30.7935ZM56.0372 29.4012C56.6104 28.8159 57.0665 28.1439 57.4001 27.3952L53.7464 25.7672C53.6054 26.0836 53.4182 26.3586 53.1796 26.6023L56.0372 29.4012ZM57.4072 27.3791C57.758 26.5727 57.9296 25.7182 57.9344 24.8363L53.9345 24.8144C53.9325 25.1824 53.8632 25.4985 53.7393 25.7833L57.4072 27.3791ZM57.9344 24.8363L58.017 9.79749L54.017 9.77554L53.9345 24.8144L57.9344 24.8363ZM78.478 27.6249L76.6501 26.8132L76.6448 26.8253L76.6396 26.8374L78.478 27.6249ZM74.8056 31.2767L75.5729 33.1236L75.585 33.1186L75.5972 33.1134L74.8056 31.2767ZM68.2432 31.2407L67.4315 33.0685L67.4486 33.0761L67.4659 33.0834L68.2432 31.2407ZM64.5915 27.5487L62.7446 28.316L62.7496 28.3281L62.7548 28.3403L64.5915 27.5487ZM64.7034 7.15836L62.8755 6.34668L62.8702 6.35874L62.865 6.37086L64.7034 7.15836ZM68.3953 3.52623L69.1626 5.37319L69.1695 5.37031L69.1764 5.36737L68.3953 3.52623ZM74.9577 3.56224L74.146 5.39013L74.1581 5.39548L74.1702 5.40068L74.9577 3.56224ZM78.5899 7.23458L76.743 8.00185L76.748 8.01403L76.7533 8.02615L78.5899 7.23458ZM76.2606 8.15931L74.418 8.93704L74.4214 8.94515L74.4249 8.95322L76.2606 8.15931ZM73.8909 5.76345L73.0769 7.5903L73.0849 7.59388L73.093 7.59739L73.8909 5.76345ZM69.4379 5.73901L68.6601 3.89643L68.652 3.89985L68.6439 3.90334L69.4379 5.73901ZM68.0068 6.68821L66.6232 5.24411L66.6117 5.25509L66.6004 5.26625L68.0068 6.68821ZM67.042 8.10871L68.8689 8.92273L68.8724 8.9147L68.8759 8.90663L67.042 8.10871ZM66.9403 26.6436L65.0977 27.4213L65.1011 27.4294L65.1046 27.4375L66.9403 26.6436ZM67.8895 28.0746L66.4454 29.4583L66.4673 29.4812L66.49 29.5034L67.8895 28.0746ZM69.31 29.0394L68.496 30.8663L68.504 30.8699L68.5121 30.8734L69.31 29.0394ZM73.763 29.0639L72.9853 27.2213L72.9772 27.2247L72.9691 27.2282L73.763 29.0639ZM75.194 28.1147L76.6005 29.5366L76.6118 29.5255L76.6229 29.5141L75.194 28.1147ZM76.1589 26.6942L77.9857 27.5082L77.9893 27.5002L77.9928 27.4921L76.1589 26.6942ZM77.0396 24.9412C77.0358 25.6284 76.9023 26.2454 76.6501 26.8132L80.3059 28.4366C80.7921 27.3417 81.0329 26.1769 81.0396 24.9631L77.0396 24.9412ZM76.6396 26.8374C76.3827 27.437 76.0353 27.9467 75.5948 28.3824L78.4076 31.2263C79.224 30.4188 79.8611 29.4755 80.3165 28.4124L76.6396 26.8374ZM75.5948 28.3824C75.1488 28.8234 74.6271 29.1758 74.014 29.44L75.5972 33.1134C76.6547 32.6576 77.5967 32.0283 78.4076 31.2263L75.5948 28.3824ZM74.0383 29.4297C73.4621 29.6691 72.8352 29.7932 72.1379 29.7894L72.116 33.7893C73.3197 33.7959 74.4785 33.5782 75.5729 33.1236L74.0383 29.4297ZM72.1379 29.7894L70.9465 29.7828L70.9246 33.7828L72.116 33.7893L72.1379 29.7894ZM70.9465 29.7828C70.2494 29.779 69.6133 29.6479 69.0205 29.3979L67.4659 33.0834C68.5619 33.5458 69.7208 33.7761 70.9246 33.7828L70.9465 29.7828ZM69.0549 29.4128C68.4447 29.1418 67.9269 28.7838 67.4858 28.3379L64.6419 31.1507C65.444 31.9616 66.379 32.6012 67.4315 33.0685L69.0549 29.4128ZM67.4858 28.3379C67.0448 27.8919 66.6924 27.3702 66.4282 26.7571L62.7548 28.3403C63.2106 29.3978 63.8399 30.3398 64.6419 31.1507L67.4858 28.3379ZM66.4385 26.7814C66.1991 26.2052 66.075 25.5783 66.0788 24.881L62.0789 24.8591C62.0723 26.0628 62.29 27.2216 62.7446 28.316L66.4385 26.7814ZM66.0788 24.881L66.1614 9.84219L62.1614 9.82023L62.0789 24.8591L66.0788 24.881ZM66.1614 9.84219C66.1652 9.14487 66.2962 8.51939 66.5419 7.94587L62.865 6.37086C62.3984 7.46012 62.168 8.61653 62.1614 9.82023L66.1614 9.84219ZM66.5313 7.97005C66.8023 7.35989 67.1603 6.84206 67.6062 6.401L64.7934 3.55709C63.9825 4.35914 63.3429 5.2942 62.8755 6.34668L66.5313 7.97005ZM67.6062 6.401C68.0467 5.96532 68.5601 5.62346 69.1626 5.37319L67.628 1.67926C66.56 2.12296 65.6097 2.74965 64.7934 3.55709L67.6062 6.401ZM69.1764 5.36737C69.7664 5.11708 70.3954 4.99035 71.0826 4.99412L71.1045 0.994183C69.8907 0.987521 68.7209 1.21551 67.6141 1.68509L69.1764 5.36737ZM71.0826 4.99412L72.274 5.00066L72.2959 1.00072L71.1045 0.994183L71.0826 4.99412ZM72.274 5.00066C72.9612 5.00443 73.5782 5.13799 74.146 5.39013L75.7694 1.73436C74.6746 1.24819 73.5097 1.00738 72.2959 1.00072L72.274 5.00066ZM74.1702 5.40068C74.7698 5.65754 75.2795 6.00501 75.7152 6.4455L78.5591 3.63264C77.7516 2.81629 76.8083 2.17921 75.7452 1.72381L74.1702 5.40068ZM75.7152 6.4455C76.1509 6.88599 76.4927 7.39942 76.743 8.00185L80.4369 6.4673C79.9932 5.39923 79.3665 4.44899 78.5591 3.63264L75.7152 6.4455ZM76.7533 8.02615C76.9991 8.59669 77.1259 9.21507 77.1222 9.90234L81.1221 9.9243C81.1288 8.71055 80.9007 7.54311 80.4266 6.44301L76.7533 8.02615ZM77.1222 9.90234L77.0396 24.9412L81.0396 24.9631L81.1221 9.9243L77.1222 9.90234ZM78.6026 9.91047C78.6074 9.02891 78.4453 8.17247 78.0963 7.36539L74.4249 8.95322C74.5388 9.21641 74.6047 9.5201 74.6027 9.88852L78.6026 9.91047ZM78.1032 7.38157C77.7771 6.60908 77.3213 5.91624 76.7334 5.32186L73.8895 8.13473C74.1044 8.35206 74.2813 8.61322 74.418 8.93704L78.1032 7.38157ZM76.7334 5.32186C76.1455 4.72749 75.4577 4.26403 74.6888 3.92951L73.093 7.59739C73.4153 7.73762 73.6745 7.91739 73.8895 8.13473L76.7334 5.32186ZM74.7049 3.93661C73.9017 3.57871 73.0471 3.40722 72.1656 3.40239L72.1436 7.40233C72.512 7.40435 72.815 7.4736 73.0769 7.5903L74.7049 3.93661ZM72.1656 3.40239L71.2085 3.39713L71.1866 7.39707L72.1436 7.40233L72.1656 3.40239ZM71.2085 3.39713C70.3266 3.39229 69.4703 3.55445 68.6601 3.89643L70.2156 7.5816C70.5017 7.46084 70.8185 7.39505 71.1866 7.39707L71.2085 3.39713ZM68.6439 3.90334C67.8916 4.22871 67.2147 4.67736 66.6232 5.24411L69.3905 8.1323C69.6368 7.89635 69.9138 7.7122 70.2318 7.57469L68.6439 3.90334ZM66.6004 5.26625C66.006 5.85414 65.5426 6.54194 65.2081 7.3108L68.8759 8.90663C69.0162 8.58433 69.1959 8.32512 69.4133 8.11016L66.6004 5.26625ZM65.2151 7.29469C64.8573 8.0979 64.6858 8.9525 64.6809 9.83406L68.6809 9.85601C68.6829 9.4876 68.7521 9.18465 68.8689 8.92273L65.2151 7.29469ZM64.6809 9.83406L64.5984 24.8729L68.5983 24.8949L68.6809 9.85601L64.6809 9.83406ZM64.5984 24.8729C64.5936 25.7548 64.7557 26.6111 65.0977 27.4213L68.7829 25.8659C68.6621 25.5797 68.5963 25.2629 68.5983 24.8949L64.5984 24.8729ZM65.1046 27.4375C65.43 28.1898 65.8786 28.8668 66.4454 29.4583L69.3336 26.6909C69.0976 26.4447 68.9135 26.1676 68.776 25.8497L65.1046 27.4375ZM66.49 29.5034C67.0753 30.0766 67.7473 30.5327 68.496 30.8663L70.124 27.2126C69.8076 27.0716 69.5326 26.8844 69.2889 26.6458L66.49 29.5034ZM68.5121 30.8734C69.3185 31.2242 70.1729 31.3958 71.0549 31.4006L71.0768 27.4007C70.7087 27.3987 70.3927 27.3294 70.1079 27.2055L68.5121 30.8734ZM71.0549 31.4006L72.0119 31.4059L72.0338 27.4059L71.0768 27.4007L71.0549 31.4006ZM72.0119 31.4059C72.8934 31.4107 73.7499 31.2486 74.5569 30.8996L72.9691 27.2282C72.7059 27.342 72.4022 27.408 72.0338 27.4059L72.0119 31.4059ZM74.5408 30.9065C75.3133 30.5804 76.0061 30.1245 76.6005 29.5366L73.7876 26.6927C73.5703 26.9077 73.3091 27.0846 72.9853 27.2213L74.5408 30.9065ZM76.6229 29.5141C77.1961 28.9289 77.6521 28.2569 77.9857 27.5082L74.332 25.8802C74.191 26.1966 74.0039 26.4716 73.7652 26.7152L76.6229 29.5141ZM77.9928 27.4921C78.3437 26.6857 78.5152 25.8312 78.5201 24.9493L74.5201 24.9274C74.5181 25.2954 74.4488 25.6115 74.325 25.8963L77.9928 27.4921ZM78.5201 24.9493L78.6026 9.91047L74.6027 9.88852L74.5201 24.9274L78.5201 24.9493ZM85.0391 31.4696L83.0391 31.4586L83.0281 33.4585L85.0281 33.4695L85.0391 31.4696ZM85.0522 29.0672L85.0632 27.0673L83.0633 27.0563L83.0523 29.0563L85.0522 29.0672ZM91.7318 29.1039L91.7209 31.1039L93.7208 31.1149L93.7318 29.1149L91.7318 29.1039ZM91.8592 5.90113L93.8591 5.91211L93.8757 2.89999L91.0932 4.05363L91.8592 5.90113ZM85.1642 8.67693L83.1642 8.66595L83.1477 11.6781L85.9301 10.5244L85.1642 8.67693ZM85.1773 6.27462L84.4114 4.42712L83.1847 4.93572L83.1774 6.26365L85.1773 6.27462ZM91.8724 3.49882L91.8833 1.49885L91.4795 1.49664L91.1064 1.65132L91.8724 3.49882ZM94.3919 3.51265L96.3918 3.52363L96.4028 1.52366L94.4028 1.51268L94.3919 3.51265ZM94.2513 29.1177L92.2514 29.1068L92.2404 31.1067L94.2404 31.1177L94.2513 29.1177ZM100.931 29.1544L102.931 29.1654L102.942 27.1654L100.942 27.1544L100.931 29.1544ZM100.918 31.5567L100.907 33.5567L102.907 33.5676L102.918 31.5677L100.918 31.5567ZM87.039 31.4805L87.0522 29.0782L83.0523 29.0563L83.0391 31.4586L87.039 31.4805ZM85.0413 31.0672L91.7209 31.1039L91.7428 27.1039L85.0632 27.0673L85.0413 31.0672ZM93.7318 29.1149L93.8591 5.91211L89.8592 5.89016L89.7319 29.0929L93.7318 29.1149ZM91.0932 4.05363L84.3982 6.82943L85.9301 10.5244L92.6252 7.74863L91.0932 4.05363ZM87.1641 8.68791L87.1773 6.2856L83.1774 6.26365L83.1642 8.66595L87.1641 8.68791ZM85.9433 8.12212L92.6383 5.34633L91.1064 1.65132L84.4114 4.42712L85.9433 8.12212ZM91.8614 5.49879L94.3809 5.51262L94.4028 1.51268L91.8833 1.49885L91.8614 5.49879ZM92.3919 3.50168L92.2514 29.1068L96.2513 29.1287L96.3918 3.52363L92.3919 3.50168ZM94.2404 31.1177L100.92 31.1544L100.942 27.1544L94.2623 27.1178L94.2404 31.1177ZM98.9309 29.1434L98.9178 31.5457L102.918 31.5677L102.931 29.1654L98.9309 29.1434ZM100.929 29.5567L85.05 29.4696L85.0281 33.4695L100.907 33.5567L100.929 29.5567ZM119.766 27.8515L117.939 27.0398L117.933 27.0519L117.928 27.064L119.766 27.8515ZM116.094 31.5033L116.861 33.3502L116.873 33.3452L116.886 33.34L116.094 31.5033ZM109.532 31.4673L108.72 33.2951L108.737 33.3027L108.754 33.31L109.532 31.4673ZM105.88 27.7753L104.033 28.5426L104.038 28.5547L104.043 28.5669L105.88 27.7753ZM105.992 7.38497L104.164 6.57329L104.159 6.58534L104.153 6.59746L105.992 7.38497ZM109.684 3.75283L110.451 5.5998L110.458 5.59691L110.465 5.59397L109.684 3.75283ZM116.246 3.78885L115.434 5.61673L115.447 5.62209L115.459 5.62728L116.246 3.78885ZM119.878 7.46118L118.031 8.22846L118.036 8.24064L118.042 8.25275L119.878 7.46118ZM117.549 8.38591L115.706 9.16365L115.71 9.17175L115.713 9.17983L117.549 8.38591ZM115.179 5.99006L114.365 7.8169L114.373 7.82049L114.381 7.824L115.179 5.99006ZM110.726 5.96562L109.949 4.12303L109.94 4.12645L109.932 4.12994L110.726 5.96562ZM109.295 6.91481L107.912 5.47071L107.9 5.48169L107.889 5.49286L109.295 6.91481ZM108.33 8.33532L110.157 9.14933L110.161 9.1413L110.164 9.13323L108.33 8.33532ZM108.229 26.8702L106.386 27.6479L106.39 27.656L106.393 27.6641L108.229 26.8702ZM109.178 28.3012L107.734 29.6849L107.756 29.7078L107.778 29.73L109.178 28.3012ZM110.598 29.266L109.784 31.0929L109.792 31.0965L109.8 31.1L110.598 29.266ZM115.051 29.2905L114.274 27.4479L114.266 27.4513L114.258 27.4548L115.051 29.2905ZM116.482 28.3413L117.889 29.7632L117.9 29.7521L117.911 29.7407L116.482 28.3413ZM117.447 26.9208L119.274 27.7348L119.278 27.7268L119.281 27.7187L117.447 26.9208ZM118.328 25.1678C118.324 25.8551 118.191 26.472 117.939 27.0398L121.594 28.6632C122.081 27.5684 122.321 26.4035 122.328 25.1897L118.328 25.1678ZM117.928 27.064C117.671 27.6636 117.324 28.1733 116.883 28.609L119.696 31.4529C120.512 30.6454 121.15 29.7021 121.605 28.639L117.928 27.064ZM116.883 28.609C116.437 29.05 115.916 29.4024 115.302 29.6666L116.886 33.34C117.943 32.8842 118.885 32.2549 119.696 31.4529L116.883 28.609ZM115.327 29.6563C114.751 29.8957 114.124 30.0198 113.426 30.016L113.404 34.0159C114.608 34.0225 115.767 33.8048 116.861 33.3502L115.327 29.6563ZM113.426 30.016L112.235 30.0094L112.213 34.0094L113.404 34.0159L113.426 30.016ZM112.235 30.0094C111.538 30.0056 110.902 29.8746 110.309 29.6245L108.754 33.31C109.85 33.7724 111.009 34.0027 112.213 34.0094L112.235 30.0094ZM110.343 29.6394C109.733 29.3684 109.215 29.0104 108.774 28.5645L105.93 31.3773C106.732 32.1882 107.667 32.8278 108.72 33.2951L110.343 29.6394ZM108.774 28.5645C108.333 28.1185 107.981 27.5968 107.717 26.9837L104.043 28.5669C104.499 29.6244 105.128 30.5664 105.93 31.3773L108.774 28.5645ZM107.727 27.008C107.488 26.4318 107.363 25.8049 107.367 25.1076L103.367 25.0857C103.361 26.2894 103.578 27.4482 104.033 28.5426L107.727 27.008ZM107.367 25.1076L107.45 10.0688L103.45 10.0468L103.367 25.0857L107.367 25.1076ZM107.45 10.0688C107.454 9.37148 107.585 8.74599 107.83 8.17247L104.153 6.59746C103.687 7.68673 103.456 8.84314 103.45 10.0468L107.45 10.0688ZM107.82 8.19665C108.091 7.58649 108.449 7.06867 108.895 6.6276L106.082 3.78369C105.271 4.58575 104.631 5.5208 104.164 6.57329L107.82 8.19665ZM108.895 6.6276C109.335 6.19192 109.849 5.85006 110.451 5.5998L108.916 1.90586C107.848 2.34957 106.898 2.97625 106.082 3.78369L108.895 6.6276ZM110.465 5.59397C111.055 5.34368 111.684 5.21695 112.371 5.22073L112.393 1.22079C111.179 1.21412 110.009 1.44211 108.903 1.91169L110.465 5.59397ZM112.371 5.22073L113.562 5.22726L113.584 1.22733L112.393 1.22079L112.371 5.22073ZM113.562 5.22726C114.25 5.23104 114.867 5.36459 115.434 5.61673L117.058 1.96096C115.963 1.4748 114.798 1.23399 113.584 1.22733L113.562 5.22726ZM115.459 5.62728C116.058 5.88414 116.568 6.23162 117.004 6.6721L119.848 3.85924C119.04 3.04289 118.097 2.40581 117.034 1.95041L115.459 5.62728ZM117.004 6.6721C117.439 7.11259 117.781 7.62602 118.031 8.22846L121.725 6.6939C121.282 5.62584 120.655 4.6756 119.848 3.85924L117.004 6.6721ZM118.042 8.25275C118.288 8.8233 118.414 9.44168 118.411 10.1289L122.411 10.1509C122.417 8.93715 122.189 7.76971 121.715 6.66961L118.042 8.25275ZM118.411 10.1289L118.328 25.1678L122.328 25.1897L122.411 10.1509L118.411 10.1289ZM119.891 10.1371C119.896 9.25551 119.734 8.39908 119.385 7.59199L115.713 9.17983C115.827 9.44301 115.893 9.7467 115.891 10.1151L119.891 10.1371ZM119.392 7.60817C119.066 6.83569 118.61 6.14284 118.022 5.54847L115.178 8.36133C115.393 8.57866 115.57 8.83983 115.706 9.16365L119.392 7.60817ZM118.022 5.54847C117.434 4.95409 116.746 4.49064 115.977 4.15612L114.381 7.824C114.704 7.96422 114.963 8.14399 115.178 8.36133L118.022 5.54847ZM115.993 4.16321C115.19 3.80531 114.336 3.63383 113.454 3.62899L113.432 7.62893C113.8 7.63095 114.103 7.7002 114.365 7.8169L115.993 4.16321ZM113.454 3.62899L112.497 3.62374L112.475 7.62368L113.432 7.62893L113.454 3.62899ZM112.497 3.62374C111.615 3.6189 110.759 3.78105 109.949 4.12303L111.504 7.8082C111.79 7.68744 112.107 7.62166 112.475 7.62368L112.497 3.62374ZM109.932 4.12994C109.18 4.45532 108.503 4.90396 107.912 5.47071L110.679 8.3589C110.925 8.12295 111.202 7.9388 111.52 7.80129L109.932 4.12994ZM107.889 5.49286C107.294 6.08074 106.831 6.76854 106.497 7.5374L110.164 9.13323C110.305 8.81093 110.484 8.55172 110.702 8.33676L107.889 5.49286ZM106.504 7.5213C106.146 8.3245 105.974 9.1791 105.969 10.0607L109.969 10.0826C109.971 9.7142 110.041 9.41125 110.157 9.14933L106.504 7.5213ZM105.969 10.0607L105.887 25.0995L109.887 25.1215L109.969 10.0826L105.969 10.0607ZM105.887 25.0995C105.882 25.9814 106.044 26.8377 106.386 27.6479L110.071 26.0925C109.951 25.8063 109.885 25.4895 109.887 25.1215L105.887 25.0995ZM106.393 27.6641C106.718 28.4164 107.167 29.0934 107.734 29.6849L110.622 26.9175C110.386 26.6713 110.202 26.3942 110.064 26.0763L106.393 27.6641ZM107.778 29.73C108.364 30.3032 109.036 30.7593 109.784 31.0929L111.412 27.4392C111.096 27.2982 110.821 27.111 110.577 26.8724L107.778 29.73ZM109.8 31.1C110.607 31.4508 111.461 31.6224 112.343 31.6272L112.365 27.6273C111.997 27.6253 111.681 27.556 111.396 27.4321L109.8 31.1ZM112.343 31.6272L113.3 31.6325L113.322 27.6325L112.365 27.6273L112.343 31.6272ZM113.3 31.6325C114.182 31.6373 115.038 31.4752 115.845 31.1262L114.258 27.4548C113.994 27.5686 113.691 27.6346 113.322 27.6325L113.3 31.6325ZM115.829 31.1331C116.602 30.807 117.295 30.3511 117.889 29.7632L115.076 26.9193C114.859 27.1343 114.598 27.3112 114.274 27.4479L115.829 31.1331ZM117.911 29.7407C118.485 29.1555 118.941 28.4835 119.274 27.7348L115.62 26.1068C115.479 26.4232 115.292 26.6982 115.054 26.9418L117.911 29.7407ZM119.281 27.7187C119.632 26.9123 119.804 26.0578 119.809 25.1759L115.809 25.154C115.807 25.522 115.737 25.8381 115.613 26.1229L119.281 27.7187ZM119.809 25.1759L119.891 10.1371L115.891 10.1151L115.809 25.154L119.809 25.1759ZM140.352 27.9645L138.524 27.1528L138.519 27.1649L138.514 27.177L140.352 27.9645ZM136.68 31.6163L137.447 33.4632L137.459 33.4582L137.471 33.4529L136.68 31.6163ZM130.117 31.5802L129.306 33.4081L129.323 33.4157L129.34 33.423L130.117 31.5802ZM126.466 27.8883L124.619 28.6555L124.624 28.6677L124.629 28.6798L126.466 27.8883ZM126.577 7.49795L124.75 6.68627L124.744 6.69832L124.739 6.71044L126.577 7.49795ZM130.269 3.86581L131.037 5.71278L131.044 5.70989L131.051 5.70695L130.269 3.86581ZM136.832 3.90183L136.02 5.72971L136.032 5.73507L136.044 5.74026L136.832 3.90183ZM140.464 7.57416L138.617 8.34144L138.622 8.35362L138.627 8.36573L140.464 7.57416ZM138.135 8.49889L136.292 9.27663L136.296 9.28473L136.299 9.29281L138.135 8.49889ZM135.765 6.10304L134.951 7.92988L134.959 7.93347L134.967 7.93698L135.765 6.10304ZM131.312 6.0786L130.534 4.23601L130.526 4.23943L130.518 4.24292L131.312 6.0786ZM129.881 7.02779L128.497 5.58369L128.486 5.59467L128.474 5.60584L129.881 7.02779ZM128.916 8.4483L130.743 9.26231L130.746 9.25428L130.75 9.24621L128.916 8.4483ZM128.814 26.9832L126.972 27.7609L126.975 27.769L126.979 27.7771L128.814 26.9832ZM129.764 28.4142L128.319 29.7979L128.341 29.8208L128.364 29.843L129.764 28.4142ZM131.184 29.379L130.37 31.2059L130.378 31.2095L130.386 31.213L131.184 29.379ZM135.637 29.4035L134.859 27.5609L134.851 27.5643L134.843 27.5678L135.637 29.4035ZM137.068 28.4543L138.475 29.8762L138.486 29.8651L138.497 29.8537L137.068 28.4543ZM138.033 27.0338L139.86 27.8478L139.863 27.8398L139.867 27.8317L138.033 27.0338ZM138.914 25.2808C138.91 25.968 138.776 26.585 138.524 27.1528L142.18 28.7762C142.666 27.6813 142.907 26.5165 142.914 25.3027L138.914 25.2808ZM138.514 27.177C138.257 27.7766 137.909 28.2863 137.469 28.722L140.282 31.5659C141.098 30.7584 141.735 29.8151 142.191 28.752L138.514 27.177ZM137.469 28.722C137.023 29.163 136.501 29.5153 135.888 29.7796L137.471 33.4529C138.529 32.9972 139.471 32.3679 140.282 31.5659L137.469 28.722ZM135.912 29.7693C135.336 30.0086 134.709 30.1328 134.012 30.1289L133.99 34.1289C135.194 34.1355 136.353 33.9178 137.447 33.4632L135.912 29.7693ZM134.012 30.1289L132.821 30.1224L132.799 34.1223L133.99 34.1289L134.012 30.1289ZM132.821 30.1224C132.123 30.1186 131.487 29.9875 130.895 29.7375L129.34 33.423C130.436 33.8853 131.595 34.1157 132.799 34.1223L132.821 30.1224ZM130.929 29.7524C130.319 29.4814 129.801 29.1234 129.36 28.6774L126.516 31.4903C127.318 32.3012 128.253 32.9408 129.306 33.4081L130.929 29.7524ZM129.36 28.6774C128.919 28.2315 128.567 27.7098 128.302 27.0967L124.629 28.6798C125.085 29.7374 125.714 30.6794 126.516 31.4903L129.36 28.6774ZM128.313 27.121C128.073 26.5448 127.949 25.9179 127.953 25.2206L123.953 25.1987C123.946 26.4024 124.164 27.5612 124.619 28.6555L128.313 27.121ZM127.953 25.2206L128.035 10.1818L124.036 10.1598L123.953 25.1987L127.953 25.2206ZM128.035 10.1818C128.039 9.48446 128.17 8.85897 128.416 8.28545L124.739 6.71044C124.272 7.79971 124.042 8.95612 124.036 10.1598L128.035 10.1818ZM128.405 8.30963C128.676 7.69947 129.034 7.18165 129.48 6.74058L126.667 3.89667C125.857 4.69873 125.217 5.63378 124.75 6.68627L128.405 8.30963ZM129.48 6.74058C129.921 6.3049 130.434 5.96304 131.037 5.71278L129.502 2.01884C128.434 2.46255 127.484 3.08923 126.667 3.89667L129.48 6.74058ZM131.051 5.70695C131.64 5.45666 132.269 5.32993 132.957 5.33371L132.979 1.33377C131.765 1.3271 130.595 1.55509 129.488 2.02467L131.051 5.70695ZM132.957 5.33371L134.148 5.34024L134.17 1.34031L132.979 1.33377L132.957 5.33371ZM134.148 5.34024C134.835 5.34402 135.452 5.47757 136.02 5.72971L137.643 2.07394C136.549 1.58778 135.384 1.34697 134.17 1.34031L134.148 5.34024ZM136.044 5.74026C136.644 5.99712 137.154 6.3446 137.589 6.78508L140.433 3.97222C139.626 3.15587 138.682 2.51879 137.619 2.06339L136.044 5.74026ZM137.589 6.78508C138.025 7.22557 138.367 7.739 138.617 8.34144L142.311 6.80688C141.867 5.73882 141.241 4.78858 140.433 3.97222L137.589 6.78508ZM138.627 8.36573C138.873 8.93628 139 9.55466 138.996 10.2419L142.996 10.2639C143.003 9.05013 142.775 7.88269 142.301 6.78259L138.627 8.36573ZM138.996 10.2419L138.914 25.2808L142.914 25.3027L142.996 10.2639L138.996 10.2419ZM140.477 10.2501C140.482 9.36849 140.319 8.51206 139.97 7.70497L136.299 9.29281C136.413 9.55599 136.479 9.85968 136.477 10.2281L140.477 10.2501ZM139.977 7.72115C139.651 6.94867 139.195 6.25582 138.607 5.66145L135.764 8.47431C135.978 8.69164 136.155 8.95281 136.292 9.27663L139.977 7.72115ZM138.607 5.66145C138.02 5.06707 137.332 4.60362 136.563 4.2691L134.967 7.93698C135.289 8.0772 135.549 8.25697 135.764 8.47431L138.607 5.66145ZM136.579 4.27619C135.776 3.91829 134.921 3.74681 134.04 3.74197L134.018 7.74191C134.386 7.74393 134.689 7.81318 134.951 7.92988L136.579 4.27619ZM134.04 3.74197L133.083 3.73672L133.061 7.73666L134.018 7.74191L134.04 3.74197ZM133.083 3.73672C132.201 3.73188 131.344 3.89403 130.534 4.23601L132.09 7.92118C132.376 7.80042 132.693 7.73464 133.061 7.73666L133.083 3.73672ZM130.518 4.24292C129.766 4.5683 129.089 5.01694 128.497 5.58369L131.265 8.47188C131.511 8.23593 131.788 8.05178 132.106 7.91427L130.518 4.24292ZM128.474 5.60584C127.88 6.19372 127.417 6.88152 127.082 7.65038L130.75 9.24621C130.89 8.92391 131.07 8.6647 131.287 8.44974L128.474 5.60584ZM127.089 7.63428C126.731 8.43748 126.56 9.29208 126.555 10.1736L130.555 10.1956C130.557 9.82718 130.626 9.52423 130.743 9.26231L127.089 7.63428ZM126.555 10.1736L126.472 25.2125L130.472 25.2344L130.555 10.1956L126.555 10.1736ZM126.472 25.2125C126.468 26.0944 126.63 26.9507 126.972 27.7609L130.657 26.2054C130.536 25.9193 130.47 25.6025 130.472 25.2344L126.472 25.2125ZM126.979 27.7771C127.304 28.5294 127.753 29.2064 128.319 29.7979L131.208 27.0305C130.972 26.7842 130.788 26.5072 130.65 26.1893L126.979 27.7771ZM128.364 29.843C128.949 30.4162 129.621 30.8723 130.37 31.2059L131.998 27.5522C131.682 27.4112 131.407 27.224 131.163 26.9854L128.364 29.843ZM130.386 31.213C131.193 31.5638 132.047 31.7354 132.929 31.7402L132.951 27.7403C132.583 27.7382 132.267 27.669 131.982 27.5451L130.386 31.213ZM132.929 31.7402L133.886 31.7455L133.908 27.7455L132.951 27.7403L132.929 31.7402ZM133.886 31.7455C134.768 31.7503 135.624 31.5882 136.431 31.2391L134.843 27.5678C134.58 27.6816 134.276 27.7475 133.908 27.7455L133.886 31.7455ZM136.415 31.2461C137.187 30.92 137.88 30.4641 138.475 29.8762L135.662 27.0323C135.444 27.2473 135.183 27.4242 134.859 27.5609L136.415 31.2461ZM138.497 29.8537C139.07 29.2685 139.526 28.5965 139.86 27.8478L136.206 26.2197C136.065 26.5362 135.878 26.8112 135.639 27.0548L138.497 29.8537ZM139.867 27.8317C140.218 27.0253 140.389 26.1708 140.394 25.2889L136.394 25.2669C136.392 25.635 136.323 25.9511 136.199 26.2359L139.867 27.8317ZM140.394 25.2889L140.477 10.2501L136.477 10.2281L136.394 25.2669L140.394 25.2889ZM146.913 31.8091L144.913 31.7982L144.902 33.7981L146.902 33.8091L146.913 31.8091ZM146.926 29.4068L146.937 27.4069L144.937 27.3959L144.926 29.3959L146.926 29.4068ZM153.606 29.4435L153.595 31.4435L155.595 31.4544L155.606 29.4545L153.606 29.4435ZM153.733 6.24071L155.733 6.25169L155.75 3.23958L152.967 4.39321L153.733 6.24071ZM147.038 9.01651L145.038 9.00554L145.022 12.0177L147.804 10.864L147.038 9.01651ZM147.051 6.61421L146.285 4.7667L145.059 5.2753L145.051 6.60323L147.051 6.61421ZM153.746 3.83841L153.757 1.83844L153.354 1.83622L152.98 1.99091L153.746 3.83841ZM156.266 3.85224L158.266 3.86321L158.277 1.86324L156.277 1.85227L156.266 3.85224ZM156.125 29.4573L154.125 29.4463L154.114 31.4463L156.114 31.4573L156.125 29.4573ZM162.805 29.494L164.805 29.505L164.816 27.505L162.816 27.494L162.805 29.494ZM162.792 31.8963L162.781 33.8963L164.781 33.9072L164.792 31.9073L162.792 31.8963ZM148.913 31.8201L148.926 29.4178L144.926 29.3959L144.913 31.7982L148.913 31.8201ZM146.915 31.4068L153.595 31.4435L153.617 27.4435L146.937 27.4069L146.915 31.4068ZM155.606 29.4545L155.733 6.25169L151.733 6.22974L151.606 29.4325L155.606 29.4545ZM152.967 4.39321L146.272 7.16901L147.804 10.864L154.499 8.08822L152.967 4.39321ZM149.038 9.02749L149.051 6.62518L145.051 6.60323L145.038 9.00554L149.038 9.02749ZM147.817 8.46171L154.512 5.68591L152.98 1.99091L146.285 4.7667L147.817 8.46171ZM153.735 5.83838L156.255 5.8522L156.277 1.85227L153.757 1.83844L153.735 5.83838ZM154.266 3.84126L154.125 29.4463L158.125 29.4683L158.266 3.86321L154.266 3.84126ZM156.114 31.4573L162.794 31.4939L162.816 27.494L156.136 27.4573L156.114 31.4573ZM160.805 29.483L160.792 31.8853L164.792 31.9073L164.805 29.505L160.805 29.483ZM162.803 29.8963L146.924 29.8092L146.902 33.8091L162.781 33.8963L162.803 29.8963ZM2.29947 82.0162L0.2995 82.0052L0.288523 84.0052L2.28849 84.0162L2.29947 82.0162ZM2.31265 79.6139L2.32363 77.6139L0.323661 77.603L0.312684 79.6029L2.31265 79.6139ZM8.99224 79.6506L8.98126 81.6505L10.9812 81.6615L10.9922 79.6616L8.99224 79.6506ZM9.11958 56.4478L11.1196 56.4588L11.1361 53.4467L8.3536 54.6003L9.11958 56.4478ZM2.42456 59.2236L0.424592 59.2126L0.408061 62.2247L3.19055 61.0711L2.42456 59.2236ZM2.43775 56.8213L1.67176 54.9738L0.445065 55.4824L0.437777 56.8103L2.43775 56.8213ZM9.13277 54.0455L9.14375 52.0455L8.73987 52.0433L8.36678 52.198L9.13277 54.0455ZM11.6523 54.0593L13.6522 54.0703L13.6632 52.0703L11.6632 52.0593L11.6523 54.0593ZM11.5117 79.6644L9.51176 79.6534L9.50079 81.6534L11.5008 81.6644L11.5117 79.6644ZM18.1913 79.7011L20.1913 79.712L20.2023 77.7121L18.2023 77.7011L18.1913 79.7011ZM18.1781 82.1034L18.1672 84.1033L20.1671 84.1143L20.1781 82.1143L18.1781 82.1034ZM4.29944 82.0272L4.31262 79.6249L0.312684 79.6029L0.2995 82.0052L4.29944 82.0272ZM2.30168 81.6139L8.98126 81.6505L9.00322 77.6506L2.32363 77.6139L2.30168 81.6139ZM10.9922 79.6616L11.1196 56.4588L7.11961 56.4368L6.99227 79.6396L10.9922 79.6616ZM8.3536 54.6003L1.65858 57.3761L3.19055 61.0711L9.88557 58.2953L8.3536 54.6003ZM4.42453 59.2346L4.43772 56.8323L0.437777 56.8103L0.424592 59.2126L4.42453 59.2346ZM3.20373 58.6688L9.89876 55.893L8.36678 52.198L1.67176 54.9738L3.20373 58.6688ZM9.12179 56.0455L11.6413 56.0593L11.6632 52.0593L9.14375 52.0455L9.12179 56.0455ZM9.65229 54.0483L9.51176 79.6534L13.5117 79.6754L13.6522 54.0703L9.65229 54.0483ZM11.5008 81.6644L18.1803 81.701L18.2023 77.7011L11.5227 77.6644L11.5008 81.6644ZM16.1914 79.6901L16.1782 82.0924L20.1781 82.1143L20.1913 79.712L16.1914 79.6901ZM18.1891 80.1034L2.31045 80.0163L2.28849 84.0162L18.1672 84.1033L18.1891 80.1034ZM37.0269 78.3982L35.199 77.5865L35.1936 77.5985L35.1884 77.6107L37.0269 78.3982ZM33.3544 82.0499L34.1217 83.8969L34.1339 83.8918L34.146 83.8866L33.3544 82.0499ZM26.792 82.0139L25.9804 83.8418L25.9975 83.8494L26.0147 83.8567L26.792 82.0139ZM23.1404 78.322L21.2934 79.0892L21.2985 79.1014L21.3037 79.1135L23.1404 78.322ZM23.2523 57.9316L21.4244 57.12L21.419 57.132L21.4138 57.1441L23.2523 57.9316ZM26.9441 54.2995L27.7114 56.1465L27.7184 56.1436L27.7253 56.1406L26.9441 54.2995ZM33.5065 54.3355L32.6949 56.1634L32.7069 56.1688L32.719 56.1739L33.5065 54.3355ZM37.1388 58.0078L35.2918 58.7751L35.2969 58.7873L35.3021 58.7994L37.1388 58.0078ZM34.8095 58.9326L32.9669 59.7103L32.9703 59.7184L32.9738 59.7265L34.8095 58.9326ZM32.4398 56.5367L31.6257 58.3636L31.6338 58.3672L31.6418 58.3707L32.4398 56.5367ZM27.9867 56.5123L27.209 54.6697L27.2009 54.6731L27.1928 54.6766L27.9867 56.5123ZM26.5557 57.4615L25.172 56.0174L25.1605 56.0284L25.1493 56.0395L26.5557 57.4615ZM25.5908 58.882L27.4177 59.696L27.4213 59.688L27.4248 59.6799L25.5908 58.882ZM25.4891 77.4169L23.6465 78.1946L23.65 78.2027L23.6535 78.2108L25.4891 77.4169ZM26.4383 78.8479L24.9942 80.2316L25.0162 80.2545L25.0389 80.2767L26.4383 78.8479ZM27.8588 79.8127L27.0448 81.6396L27.0528 81.6431L27.0609 81.6467L27.8588 79.8127ZM32.3119 79.8372L31.5341 77.9946L31.526 77.998L31.518 78.0015L32.3119 79.8372ZM33.7429 78.888L35.1493 80.3099L35.1606 80.2988L35.1717 80.2874L33.7429 78.888ZM34.7077 77.4675L36.5346 78.2815L36.5382 78.2734L36.5417 78.2654L34.7077 77.4675ZM35.5885 75.7144C35.5847 76.4017 35.4511 77.0187 35.199 77.5865L38.8548 79.2098C39.3409 78.115 39.5817 76.9501 39.5884 75.7364L35.5885 75.7144ZM35.1884 77.6107C34.9316 78.2103 34.5841 78.72 34.1436 79.1556L36.9565 81.9995C37.7728 81.1921 38.4099 80.2488 38.8653 79.1857L35.1884 77.6107ZM34.1436 79.1556C33.6977 79.5967 33.176 79.949 32.5629 80.2133L34.146 83.8866C35.2036 83.4308 36.1456 82.8016 36.9565 81.9995L34.1436 79.1556ZM32.5872 80.203C32.011 80.4423 31.3841 80.5664 30.6868 80.5626L30.6648 84.5626C31.8685 84.5692 33.0274 84.3515 34.1217 83.8969L32.5872 80.203ZM30.6868 80.5626L29.4954 80.5561L29.4734 84.556L30.6648 84.5626L30.6868 80.5626ZM29.4954 80.5561C28.7982 80.5523 28.1621 80.4212 27.5694 80.1712L26.0147 83.8567C27.1108 84.319 28.2696 84.5494 29.4734 84.556L29.4954 80.5561ZM27.6037 80.186C26.9936 79.9151 26.4757 79.5571 26.0347 79.1111L23.1908 81.924C23.9928 82.7349 24.9279 83.3744 25.9804 83.8418L27.6037 80.186ZM26.0347 79.1111C25.5936 78.6652 25.2413 78.1435 24.9771 77.5304L21.3037 79.1135C21.7595 80.1711 22.3887 81.1131 23.1908 81.924L26.0347 79.1111ZM24.9873 77.5547C24.748 76.9785 24.6239 76.3516 24.6277 75.6543L20.6277 75.6323C20.6211 76.836 20.8388 77.9949 21.2934 79.0892L24.9873 77.5547ZM24.6277 75.6543L24.7102 60.6155L20.7103 60.5935L20.6277 75.6323L24.6277 75.6543ZM24.7102 60.6155C24.7141 59.9181 24.845 59.2927 25.0907 58.7191L21.4138 57.1441C20.9473 58.2334 20.7169 59.3898 20.7103 60.5935L24.7102 60.6155ZM25.0802 58.7433C25.3511 58.1332 25.7091 57.6153 26.1551 57.1743L23.3422 54.3304C22.5313 55.1324 21.8918 56.0675 21.4244 57.12L25.0802 58.7433ZM26.1551 57.1743C26.5956 56.7386 27.109 56.3967 27.7114 56.1465L26.1769 52.4525C25.1088 52.8962 24.1586 53.5229 23.3422 54.3304L26.1551 57.1743ZM27.7253 56.1406C28.3152 55.8904 28.9443 55.7636 29.6314 55.7674L29.6534 51.7675C28.4395 51.7608 27.2698 51.9888 26.163 52.4584L27.7253 56.1406ZM29.6314 55.7674L30.8228 55.7739L30.8448 51.774L29.6534 51.7675L29.6314 55.7674ZM30.8228 55.7739C31.5101 55.7777 32.127 55.9113 32.6949 56.1634L34.3182 52.5076C33.2234 52.0215 32.0585 51.7807 30.8448 51.774L30.8228 55.7739ZM32.719 56.1739C33.3187 56.4308 33.8283 56.7783 34.264 57.2188L37.1079 54.4059C36.3005 53.5896 35.3572 52.9525 34.294 52.4971L32.719 56.1739ZM34.264 57.2188C34.6997 57.6593 35.0416 58.1727 35.2918 58.7751L38.9858 57.2406C38.5421 56.1725 37.9154 55.2223 37.1079 54.4059L34.264 57.2188ZM35.3021 58.7994C35.548 59.37 35.6748 59.9883 35.671 60.6756L39.6709 60.6976C39.6776 59.4838 39.4496 58.3164 38.9755 57.2163L35.3021 58.7994ZM35.671 60.6756L35.5885 75.7144L39.5884 75.7364L39.6709 60.6976L35.671 60.6756ZM37.1514 60.6837C37.1563 59.8022 36.9942 58.9457 36.6451 58.1387L32.9738 59.7265C33.0876 59.9897 33.1535 60.2934 33.1515 60.6618L37.1514 60.6837ZM36.652 58.1548C36.326 57.3824 35.8701 56.6895 35.2822 56.0951L32.4383 58.908C32.6533 59.1253 32.8302 59.3865 32.9669 59.7103L36.652 58.1548ZM35.2822 56.0951C34.6943 55.5008 34.0065 55.0373 33.2377 54.7028L31.6418 58.3707C31.9641 58.5109 32.2233 58.6907 32.4383 58.908L35.2822 56.0951ZM33.2538 54.7099C32.4506 54.352 31.596 54.1805 30.7144 54.1757L30.6925 58.1756C31.0609 58.1776 31.3638 58.2469 31.6257 58.3636L33.2538 54.7099ZM30.7144 54.1757L29.7574 54.1704L29.7354 58.1703L30.6925 58.1756L30.7144 54.1757ZM29.7574 54.1704C28.8755 54.1656 28.0192 54.3277 27.209 54.6697L28.7644 58.3549C29.0505 58.2341 29.3674 58.1683 29.7354 58.1703L29.7574 54.1704ZM27.1928 54.6766C26.4405 55.002 25.7635 55.4506 25.172 56.0174L27.9394 58.9056C28.1856 58.6696 28.4627 58.4855 28.7806 58.348L27.1928 54.6766ZM25.1493 56.0395C24.5549 56.6274 24.0914 57.3152 23.7569 58.0841L27.4248 59.6799C27.565 59.3576 27.7448 59.0984 27.9621 58.8834L25.1493 56.0395ZM23.764 58.068C23.4061 58.8712 23.2346 59.7258 23.2298 60.6073L27.2297 60.6293C27.2317 60.2609 27.301 59.9579 27.4177 59.696L23.764 58.068ZM23.2298 60.6073L23.1472 75.6462L27.1472 75.6681L27.2297 60.6293L23.2298 60.6073ZM23.1472 75.6462C23.1424 76.5281 23.3046 77.3844 23.6465 78.1946L27.3317 76.6391C27.2109 76.353 27.1452 76.0362 27.1472 75.6681L23.1472 75.6462ZM23.6535 78.2108C23.9788 78.9631 24.4275 79.6401 24.9942 80.2316L27.8824 77.4642C27.6465 77.2179 27.4623 76.9409 27.3248 76.6229L23.6535 78.2108ZM25.0389 80.2767C25.6241 80.8499 26.2961 81.306 27.0448 81.6396L28.6728 77.9859C28.3564 77.8449 28.0814 77.6577 27.8378 77.4191L25.0389 80.2767ZM27.0609 81.6467C27.8673 81.9975 28.7218 82.169 29.6037 82.1739L29.6257 78.1739C29.2576 78.1719 28.9415 78.1027 28.6567 77.9788L27.0609 81.6467ZM29.6037 82.1739L30.5607 82.1791L30.5827 78.1792L29.6257 78.1739L29.6037 82.1739ZM30.5607 82.1791C31.4423 82.184 32.2987 82.0219 33.1058 81.6728L31.518 78.0015C31.2548 78.1153 30.9511 78.1812 30.5827 78.1792L30.5607 82.1791ZM33.0896 81.6797C33.8621 81.3537 34.5549 80.8978 35.1493 80.3099L32.3365 77.466C32.1191 77.681 31.858 77.8579 31.5341 77.9946L33.0896 81.6797ZM35.1717 80.2874C35.7449 79.7022 36.201 79.0302 36.5346 78.2815L32.8809 76.6534C32.7399 76.9699 32.5527 77.2449 32.3141 77.4885L35.1717 80.2874ZM36.5417 78.2654C36.8925 77.459 37.0641 76.6045 37.0689 75.7226L33.069 75.7006C33.0669 76.0687 32.9977 76.3848 32.8738 76.6695L36.5417 78.2654ZM37.0689 75.7226L37.1514 60.6837L33.1515 60.6618L33.069 75.7006L37.0689 75.7226ZM43.5879 82.2428L41.5879 82.2318L41.577 84.2318L43.5769 84.2428L43.5879 82.2428ZM43.6011 79.8405L43.6121 77.8405L41.6121 77.8296L41.6011 79.8295L43.6011 79.8405ZM50.2807 79.8772L50.2697 81.8771L52.2697 81.8881L52.2807 79.8882L50.2807 79.8772ZM50.408 56.6744L52.408 56.6854L52.4245 53.6733L49.642 54.8269L50.408 56.6744ZM43.713 59.4502L41.713 59.4392L41.6965 62.4513L44.479 61.2977L43.713 59.4502ZM43.7262 57.0479L42.9602 55.2004L41.7335 55.709L41.7262 57.0369L43.7262 57.0479ZM50.4212 54.2721L50.4322 52.2721L50.0283 52.2699L49.6552 52.4246L50.4212 54.2721ZM52.9407 54.2859L54.9407 54.2969L54.9516 52.2969L52.9517 52.286L52.9407 54.2859ZM52.8002 79.891L50.8002 79.88L50.7892 81.88L52.7892 81.891L52.8002 79.891ZM59.4798 79.9277L61.4797 79.9386L61.4907 77.9387L59.4907 77.9277L59.4798 79.9277ZM59.4666 82.33L59.4556 84.3299L61.4556 84.3409L61.4665 82.3409L59.4666 82.33ZM45.5879 82.2538L45.6011 79.8515L41.6011 79.8295L41.5879 82.2318L45.5879 82.2538ZM43.5901 81.8405L50.2697 81.8771L50.2917 77.8772L43.6121 77.8405L43.5901 81.8405ZM52.2807 79.8882L52.408 56.6854L48.4081 56.6634L48.2807 79.8662L52.2807 79.8882ZM49.642 54.8269L42.947 57.6027L44.479 61.2977L51.174 58.5219L49.642 54.8269ZM45.713 59.4612L45.7262 57.0589L41.7262 57.0369L41.713 59.4392L45.713 59.4612ZM44.4922 58.8954L51.1872 56.1196L49.6552 52.4246L42.9602 55.2004L44.4922 58.8954ZM50.4102 56.2721L52.9297 56.2859L52.9517 52.286L50.4322 52.2721L50.4102 56.2721ZM50.9407 54.2749L50.8002 79.88L54.8001 79.902L54.9407 54.2969L50.9407 54.2749ZM52.7892 81.891L59.4688 81.9276L59.4907 77.9277L52.8112 77.891L52.7892 81.891ZM57.4798 79.9167L57.4666 82.319L61.4665 82.3409L61.4797 79.9386L57.4798 79.9167ZM59.4776 80.33L43.5989 80.2429L43.5769 84.2428L59.4556 84.3299L59.4776 80.33ZM78.3153 78.6248L76.4874 77.8131L76.4821 77.8251L76.4769 77.8373L78.3153 78.6248ZM74.6429 82.2765L75.4102 84.1235L75.4223 84.1184L75.4344 84.1132L74.6429 82.2765ZM68.0805 82.2405L67.2688 84.0684L67.2859 84.076L67.3031 84.0833L68.0805 82.2405ZM64.4288 78.5486L62.5818 79.3158L62.5869 79.328L62.5921 79.3401L64.4288 78.5486ZM64.5407 58.1582L62.7128 57.3466L62.7075 57.3586L62.7023 57.3707L64.5407 58.1582ZM68.2326 54.5261L68.9999 56.3731L69.0068 56.3702L69.0137 56.3672L68.2326 54.5261ZM74.795 54.5621L73.9833 56.39L73.9954 56.3954L74.0075 56.4006L74.795 54.5621ZM78.4272 58.2345L76.5803 59.0017L76.5853 59.0139L76.5905 59.026L78.4272 58.2345ZM76.0979 59.1592L74.2553 59.9369L74.2587 59.945L74.2622 59.9531L76.0979 59.1592ZM73.7282 56.7633L72.9142 58.5902L72.9222 58.5938L72.9303 58.5973L73.7282 56.7633ZM69.2751 56.7389L68.4974 54.8963L68.4893 54.8997L68.4812 54.9032L69.2751 56.7389ZM67.8441 57.6881L66.4604 56.244L66.449 56.255L66.4377 56.2661L67.8441 57.6881ZM66.8793 59.1086L68.7061 59.9226L68.7097 59.9146L68.7132 59.9065L66.8793 59.1086ZM66.7776 77.6435L64.935 78.4212L64.9384 78.4293L64.9419 78.4374L66.7776 77.6435ZM67.7268 79.0745L66.2827 80.4582L66.3046 80.4811L66.3273 80.5033L67.7268 79.0745ZM69.1473 80.0393L68.3332 81.8662L68.3413 81.8697L68.3493 81.8733L69.1473 80.0393ZM73.6003 80.0638L72.8226 78.2212L72.8145 78.2246L72.8064 78.2281L73.6003 80.0638ZM75.0313 79.1146L76.4378 80.5365L76.449 80.5254L76.4602 80.514L75.0313 79.1146ZM75.9962 77.6941L77.823 78.5081L77.8266 78.5L77.8301 78.492L75.9962 77.6941ZM76.8769 75.9411C76.8731 76.6283 76.7396 77.2453 76.4874 77.8131L80.1432 79.4364C80.6294 78.3416 80.8702 77.1767 80.8768 75.963L76.8769 75.9411ZM76.4769 77.8373C76.22 78.4369 75.8726 78.9466 75.4321 79.3822L78.2449 82.2262C79.0613 81.4187 79.6984 80.4754 80.1538 79.4123L76.4769 77.8373ZM75.4321 79.3822C74.9861 79.8233 74.4644 80.1756 73.8513 80.4399L75.4344 84.1132C76.492 83.6574 77.434 83.0282 78.2449 82.2262L75.4321 79.3822ZM73.8756 80.4296C73.2994 80.6689 72.6725 80.7931 71.9752 80.7892L71.9533 84.7892C73.157 84.7958 74.3158 84.5781 75.4102 84.1235L73.8756 80.4296ZM71.9752 80.7892L70.7838 80.7827L70.7619 84.7826L71.9533 84.7892L71.9752 80.7892ZM70.7838 80.7827C70.0867 80.7789 69.4506 80.6478 68.8578 80.3978L67.3031 84.0833C68.3992 84.5456 69.558 84.776 70.7619 84.7826L70.7838 80.7827ZM68.8922 80.4126C68.282 80.1417 67.7642 79.7837 67.3231 79.3377L64.4792 82.1506C65.2813 82.9615 66.2163 83.6011 67.2688 84.0684L68.8922 80.4126ZM67.3231 79.3377C66.882 78.8918 66.5297 78.3701 66.2655 77.757L62.5921 79.3401C63.0479 80.3977 63.6772 81.3397 64.4792 82.1506L67.3231 79.3377ZM66.2758 77.7813C66.0364 77.2051 65.9123 76.5782 65.9161 75.8809L61.9162 75.8589C61.9096 77.0626 62.1272 78.2215 62.5818 79.3158L66.2758 77.7813ZM65.9161 75.8809L65.9987 60.8421L61.9987 60.8201L61.9162 75.8589L65.9161 75.8809ZM65.9987 60.8421C66.0025 60.1447 66.1335 59.5193 66.3792 58.9457L62.7023 57.3707C62.2357 58.46 62.0053 59.6164 61.9987 60.8201L65.9987 60.8421ZM66.3686 58.9699C66.6396 58.3598 66.9976 57.8419 67.4435 57.4009L64.6306 54.557C63.8197 55.359 63.1802 56.2941 62.7128 57.3466L66.3686 58.9699ZM67.4435 57.4009C67.884 56.9652 68.3974 56.6233 68.9999 56.3731L67.4653 52.6791C66.3972 53.1228 65.447 53.7495 64.6306 54.557L67.4435 57.4009ZM69.0137 56.3672C69.6036 56.117 70.2327 55.9902 70.9199 55.994L70.9418 51.9941C69.728 51.9874 68.5582 52.2154 67.4514 52.685L69.0137 56.3672ZM70.9199 55.994L72.1113 56.0005L72.1332 52.0006L70.9418 51.9941L70.9199 55.994ZM72.1113 56.0005C72.7985 56.0043 73.4155 56.1379 73.9833 56.39L75.6067 52.7342C74.5118 52.2481 73.347 52.0073 72.1332 52.0006L72.1113 56.0005ZM74.0075 56.4006C74.6071 56.6574 75.1168 57.0049 75.5525 57.4454L78.3964 54.6325C77.5889 53.8162 76.6456 53.1791 75.5825 52.7237L74.0075 56.4006ZM75.5525 57.4454C75.9881 57.8859 76.33 58.3993 76.5803 59.0017L80.2742 57.4672C79.8305 56.3991 79.2038 55.4489 78.3964 54.6325L75.5525 57.4454ZM76.5905 59.026C76.8364 59.5966 76.9632 60.2149 76.9594 60.9022L80.9594 60.9242C80.966 59.7104 80.738 58.543 80.2639 57.4429L76.5905 59.026ZM76.9594 60.9022L76.8769 75.9411L80.8768 75.963L80.9594 60.9242L76.9594 60.9022ZM78.4399 60.9103C78.4447 60.0288 78.2826 59.1723 77.9336 58.3653L74.2622 59.9531C74.3761 60.2163 74.442 60.52 74.4399 60.8884L78.4399 60.9103ZM77.9405 58.3814C77.6144 57.609 77.1585 56.9161 76.5707 56.3217L73.7268 59.1346C73.9417 59.3519 74.1186 59.6131 74.2553 59.9369L77.9405 58.3814ZM76.5707 56.3217C75.9828 55.7274 75.295 55.2639 74.5261 54.9294L72.9303 58.5973C73.2526 58.7375 73.5118 58.9173 73.7268 59.1346L76.5707 56.3217ZM74.5422 54.9365C73.739 54.5786 72.8844 54.4071 72.0029 54.4023L71.9809 58.4022C72.3493 58.4042 72.6523 58.4735 72.9142 58.5902L74.5422 54.9365ZM72.0029 54.4023L71.0458 54.397L71.0239 58.3969L71.9809 58.4022L72.0029 54.4023ZM71.0458 54.397C70.1639 54.3922 69.3076 54.5543 68.4974 54.8963L70.0529 58.5815C70.339 58.4607 70.6558 58.3949 71.0239 58.3969L71.0458 54.397ZM68.4812 54.9032C67.7289 55.2286 67.0519 55.6772 66.4604 56.244L69.2278 59.1322C69.4741 58.8962 69.7511 58.7121 70.0691 58.5746L68.4812 54.9032ZM66.4377 56.2661C65.8433 56.854 65.3799 57.5418 65.0454 58.3107L68.7132 59.9065C68.8535 59.5842 69.0332 59.325 69.2506 59.11L66.4377 56.2661ZM65.0524 58.2946C64.6945 59.0978 64.5231 59.9524 64.5182 60.8339L68.5182 60.8559C68.5202 60.4875 68.5894 60.1845 68.7061 59.9226L65.0524 58.2946ZM64.5182 60.8339L64.4357 75.8728L68.4356 75.8947L68.5182 60.8559L64.5182 60.8339ZM64.4357 75.8728C64.4308 76.7547 64.593 77.611 64.935 78.4212L68.6201 76.8657C68.4994 76.5796 68.4336 76.2628 68.4356 75.8947L64.4357 75.8728ZM64.9419 78.4374C65.2673 79.1897 65.7159 79.8667 66.2827 80.4582L69.1708 77.6908C68.9349 77.4445 68.7507 77.1675 68.6132 76.8495L64.9419 78.4374ZM66.3273 80.5033C66.9125 81.0765 67.5845 81.5326 68.3332 81.8662L69.9613 78.2125C69.6449 78.0715 69.3699 77.8843 69.1262 77.6457L66.3273 80.5033ZM68.3493 81.8733C69.1557 82.2241 70.0102 82.3957 70.8921 82.4005L70.9141 78.4006C70.546 78.3985 70.2299 78.3293 69.9452 78.2054L68.3493 81.8733ZM70.8921 82.4005L71.8492 82.4057L71.8711 78.4058L70.9141 78.4006L70.8921 82.4005ZM71.8492 82.4057C72.7307 82.4106 73.5872 82.2485 74.3942 81.8994L72.8064 78.2281C72.5432 78.3419 72.2395 78.4078 71.8711 78.4058L71.8492 82.4057ZM74.3781 81.9063C75.1505 81.5803 75.8434 81.1244 76.4378 80.5365L73.6249 77.6926C73.4076 77.9076 73.1464 78.0845 72.8226 78.2212L74.3781 81.9063ZM76.4602 80.514C77.0334 79.9288 77.4894 79.2568 77.823 78.5081L74.1693 76.88C74.0283 77.1965 73.8412 77.4715 73.6025 77.7151L76.4602 80.514ZM77.8301 78.492C78.181 77.6856 78.3525 76.8311 78.3573 75.9492L74.3574 75.9272C74.3554 76.2953 74.2861 76.6114 74.1622 76.8961L77.8301 78.492ZM78.3573 75.9492L78.4399 60.9103L74.4399 60.8884L74.3574 75.9272L78.3573 75.9492ZM84.8763 82.4694L82.8764 82.4585L82.8654 84.4584L84.8654 84.4694L84.8763 82.4694ZM84.8895 80.0671L84.9005 78.0672L82.9005 78.0562L82.8896 80.0561L84.8895 80.0671ZM91.5691 80.1038L91.5581 82.1038L93.5581 82.1147L93.5691 80.1148L91.5691 80.1038ZM91.6965 56.901L93.6964 56.912L93.713 53.8999L90.9305 55.0535L91.6965 56.901ZM85.0014 59.6768L83.0015 59.6658L82.9849 62.6779L85.7674 61.5243L85.0014 59.6768ZM85.0146 57.2745L84.2486 55.427L83.0219 55.9356L83.0147 57.2635L85.0146 57.2745ZM91.7096 54.4987L91.7206 52.4987L91.3167 52.4965L90.9437 52.6512L91.7096 54.4987ZM94.2291 54.5125L96.2291 54.5235L96.2401 52.5235L94.2401 52.5126L94.2291 54.5125ZM94.0886 80.1176L92.0886 80.1066L92.0777 82.1066L94.0776 82.1176L94.0886 80.1176ZM100.768 80.1543L102.768 80.1652L102.779 78.1653L100.779 78.1543L100.768 80.1543ZM100.755 82.5566L100.744 84.5565L102.744 84.5675L102.755 82.5676L100.755 82.5566ZM86.8763 82.4804L86.8895 80.0781L82.8896 80.0561L82.8764 82.4585L86.8763 82.4804ZM84.8786 82.0671L91.5581 82.1038L91.5801 78.1038L84.9005 78.0672L84.8786 82.0671ZM93.5691 80.1148L93.6964 56.912L89.6965 56.89L89.5692 80.0928L93.5691 80.1148ZM90.9305 55.0535L84.2355 57.8293L85.7674 61.5243L92.4625 58.7485L90.9305 55.0535ZM87.0014 59.6878L87.0146 57.2855L83.0147 57.2635L83.0015 59.6658L87.0014 59.6878ZM85.7806 59.122L92.4756 56.3462L90.9437 52.6512L84.2486 55.427L85.7806 59.122ZM91.6987 56.4987L94.2182 56.5125L94.2401 52.5126L91.7206 52.4987L91.6987 56.4987ZM92.2292 54.5015L92.0886 80.1066L96.0886 80.1286L96.2291 54.5235L92.2292 54.5015ZM94.0776 82.1176L100.757 82.1542L100.779 78.1543L94.0996 78.1176L94.0776 82.1176ZM98.7682 80.1433L98.755 82.5456L102.755 82.5676L102.768 80.1652L98.7682 80.1433ZM100.766 80.5566L84.8873 80.4695L84.8654 84.4694L100.744 84.5565L100.766 80.5566ZM119.604 78.8514L117.776 78.0397L117.771 78.0517L117.765 78.0639L119.604 78.8514ZM115.931 82.5031L116.699 84.3501L116.711 84.3451L116.723 84.3398L115.931 82.5031ZM109.369 82.4671L108.557 84.295L108.574 84.3026L108.592 84.3099L109.369 82.4671ZM105.717 78.7752L103.87 79.5424L103.875 79.5546L103.881 79.5667L105.717 78.7752ZM105.829 58.3848L104.001 57.5732L103.996 57.5852L103.991 57.5973L105.829 58.3848ZM109.521 54.7527L110.288 56.5997L110.295 56.5968L110.302 56.5938L109.521 54.7527ZM116.083 54.7887L115.272 56.6166L115.284 56.622L115.296 56.6272L116.083 54.7887ZM119.716 58.4611L117.869 59.2283L117.874 59.2405L117.879 59.2526L119.716 58.4611ZM117.386 59.3858L115.544 60.1635L115.547 60.1716L115.551 60.1797L117.386 59.3858ZM115.017 56.9899L114.203 58.8168L114.211 58.8204L114.219 58.8239L115.017 56.9899ZM110.564 56.9655L109.786 55.1229L109.778 55.1263L109.77 55.1298L110.564 56.9655ZM109.133 57.9147L107.749 56.4706L107.737 56.4816L107.726 56.4927L109.133 57.9147ZM108.168 59.3352L109.995 60.1492L109.998 60.1412L110.002 60.1331L108.168 59.3352ZM108.066 77.8701L106.223 78.6478L106.227 78.6559L106.23 78.664L108.066 77.8701ZM109.015 79.3011L107.571 80.6848L107.593 80.7077L107.616 80.7299L109.015 79.3011ZM110.436 80.2659L109.622 82.0928L109.63 82.0963L109.638 82.0999L110.436 80.2659ZM114.889 80.2904L114.111 78.4478L114.103 78.4512L114.095 78.4547L114.889 80.2904ZM116.32 79.3412L117.726 80.7631L117.737 80.752L117.749 80.7406L116.32 79.3412ZM117.285 77.9207L119.111 78.7347L119.115 78.7266L119.119 78.7186L117.285 77.9207ZM118.165 76.1677C118.162 76.8549 118.028 77.4719 117.776 78.0397L121.432 79.6631C121.918 78.5682 122.159 77.4034 122.165 76.1896L118.165 76.1677ZM117.765 78.0639C117.508 78.6635 117.161 79.1732 116.72 79.6088L119.533 82.4528C120.35 81.6453 120.987 80.702 121.442 79.6389L117.765 78.0639ZM116.72 79.6088C116.275 80.0499 115.753 80.4022 115.14 80.6665L116.723 84.3398C117.78 83.8841 118.722 83.2548 119.533 82.4528L116.72 79.6088ZM115.164 80.6562C114.588 80.8955 113.961 81.0197 113.264 81.0158L113.242 85.0158C114.445 85.0224 115.604 84.8047 116.699 84.3501L115.164 80.6562ZM113.264 81.0158L112.072 81.0093L112.05 85.0092L113.242 85.0158L113.264 81.0158ZM112.072 81.0093C111.375 81.0055 110.739 80.8744 110.146 80.6244L108.592 84.3099C109.688 84.7722 110.846 85.0026 112.05 85.0092L112.072 81.0093ZM110.181 80.6392C109.57 80.3683 109.053 80.0103 108.612 79.5643L105.768 82.3772C106.57 83.1881 107.505 83.8277 108.557 84.295L110.181 80.6392ZM108.612 79.5643C108.17 79.1184 107.818 78.5967 107.554 77.9836L103.881 79.5667C104.336 80.6243 104.966 81.5663 105.768 82.3772L108.612 79.5643ZM107.564 78.0079C107.325 77.4317 107.201 76.8048 107.205 76.1075L103.205 76.0855C103.198 77.2892 103.416 78.4481 103.87 79.5424L107.564 78.0079ZM107.205 76.1075L107.287 61.0687L103.287 61.0467L103.205 76.0855L107.205 76.1075ZM107.287 61.0687C107.291 60.3713 107.422 59.7459 107.668 59.1723L103.991 57.5973C103.524 58.6866 103.294 59.843 103.287 61.0467L107.287 61.0687ZM107.657 59.1965C107.928 58.5864 108.286 58.0685 108.732 57.6275L105.919 54.7836C105.108 55.5856 104.469 56.5207 104.001 57.5732L107.657 59.1965ZM108.732 57.6275C109.172 57.1918 109.686 56.8499 110.288 56.5997L108.754 52.9057C107.686 53.3494 106.735 53.9761 105.919 54.7836L108.732 57.6275ZM110.302 56.5938C110.892 56.3436 111.521 56.2168 112.208 56.2206L112.23 52.2207C111.016 52.214 109.847 52.442 108.74 52.9116L110.302 56.5938ZM112.208 56.2206L113.4 56.2271L113.422 52.2272L112.23 52.2207L112.208 56.2206ZM113.4 56.2271C114.087 56.2309 114.704 56.3645 115.272 56.6166L116.895 52.9608C115.8 52.4747 114.635 52.2339 113.422 52.2272L113.4 56.2271ZM115.296 56.6272C115.896 56.884 116.405 57.2315 116.841 57.672L119.685 54.8591C118.877 54.0428 117.934 53.4057 116.871 52.9503L115.296 56.6272ZM116.841 57.672C117.277 58.1125 117.618 58.6259 117.869 59.2283L121.563 57.6938C121.119 56.6257 120.492 55.6755 119.685 54.8591L116.841 57.672ZM117.879 59.2526C118.125 59.8232 118.252 60.4416 118.248 61.1288L122.248 61.1508C122.254 59.937 122.026 58.7696 121.552 57.6695L117.879 59.2526ZM118.248 61.1288L118.165 76.1677L122.165 76.1896L122.248 61.1508L118.248 61.1288ZM119.728 61.1369C119.733 60.2554 119.571 59.399 119.222 58.5919L115.551 60.1797C115.664 60.4429 115.73 60.7466 115.728 61.115L119.728 61.1369ZM119.229 58.608C118.903 57.8356 118.447 57.1427 117.859 56.5483L115.015 59.3612C115.23 59.5785 115.407 59.8397 115.544 60.1635L119.229 58.608ZM117.859 56.5483C117.271 55.954 116.583 55.4905 115.815 55.156L114.219 58.8239C114.541 58.9641 114.8 59.1439 115.015 59.3612L117.859 56.5483ZM115.831 55.1631C115.027 54.8052 114.173 54.6337 113.291 54.6289L113.269 58.6288C113.638 58.6308 113.941 58.7001 114.203 58.8168L115.831 55.1631ZM113.291 54.6289L112.334 54.6236L112.312 58.6236L113.269 58.6288L113.291 54.6289ZM112.334 54.6236C111.452 54.6188 110.596 54.7809 109.786 55.1229L111.341 58.8081C111.627 58.6873 111.944 58.6215 112.312 58.6236L112.334 54.6236ZM109.77 55.1298C109.017 55.4552 108.34 55.9038 107.749 56.4706L110.516 59.3588C110.763 59.1228 111.04 58.9387 111.357 58.8012L109.77 55.1298ZM107.726 56.4927C107.132 57.0806 106.668 57.7684 106.334 58.5373L110.002 60.1331C110.142 59.8108 110.322 59.5516 110.539 59.3366L107.726 56.4927ZM106.341 58.5212C105.983 59.3244 105.811 60.179 105.807 61.0605L109.807 61.0825C109.809 60.7141 109.878 60.4111 109.995 60.1492L106.341 58.5212ZM105.807 61.0605L105.724 76.0994L109.724 76.1213L109.807 61.0825L105.807 61.0605ZM105.724 76.0994C105.719 76.9813 105.881 77.8376 106.223 78.6478L109.909 77.0923C109.788 76.8062 109.722 76.4894 109.724 76.1213L105.724 76.0994ZM106.23 78.664C106.556 79.4163 107.004 80.0933 107.571 80.6848L110.459 77.9174C110.223 77.6711 110.039 77.3941 109.902 77.0762L106.23 78.664ZM107.616 80.7299C108.201 81.3031 108.873 81.7592 109.622 82.0928L111.25 78.4391C110.933 78.2981 110.658 78.1109 110.415 77.8723L107.616 80.7299ZM109.638 82.0999C110.444 82.4507 111.299 82.6223 112.181 82.6271L112.203 78.6272C111.834 78.6251 111.518 78.5559 111.234 78.432L109.638 82.0999ZM112.181 82.6271L113.138 82.6323L113.16 78.6324L112.203 78.6272L112.181 82.6271ZM113.138 82.6323C114.019 82.6372 114.876 82.4751 115.683 82.126L114.095 78.4547C113.832 78.5685 113.528 78.6344 113.16 78.6324L113.138 82.6323ZM115.667 82.1329C116.439 81.8069 117.132 81.351 117.726 80.7631L114.913 77.9192C114.696 78.1342 114.435 78.3111 114.111 78.4478L115.667 82.1329ZM117.749 80.7406C118.322 80.1554 118.778 79.4834 119.111 78.7347L115.458 77.1066C115.317 77.4231 115.13 77.6981 114.891 77.9417L117.749 80.7406ZM119.119 78.7186C119.469 77.9122 119.641 77.0577 119.646 76.1758L115.646 76.1538C115.644 76.5219 115.575 76.838 115.451 77.1227L119.119 78.7186ZM119.646 76.1758L119.728 61.1369L115.728 61.115L115.646 76.1538L119.646 76.1758ZM126.165 82.696L124.165 82.6851L124.154 84.685L126.154 84.696L126.165 82.696ZM126.178 80.2937L126.189 78.2938L124.189 78.2828L124.178 80.2827L126.178 80.2937ZM132.858 80.3304L132.847 82.3304L134.847 82.3413L134.858 80.3414L132.858 80.3304ZM132.985 57.1276L134.985 57.1386L135.001 54.1265L132.219 55.2801L132.985 57.1276ZM126.29 59.9034L124.29 59.8924L124.273 62.9045L127.056 61.7509L126.29 59.9034ZM126.303 57.5011L125.537 55.6536L124.31 56.1622L124.303 57.4901L126.303 57.5011ZM132.998 54.7253L133.009 52.7253L132.605 52.7231L132.232 52.8778L132.998 54.7253ZM135.518 54.7391L137.518 54.7501L137.529 52.7501L135.529 52.7392L135.518 54.7391ZM135.377 80.3442L133.377 80.3332L133.366 82.3332L135.366 82.3442L135.377 80.3442ZM142.057 80.3809L144.057 80.3918L144.068 78.3919L142.068 78.3809L142.057 80.3809ZM142.043 82.7832L142.032 84.7831L144.032 84.7941L144.043 82.7942L142.043 82.7832ZM128.165 82.707L128.178 80.3047L124.178 80.2827L124.165 82.6851L128.165 82.707ZM126.167 82.2937L132.847 82.3304L132.869 78.3304L126.189 78.2938L126.167 82.2937ZM134.858 80.3414L134.985 57.1386L130.985 57.1166L130.858 80.3194L134.858 80.3414ZM132.219 55.2801L125.524 58.0559L127.056 61.7509L133.751 58.9751L132.219 55.2801ZM128.29 59.9144L128.303 57.5121L124.303 57.4901L124.29 59.8924L128.29 59.9144ZM127.069 59.3486L133.764 56.5728L132.232 52.8778L125.537 55.6536L127.069 59.3486ZM132.987 56.7253L135.507 56.7391L135.529 52.7392L133.009 52.7253L132.987 56.7253ZM133.518 54.7282L133.377 80.3332L137.377 80.3552L137.518 54.7501L133.518 54.7282ZM135.366 82.3442L142.046 82.3808L142.068 78.3809L135.388 78.3442L135.366 82.3442ZM140.057 80.3699L140.043 82.7722L144.043 82.7942L144.057 80.3918L140.057 80.3699ZM142.054 80.7832L126.176 80.6961L126.154 84.696L142.032 84.7831L142.054 80.7832ZM146.868 82.8097L144.868 82.7987L144.857 84.7986L146.857 84.8096L146.868 82.8097ZM146.881 80.4073L146.892 78.4074L144.892 78.3964L144.881 80.3964L146.881 80.4073ZM153.56 80.444L153.549 82.444L155.549 82.455L155.56 80.455L153.56 80.444ZM153.688 57.2412L155.688 57.2522L155.704 54.2401L152.922 55.3937L153.688 57.2412ZM146.993 60.017L144.993 60.0061L144.976 63.0182L147.759 61.8645L146.993 60.017ZM147.006 57.6147L146.24 55.7672L145.013 56.2758L145.006 57.6037L147.006 57.6147ZM153.701 54.8389L153.712 52.839L153.308 52.8367L152.935 52.9914L153.701 54.8389ZM156.22 54.8528L158.22 54.8637L158.231 52.8638L156.231 52.8528L156.22 54.8528ZM156.08 80.4578L154.08 80.4469L154.069 82.4468L156.069 82.4578L156.08 80.4578ZM162.759 80.4945L164.759 80.5055L164.77 78.5055L162.77 78.4945L162.759 80.4945ZM162.746 82.8968L162.735 84.8968L164.735 84.9077L164.746 82.9078L162.746 82.8968ZM148.868 82.8206L148.881 80.4183L144.881 80.3964L144.868 82.7987L148.868 82.8206ZM146.87 82.4073L153.549 82.444L153.571 78.444L146.892 78.4074L146.87 82.4073ZM155.56 80.455L155.688 57.2522L151.688 57.2303L151.56 80.433L155.56 80.455ZM152.922 55.3937L146.227 58.1695L147.759 61.8645L154.454 59.0887L152.922 55.3937ZM148.993 60.028L149.006 57.6257L145.006 57.6037L144.993 60.0061L148.993 60.028ZM147.772 59.4622L154.467 56.6864L152.935 52.9914L146.24 55.7672L147.772 59.4622ZM153.69 56.8389L156.209 56.8527L156.231 52.8528L153.712 52.839L153.69 56.8389ZM154.22 54.8418L154.08 80.4469L158.08 80.4688L158.22 54.8637L154.22 54.8418ZM156.069 82.4578L162.748 82.4945L162.77 78.4945L156.091 78.4579L156.069 82.4578ZM160.759 80.4835L160.746 82.8858L164.746 82.9078L164.759 80.5055L160.759 80.4835ZM162.757 80.8968L146.879 80.8097L146.857 84.8096L162.735 84.8968L162.757 80.8968Z" fill="black"/>
</svg>
