<svg width="700" height="619" viewBox="0 0 700 619" fill="none" xmlns="http://www.w3.org/2000/svg">
<g clip-path="url(#clip0)">
<path d="M345.609 15.9143L348.362 11.6605C347.545 9.40562 346.603 7.19861 345.538 5.04995L343.758 6.48752L345.167 4.30954C343.824 1.66573 342.767 0 342.767 0C342.767 0 337.247 8.69905 335.403 17.9094L338.935 23.3681L335.025 20.2098C334.885 21.2827 334.814 22.3633 334.81 23.4452C334.81 34.3533 338.373 43.1961 342.767 43.1961C347.162 43.1961 350.724 34.3533 350.724 23.4452C350.642 19.9748 350.028 16.5374 348.904 13.253L345.609 15.9143Z" fill="#E6E6E6"/>
<path d="M365.092 25.371L370.046 24.3094C371.063 22.1378 371.957 19.9105 372.724 17.6383L370.449 17.3962L372.985 16.8527C373.905 14.0335 374.336 12.1084 374.336 12.1084C374.336 12.1084 364.281 14.3561 356.464 19.5647L355.102 25.9222L354.57 20.924C353.713 21.5842 352.898 22.2977 352.131 23.0601C344.418 30.7733 340.684 39.5452 343.791 42.6526C346.899 45.7601 355.671 42.0264 363.384 34.3133C365.78 31.801 367.776 28.9363 369.304 25.8191L365.092 25.371Z" fill="#E6E6E6"/>
<path d="M366.901 67.5798C355.413 68.3147 342.895 67.5371 329.578 67.5798V37.0903C341.313 38.9171 353.826 38.7295 366.901 37.0903V67.5798Z" fill="#E6E6E6"/>
<path d="M449.092 91.3542L450.887 88.5801C450.355 87.1096 449.74 85.6703 449.046 84.2691L447.885 85.2066L448.804 83.7862C447.928 82.0621 447.239 80.9758 447.239 80.9758C445.027 84.589 443.406 88.5316 442.436 92.6552L444.739 96.2151L442.189 94.1555C442.099 94.8551 442.052 95.5598 442.05 96.2654C442.05 103.379 444.373 109.146 447.239 109.146C450.105 109.146 452.428 103.379 452.428 96.2654C452.374 94.0022 451.974 91.7605 451.241 89.6186L449.092 91.3542Z" fill="#E6E6E6"/>
<path d="M461.798 97.5213L465.029 96.829C465.692 95.4128 466.275 93.9603 466.775 92.4785L465.291 92.3206L466.945 91.9661C467.545 90.1276 467.826 88.8722 467.826 88.8722C463.707 89.8634 459.773 91.5049 456.171 93.7347L455.283 97.8807L454.936 94.6212C454.377 95.0518 453.846 95.517 453.345 96.0143C448.315 101.044 445.88 106.765 447.907 108.791C449.933 110.818 455.654 108.383 460.684 103.353C462.246 101.715 463.548 99.8464 464.544 97.8135L461.798 97.5213Z" fill="#E6E6E6"/>
<path d="M462.978 125.047C455.486 125.527 447.322 125.019 438.638 125.047V105.164C446.712 106.295 454.904 106.295 462.978 105.164V125.047Z" fill="#E6E6E6"/>
<path d="M458.351 183.974C451.736 184.397 444.527 183.949 436.859 183.974V166.417C443.988 167.415 451.222 167.415 458.351 166.417V183.974Z" fill="#E6E6E6"/>
<path d="M492.061 65.4357H210.93C208.699 65.4357 206.891 67.2441 206.891 69.4749C206.891 71.7057 208.699 73.5141 210.93 73.5141H492.061C494.292 73.5141 496.1 71.7057 496.1 69.4749C496.1 67.2441 494.292 65.4357 492.061 65.4357Z" fill="#E6E6E6"/>
<path d="M492.061 122.793H210.93C208.699 122.793 206.891 124.601 206.891 126.832C206.891 129.063 208.699 130.871 210.93 130.871H492.061C494.292 130.871 496.1 129.063 496.1 126.832C496.1 124.601 494.292 122.793 492.061 122.793Z" fill="#E6E6E6"/>
<path d="M492.061 180.15H210.93C208.699 180.15 206.891 181.958 206.891 184.189C206.891 186.42 208.699 188.229 210.93 188.229H492.061C494.292 188.229 496.1 186.42 496.1 184.189C496.1 181.958 494.292 180.15 492.061 180.15Z" fill="#E6E6E6"/>
<path d="M447.63 172.879C456.553 172.879 463.787 165.646 463.787 156.722C463.787 147.799 456.553 140.565 447.63 140.565C438.706 140.565 431.473 147.799 431.473 156.722C431.473 165.646 438.706 172.879 447.63 172.879Z" fill="#E6E6E6"/>
<path d="M447.629 169.648C454.768 169.648 460.555 163.861 460.555 156.722C460.555 149.584 454.768 143.797 447.629 143.797C440.491 143.797 434.704 149.584 434.704 156.722C434.704 163.861 440.491 169.648 447.629 169.648Z" fill="white"/>
<path d="M447.63 159.954C449.414 159.954 450.861 158.507 450.861 156.722C450.861 154.938 449.414 153.491 447.63 153.491C445.845 153.491 444.398 154.938 444.398 156.722C444.398 158.507 445.845 159.954 447.63 159.954Z" fill="#E6E6E6"/>
<path d="M458.939 157.53V155.915H446.014V157.53H458.939Z" fill="#E6E6E6"/>
<path d="M446.822 158.338H448.437V145.413H446.822V158.338Z" fill="#E6E6E6"/>
<path d="M354.208 83.3833H343.518V125.699H354.208V83.3833Z" fill="#E6E6E6"/>
<path d="M354.208 90.0647H343.518V94.9644H354.208V90.0647Z" fill="#CCCCCC"/>
<path d="M354.208 111.445H343.518V116.345H354.208V111.445Z" fill="#CCCCCC"/>
<path d="M337.727 83.3833H327.037V125.699H337.727V83.3833Z" fill="#E6E6E6"/>
<path d="M337.727 90.0647H327.037V94.9644H337.727V90.0647Z" fill="#CCCCCC"/>
<path d="M337.727 111.445H327.037V116.345H337.727V111.445Z" fill="#CCCCCC"/>
<path d="M363.419 83.2084L353.838 87.9515L372.613 125.874L382.194 121.131L363.419 83.2084Z" fill="#E6E6E6"/>
<path d="M366.383 89.1961L356.803 93.9393L358.977 98.3303L368.557 93.5871L366.383 89.1961Z" fill="#CCCCCC"/>
<path d="M375.87 108.357L366.289 113.1L368.463 117.491L378.044 112.748L375.87 108.357Z" fill="#CCCCCC"/>
<path d="M258.882 140.74H248.192V183.056H258.882V140.74Z" fill="#E6E6E6"/>
<path d="M258.882 147.422H248.192V152.322H258.882V147.422Z" fill="#CCCCCC"/>
<path d="M258.882 168.803H248.192V173.702H258.882V168.803Z" fill="#CCCCCC"/>
<path d="M242.401 140.74H231.711V183.056H242.401V140.74Z" fill="#E6E6E6"/>
<path d="M242.401 147.422H231.711V152.322H242.401V147.422Z" fill="#CCCCCC"/>
<path d="M242.401 168.803H231.711V173.702H242.401V168.803Z" fill="#CCCCCC"/>
<path d="M268.093 140.566L258.512 145.309L277.287 183.231L286.868 178.488L268.093 140.566Z" fill="#E6E6E6"/>
<path d="M271.057 146.553L261.477 151.296L263.651 155.687L273.231 150.944L271.057 146.553Z" fill="#CCCCCC"/>
<path d="M280.544 165.714L270.963 170.457L273.137 174.848L282.718 170.105L280.544 165.714Z" fill="#CCCCCC"/>
<path d="M359.055 140.74H348.365V183.056H359.055V140.74Z" fill="#E6E6E6"/>
<path d="M359.055 147.422H348.365V152.322H359.055V147.422Z" fill="#CCCCCC"/>
<path d="M359.055 168.803H348.365V173.702H359.055V168.803Z" fill="#CCCCCC"/>
<path d="M342.574 140.74H331.884V183.056H342.574V140.74Z" fill="#E6E6E6"/>
<path d="M342.574 147.422H331.884V152.322H342.574V147.422Z" fill="#CCCCCC"/>
<path d="M342.574 168.803H331.884V173.702H342.574V168.803Z" fill="#CCCCCC"/>
<path d="M368.266 140.566L358.685 145.309L377.461 183.231L387.041 178.488L368.266 140.566Z" fill="#E6E6E6"/>
<path d="M371.23 146.553L361.65 151.296L363.824 155.688L373.404 150.944L371.23 146.553Z" fill="#CCCCCC"/>
<path d="M380.717 165.714L371.136 170.457L373.31 174.848L382.891 170.105L380.717 165.714Z" fill="#CCCCCC"/>
<path d="M473.481 25.8991H430.993V68.3871H473.481V25.8991Z" fill="#E6E6E6"/>
<path d="M464.983 34.3967H439.49V59.8895H464.983V34.3967Z" fill="#CCCCCC"/>
<path d="M446.869 42.9538L452.275 52.316L457.68 61.6782H446.869H436.059L441.464 52.316L446.869 42.9538Z" fill="#E6E6E6"/>
<path d="M456.262 44.7427L461.668 54.1049L467.073 63.4671H456.262H445.451L450.857 54.1049L456.262 44.7427Z" fill="#E6E6E6"/>
<path d="M460.063 41.9998C461.792 41.9998 463.194 40.5982 463.194 38.8691C463.194 37.1401 461.792 35.7384 460.063 35.7384C458.334 35.7384 456.933 37.1401 456.933 38.8691C456.933 40.5982 458.334 41.9998 460.063 41.9998Z" fill="#E6E6E6"/>
<path d="M258.593 25.8991H216.105V68.3871H258.593V25.8991Z" fill="#E6E6E6"/>
<path d="M250.096 34.3967H224.603V59.8895H250.096V34.3967Z" fill="#CCCCCC"/>
<path d="M231.982 42.9538L237.387 52.316L242.793 61.6782H231.982H221.172L226.577 52.316L231.982 42.9538Z" fill="#E6E6E6"/>
<path d="M241.375 44.7427L246.78 54.1049L252.185 63.4671H241.375H230.564L235.969 54.1049L241.375 44.7427Z" fill="#E6E6E6"/>
<path d="M245.176 41.9998C246.905 41.9998 248.307 40.5982 248.307 38.8691C248.307 37.1401 246.905 35.7384 245.176 35.7384C243.447 35.7384 242.045 37.1401 242.045 38.8691C242.045 40.5982 243.447 41.9998 245.176 41.9998Z" fill="#E6E6E6"/>
<path d="M130.722 315.626L133.474 311.372C132.658 309.117 131.715 306.91 130.65 304.761L128.87 306.199L130.28 304.021C128.937 301.377 127.88 299.711 127.88 299.711C127.88 299.711 122.36 308.41 120.515 317.621L124.047 323.08L120.137 319.921C119.998 320.994 119.926 322.075 119.923 323.157C119.923 334.065 123.485 342.908 127.88 342.908C132.274 342.908 135.837 334.065 135.837 323.157C135.755 319.686 135.141 316.249 134.017 312.964L130.722 315.626Z" fill="#1C5B36"/>
<path d="M150.204 325.083L155.159 324.021C156.176 321.849 157.07 319.622 157.836 317.35L155.561 317.108L158.098 316.564C159.018 313.745 159.448 311.82 159.448 311.82C159.448 311.82 149.394 314.068 141.577 319.276L140.214 325.634L139.683 320.636C138.826 321.296 138.011 322.009 137.243 322.772C129.53 330.485 125.796 339.257 128.904 342.364C132.011 345.472 140.783 341.738 148.496 334.025C150.892 331.513 152.889 328.648 154.416 325.531L150.204 325.083Z" fill="#1C5B36"/>
<path d="M152.014 367.291C140.526 368.026 128.008 367.249 114.691 367.291V336.802C126.425 338.629 138.939 338.441 152.014 336.802V367.291Z" fill="#3F3D56"/>
<path d="M620.568 366.861H477.461C474.147 366.861 471.461 369.547 471.461 372.861V562.015C471.461 565.329 474.147 568.015 477.461 568.015H620.568C623.882 568.015 626.568 565.329 626.568 562.015V372.861C626.568 369.547 623.882 366.861 620.568 366.861Z" fill="#E6E6E6"/>
<path d="M155.593 565.976V383.402C155.593 381.171 153.784 379.363 151.553 379.363C149.323 379.363 147.514 381.171 147.514 383.402V565.976C147.514 568.207 149.323 570.015 151.553 570.015C153.784 570.015 155.593 568.207 155.593 565.976Z" fill="#E6E6E6"/>
<path d="M620.568 363.128H80C76.6863 363.128 74 365.814 74 369.128V373.285C74 376.598 76.6863 379.285 80 379.285H620.568C623.882 379.285 626.568 376.598 626.568 373.285V369.128C626.568 365.814 623.882 363.128 620.568 363.128Z" fill="#E6E6E6"/>
<path d="M159.632 379.285H143.475V395.441H159.632V379.285Z" fill="#E6E6E6"/>
<path d="M563.107 378.574C562.006 378.574 561.046 379.324 560.779 380.392C560.511 381.461 559.551 382.21 558.45 382.21H539.646C538.478 382.21 537.433 381.486 537.023 380.392C536.613 379.299 535.568 378.574 534.4 378.574H484.731C481.418 378.574 478.731 381.261 478.731 384.574V409.736C478.731 413.05 481.418 415.736 484.731 415.736H613.297C616.611 415.736 619.297 413.05 619.297 409.736V384.574C619.297 381.261 616.611 378.574 613.297 378.574H563.107Z" fill="#3F3D56"/>
<path d="M563.107 425.43C562.006 425.43 561.046 426.179 560.779 427.247C560.511 428.316 559.552 429.065 558.45 429.065H539.645C538.478 429.065 537.433 428.341 537.023 427.247C536.613 426.154 535.568 425.43 534.4 425.43H484.731C481.418 425.43 478.731 428.116 478.731 431.43V456.591C478.731 459.904 481.418 462.591 484.731 462.591H613.297C616.611 462.591 619.297 459.904 619.297 456.591V431.43C619.297 428.116 616.611 425.43 613.297 425.43H563.107Z" fill="#3F3D56"/>
<path d="M563.107 472.285C562.006 472.285 561.046 473.035 560.779 474.103C560.511 475.171 559.552 475.92 558.45 475.92H539.645C538.478 475.92 537.433 475.196 537.023 474.103C536.613 473.01 535.568 472.285 534.4 472.285H484.731C481.418 472.285 478.731 474.972 478.731 478.285V503.446C478.731 506.76 481.418 509.446 484.731 509.446H613.297C616.611 509.446 619.297 506.76 619.297 503.446V478.285C619.297 474.972 616.611 472.285 613.297 472.285H563.107Z" fill="#3F3D56"/>
<path d="M563.107 519.141C562.006 519.141 561.046 519.89 560.779 520.958C560.511 522.026 559.552 522.776 558.45 522.776H539.645C538.478 522.776 537.433 522.051 537.023 520.958C536.613 519.865 535.568 519.141 534.4 519.141H484.731C481.418 519.141 478.731 521.827 478.731 525.141V550.301C478.731 553.615 481.418 556.301 484.731 556.301H613.297C616.611 556.301 619.297 553.615 619.297 550.301V525.141C619.297 521.827 616.611 519.141 613.297 519.141H563.107Z" fill="#3F3D56"/>
<path d="M373.712 360.704H326.049L327.664 339.7H372.096L373.712 360.704Z" fill="#E6E6E6"/>
<path d="M376.943 358.28H323.625V363.128H376.943V358.28Z" fill="#E6E6E6"/>
<path d="M441.167 204.385H258.997C257.712 204.385 256.479 204.896 255.57 205.805C254.661 206.714 254.15 207.947 254.15 209.233V320.312H446.014V209.233C446.014 207.947 445.503 206.714 444.594 205.805C443.685 204.896 442.452 204.385 441.167 204.385Z" fill="#3F3D56"/>
<path d="M254.15 320.312V338.488C254.15 339.774 254.661 341.007 255.57 341.916C256.479 342.825 257.712 343.335 258.997 343.335H441.167C442.452 343.335 443.685 342.825 444.594 341.916C445.503 341.007 446.014 339.774 446.014 338.488V320.312H254.15Z" fill="#E6E6E6"/>
<path d="M436.724 214.484H263.844V311.425H436.724V214.484Z" fill="white"/>
<path d="M350.284 336.469C352.961 336.469 355.131 334.298 355.131 331.621C355.131 328.945 352.961 326.774 350.284 326.774C347.607 326.774 345.437 328.945 345.437 331.621C345.437 334.298 347.607 336.469 350.284 336.469Z" fill="#3F3D56"/>
<path d="M366.52 241.848H319.907V244.524H366.52V241.848Z" fill="#3F3D56"/>
<path d="M391.888 251.608H319.907V254.284H391.888V251.608Z" fill="#1C5B36"/>
<path d="M378.57 260.804H319.907V263.48H378.57V260.804Z" fill="#1C5B36"/>
<path d="M354.153 269.965H319.907V272.641H354.153V269.965Z" fill="#3F3D56"/>
<path d="M371.594 279.126H319.907V281.802H371.594V279.126Z" fill="#3F3D56"/>
<path d="M304.369 240.896H298.661V246.604H304.369V240.896Z" fill="#3F3D56"/>
<path d="M304.369 250.092H298.661V255.8H304.369V250.092Z" fill="#1C5B36"/>
<path d="M304.369 259.288H298.661V264.996H304.369V259.288Z" fill="#1C5B36"/>
<path d="M304.369 268.484H298.661V274.192H304.369V268.484Z" fill="#3F3D56"/>
<path d="M304.369 277.68H298.661V283.388H304.369V277.68Z" fill="#3F3D56"/>
<path d="M428.714 236.782H404.253C402.584 227.132 402.584 217.267 404.253 207.617H428.714C425.958 217.143 425.958 227.256 428.714 236.782Z" fill="#1C5B36"/>
<path d="M250.727 295.237L240.664 292.784C236.824 292.789 233.031 291.94 229.559 290.299C226.087 288.657 223.024 286.265 220.59 283.294C218.157 280.324 216.414 276.849 215.488 273.122C214.562 269.395 214.476 265.509 215.237 261.745C215.226 252.764 218.783 244.146 225.125 237.788C231.468 231.429 240.077 227.85 249.058 227.839H249.058C258.039 227.828 266.657 231.385 273.015 237.727C279.374 244.07 282.952 252.679 282.964 261.66V261.66C288.67 281.516 270.799 300.13 250.727 295.237Z" fill="#2F2E41"/>
<path d="M261.72 298.777C275.462 298.777 286.602 287.637 286.602 273.895C286.602 260.153 275.462 249.013 261.72 249.013C247.978 249.013 236.838 260.153 236.838 273.895C236.838 287.637 247.978 298.777 261.72 298.777Z" fill="#FFB8B8"/>
<path d="M245.492 286.877C245.492 286.877 237.92 312.841 233.592 315.005C229.265 317.168 268.211 320.414 268.211 320.414C268.211 320.414 267.129 295.532 269.293 293.368C271.456 291.204 245.492 286.877 245.492 286.877Z" fill="#FFB8B8"/>
<path d="M284.438 446.988C284.438 446.988 333.12 442.66 339.611 458.888C346.102 475.115 335.284 571.398 335.284 571.398H314.729V492.424C314.729 492.424 227.087 467.512 227.087 458.857C227.087 450.203 284.438 446.988 284.438 446.988Z" fill="#2F2E41"/>
<path d="M332.039 567.071L342.857 571.398C342.857 571.398 355.839 570.316 350.43 580.052C348.881 582.879 346.715 585.319 344.093 587.192C341.471 589.065 338.46 590.323 335.284 590.871C335.284 590.871 314.729 598.444 313.648 590.871C312.566 583.298 319.057 568.152 319.057 568.152L332.039 567.071Z" fill="#2F2E41"/>
<path d="M257.392 446.988C257.392 446.988 306.075 442.66 312.566 458.888C319.057 475.115 308.238 571.398 308.238 571.398H287.684V492.424C287.684 492.424 225.471 478.014 225.471 469.36C225.471 465.294 221.232 444.63 228.703 440.277C237.134 435.364 257.392 446.988 257.392 446.988Z" fill="#2F2E41"/>
<path d="M304.993 567.071L315.811 571.398C315.811 571.398 328.793 570.316 323.384 580.052C321.836 582.879 319.67 585.319 317.047 587.192C314.425 589.065 311.414 590.323 308.238 590.871C308.238 590.871 287.684 598.444 286.602 590.871C285.52 583.298 292.011 568.152 292.011 568.152L304.993 567.071Z" fill="#2F2E41"/>
<path d="M234.674 311.759L267.185 315.293C272.203 315.838 276.92 317.955 280.662 321.341C284.405 324.728 286.982 329.21 288.025 334.148L300.666 393.978C300.666 393.978 304.993 453.479 296.338 456.724C287.684 459.969 275.783 443.742 259.556 445.906C243.329 448.069 222.233 452.938 222.233 452.938C222.233 452.938 218.883 346.434 218.447 337.723C217.574 320.308 234.674 311.759 234.674 311.759Z" fill="#575A89"/>
<path d="M311.685 450.079L325.032 457.939C325.032 457.939 348.977 454.503 348.229 462.92C347.482 471.336 321.344 469.71 321.344 469.71L305.259 459.798L311.685 450.079Z" fill="#FFB8B8"/>
<path d="M213.424 253.658C222.3 253.658 229.497 246.462 229.497 237.585C229.497 228.709 222.3 221.513 213.424 221.513C204.547 221.513 197.351 228.709 197.351 237.585C197.351 246.462 204.547 253.658 213.424 253.658Z" fill="#2F2E41"/>
<path d="M228.254 228.945C228.252 226.567 227.722 224.22 226.703 222.072C225.684 219.924 224.201 218.029 222.361 216.523C220.521 215.018 218.369 213.94 216.062 213.366C213.755 212.793 211.349 212.739 209.018 213.208C211.075 212.237 213.314 211.712 215.588 211.671C217.862 211.629 220.119 212.071 222.21 212.967C224.301 213.863 226.177 215.193 227.716 216.868C229.254 218.544 230.419 220.527 231.134 222.686C231.848 224.845 232.096 227.132 231.861 229.394C231.626 231.657 230.913 233.843 229.77 235.81C228.626 237.776 227.078 239.477 225.228 240.8C223.378 242.124 221.268 243.039 219.038 243.486C221.796 242.187 224.127 240.129 225.759 237.555C227.391 234.98 228.256 231.993 228.254 228.945Z" fill="#2F2E41"/>
<path d="M242.042 238.06L263.711 234.071L280.375 244.515C284.472 247.083 287.747 250.771 289.81 255.144C291.874 259.516 292.641 264.389 292.019 269.184L275.33 264.954L271.592 255.583L267.141 262.878L243.87 292.827L230.803 284.506L219.155 266.252L242.042 238.06Z" fill="#2F2E41"/>
<path d="M259.886 320.962L270.705 315.552C270.705 315.552 293.423 318.798 297.75 333.944C302.078 349.089 321.551 454.027 321.551 454.027L303.16 462.681L277.196 398.853L259.886 320.962Z" fill="#575A89"/>
<path opacity="0.2" d="M269.096 363.532L279.923 405.559L299.123 452.76L298.458 454.394L275.558 406.348L269.096 363.532Z" fill="black"/>
<path d="M188.978 593.4C188.607 594.455 187.455 595.011 186.398 594.647C185.342 594.283 184.777 593.135 185.133 592.076L220.576 486.8C221.074 485.323 222.679 484.534 224.152 485.041C225.626 485.549 226.404 487.159 225.886 488.629L188.978 593.4Z" fill="#3F3D56"/>
<path d="M329.015 593.4C329.386 594.454 330.539 595.011 331.596 594.647C332.652 594.283 333.217 593.135 332.861 592.076L297.417 486.8C296.92 485.323 295.315 484.534 293.842 485.041C292.368 485.549 291.59 487.159 292.108 488.629L329.015 593.4Z" fill="#3F3D56"/>
<path d="M251.52 615.977C251.523 617.094 252.428 617.999 253.545 618.003C254.662 618.007 255.573 617.108 255.584 615.991L256.792 492.402C256.807 490.844 255.551 489.571 253.992 489.565C252.433 489.56 251.168 490.824 251.172 492.383L251.52 615.977Z" fill="#3F3D56"/>
<path d="M178.959 419.563L190.038 464.343C191.59 470.614 194.82 476.344 199.383 480.917C203.945 485.491 209.667 488.735 215.934 490.302H215.935C246.834 498.027 279.185 497.818 309.982 489.696L326.525 485.333C336.136 482.798 343.364 474.543 344.048 464.626C344.326 461.12 343.691 457.602 342.205 454.414C342.141 454.277 342.076 454.141 342.011 454.006C339.853 449.574 336.525 445.817 332.386 443.141C328.247 440.465 323.456 438.972 318.529 438.823L301.005 438.257L237.185 409.983C237.185 409.983 215.236 398.834 197.192 397.586C185.275 396.762 176.09 407.967 178.959 419.563Z" fill="#C8C8C8"/>
<path d="M561.999 278.707H510.987C507.673 278.707 504.987 281.394 504.987 284.707V358.339C504.987 361.653 507.673 364.339 510.987 364.339H561.999C565.313 364.339 567.999 361.653 567.999 358.339V284.707C567.999 281.394 565.313 278.707 561.999 278.707Z" fill="#E6E6E6"/>
<path d="M554.728 288.588H518.257C514.944 288.588 512.257 291.274 512.257 294.588V348.459C512.257 351.772 514.944 354.459 518.257 354.459H554.728C558.042 354.459 560.728 351.772 560.728 348.459V294.588C560.728 291.274 558.042 288.588 554.728 288.588Z" fill="white"/>
<path d="M554.819 305.826H531.334V308.502H554.819V305.826Z" fill="#3F3D56"/>
<path d="M523.875 304.344H518.167V310.052H523.875V304.344Z" fill="#3F3D56"/>
<path d="M554.819 317.136H531.334V319.811H554.819V317.136Z" fill="#3F3D56"/>
<path d="M523.875 315.654H518.167V321.362H523.875V315.654Z" fill="#3F3D56"/>
<path d="M554.819 328.445H531.334V331.121H554.819V328.445Z" fill="#3F3D56"/>
<path d="M523.875 326.964H518.167V332.672H523.875V326.964Z" fill="#3F3D56"/>
<path d="M538.916 283.555C538.916 282.216 537.831 281.131 536.493 281.131C535.154 281.131 534.069 282.216 534.069 283.555C534.069 284.893 535.154 285.978 536.493 285.978C537.831 285.978 538.916 284.893 538.916 283.555Z" fill="#3F3D56"/>
</g>
<defs>
<clipPath id="clip0">
<rect width="700" height="618.01" fill="white"/>
</clipPath>
</defs>
</svg>
