<svg width="246" height="126" viewBox="0 0 246 126" fill="none" xmlns="http://www.w3.org/2000/svg">
<path d="M104.964 81.5716L91.0999 80.0975C87.7703 79.7416 84.4953 80.8091 82.1483 82.995L72.1049 92.3483C56.6578 85.0283 43.9945 73.2858 36.1345 58.8491L46.2324 49.4449C48.5795 47.2591 49.7258 44.2091 49.3437 41.1083L47.7608 28.2983C47.1058 23.1641 42.4662 19.3008 36.8987 19.3008H27.4558C21.2878 19.3008 16.157 24.0791 16.5391 29.8233C19.432 73.235 56.7124 107.903 103.272 110.597C109.44 110.953 114.571 106.175 114.571 100.431V91.6366C114.625 86.5025 110.477 82.1816 104.964 81.5716Z" fill="#334167"/>
<path d="M202.792 4.91675H162.125C155.11 4.91675 149.417 10.4234 149.417 17.2084V100.792C149.417 107.577 155.11 113.083 162.125 113.083H202.792C209.807 113.083 215.5 107.577 215.5 100.792V17.2084C215.5 10.4234 209.807 4.91675 202.792 4.91675ZM182.458 108.167C178.239 108.167 174.833 104.873 174.833 100.792C174.833 96.7109 178.239 93.4167 182.458 93.4167C186.677 93.4167 190.083 96.7109 190.083 100.792C190.083 104.873 186.677 108.167 182.458 108.167ZM205.333 88.5001H159.583V19.6667H205.333V88.5001Z" fill="black"/>
</svg>
