<svg width="64" height="34" viewBox="0 0 64 34" fill="none" xmlns="http://www.w3.org/2000/svg">
<path d="M38.252 14.4929H39.7335C39.6887 12.8622 38.247 11.679 36.1788 11.679C34.1355 11.679 32.5694 12.8473 32.5694 14.6023C32.5694 16.0192 33.5836 16.8494 35.2193 17.2919L36.4224 17.62C37.5112 17.9084 38.3514 18.2663 38.3514 19.1712C38.3514 20.1655 37.4018 20.8217 36.0943 20.8217C34.911 20.8217 33.9267 20.2947 33.8372 19.1861H32.296C32.3954 21.0305 33.8223 22.169 36.1042 22.169C38.4956 22.169 39.8727 20.9112 39.8727 19.1861C39.8727 17.3516 38.237 16.6406 36.9444 16.3224L35.9501 16.0639C35.1547 15.8601 34.0957 15.4872 34.1007 14.5128C34.1007 13.6477 34.8912 13.0064 36.144 13.0064C37.3123 13.0064 38.1426 13.5533 38.252 14.4929ZM43.8114 22.169C45.0742 22.169 45.7852 21.5277 46.0685 20.956H46.1282V22H47.5799V16.929C47.5799 14.7067 45.8299 14.2642 44.6168 14.2642C43.2347 14.2642 41.962 14.821 41.4648 16.2131L42.8619 16.5312C43.0806 15.9893 43.6374 15.4673 44.6367 15.4673C45.5962 15.4673 46.0884 15.9695 46.0884 16.8345V16.8693C46.0884 17.4112 45.5316 17.4013 44.1594 17.5604C42.7127 17.7294 41.2312 18.1072 41.2312 19.8423C41.2312 21.3438 42.3597 22.169 43.8114 22.169ZM44.1346 20.9759C43.2944 20.9759 42.6879 20.598 42.6879 19.8622C42.6879 19.0668 43.3938 18.7834 44.2539 18.669C44.7362 18.6044 45.8796 18.4751 46.0934 18.2614V19.2457C46.0934 20.1506 45.3725 20.9759 44.1346 20.9759ZM49.5598 22H51.0463V14.3636H49.5598V22ZM50.3105 13.1854C50.8226 13.1854 51.2502 12.7876 51.2502 12.3004C51.2502 11.8132 50.8226 11.4105 50.3105 11.4105C49.7935 11.4105 49.3709 11.8132 49.3709 12.3004C49.3709 12.7876 49.7935 13.1854 50.3105 13.1854ZM53.0462 22H54.5327V17.3366C54.5327 16.3374 55.3033 15.6165 56.3572 15.6165C56.6655 15.6165 57.0135 15.6712 57.1328 15.706V14.2841C56.9837 14.2642 56.6903 14.2493 56.5014 14.2493C55.6065 14.2493 54.8409 14.7564 54.5625 15.5767H54.483V14.3636H53.0462V22Z" fill="#666666"/>
<path d="M20 24H19V10C19 9.45 18.55 9 18 9H14C14 8.45 13.55 8 13 8H6C5.45 8 5 8.45 5 9V24H4C3.45 24 3 24.45 3 25C3 25.55 3.45 26 4 26H13C13.55 26 14 25.55 14 25V11H17V25C17 25.55 17.45 26 18 26H20C20.55 26 21 25.55 21 25C21 24.45 20.55 24 20 24ZM11 18C10.45 18 10 17.55 10 17C10 16.45 10.45 16 11 16C11.55 16 12 16.45 12 17C12 17.55 11.55 18 11 18Z" fill="#666666"/>
</svg>
