<svg width="979" height="593" viewBox="0 0 979 593" fill="none" xmlns="http://www.w3.org/2000/svg">
<g filter="url(#filter0_d)">
<rect x="30" y="29" width="919" height="533" rx="10" fill="white"/>
</g>
<path d="M70.3962 84H72.3714V79.3977H75.056C78.0922 79.3977 79.5944 77.5632 79.5944 75.147C79.5944 72.7372 78.105 70.9091 75.0624 70.9091H70.3962V84ZM72.3714 77.723V72.603H74.8515C76.8074 72.603 77.6064 73.6641 77.6064 75.147C77.6064 76.63 76.8074 77.723 74.877 77.723H72.3714ZM81.7565 84H83.6677V74.1818H81.7565V84ZM82.7217 72.6669C83.3801 72.6669 83.9298 72.1555 83.9298 71.5291C83.9298 70.9027 83.3801 70.3849 82.7217 70.3849C82.0569 70.3849 81.5136 70.9027 81.5136 71.5291C81.5136 72.1555 82.0569 72.6669 82.7217 72.6669ZM88.1501 78.1705C88.1501 76.6044 89.1089 75.7095 90.4385 75.7095C91.7361 75.7095 92.5223 76.5597 92.5223 77.9851V84H94.4335V77.755C94.4335 75.326 93.0976 74.054 91.0905 74.054C89.6139 74.054 88.6487 74.7379 88.1949 75.7798H88.0734V74.1818H86.2389V84H88.1501V78.1705ZM99.854 84.2173C101.478 84.2173 102.392 83.3928 102.756 82.6577H102.833V84H104.699V77.4801C104.699 74.6229 102.449 74.054 100.889 74.054C99.1125 74.054 97.4761 74.7699 96.8369 76.5597L98.6331 76.9688C98.9143 76.272 99.6302 75.6009 100.915 75.6009C102.149 75.6009 102.782 76.2464 102.782 77.3587V77.4034C102.782 78.1001 102.066 78.0874 100.301 78.2919C98.4413 78.5092 96.5365 78.995 96.5365 81.2259C96.5365 83.1562 97.9875 84.2173 99.854 84.2173ZM100.269 82.6832C99.1892 82.6832 98.4094 82.1974 98.4094 81.2514C98.4094 80.2287 99.317 79.8643 100.423 79.7173C101.043 79.6342 102.513 79.468 102.788 79.1932V80.4588C102.788 81.6222 101.861 82.6832 100.269 82.6832ZM111.361 87.8864C113.861 87.8864 115.791 86.7422 115.791 84.2173V74.1818H113.918V75.7734H113.777C113.439 75.1662 112.761 74.054 110.933 74.054C108.562 74.054 106.816 75.9268 106.816 79.0526C106.816 82.1847 108.6 83.853 110.92 83.853C112.723 83.853 113.419 82.8366 113.765 82.2102H113.886V84.1406C113.886 85.6811 112.831 86.3459 111.38 86.3459C109.789 86.3459 109.169 85.5469 108.83 84.9844L107.187 85.6619C107.705 86.8636 109.015 87.8864 111.361 87.8864ZM111.342 82.2678C109.635 82.2678 108.747 80.9574 108.747 79.027C108.747 77.1413 109.616 75.6776 111.342 75.6776C113.01 75.6776 113.905 77.0391 113.905 79.027C113.905 81.0533 112.991 82.2678 111.342 82.2678ZM122.586 84.1982C124.727 84.1982 126.242 83.1435 126.677 81.5455L124.868 81.2195C124.522 82.1463 123.691 82.6193 122.605 82.6193C120.968 82.6193 119.869 81.5582 119.818 79.6662H126.798V78.9886C126.798 75.4411 124.676 74.054 122.451 74.054C119.716 74.054 117.913 76.1378 117.913 79.1548C117.913 82.2038 119.69 84.1982 122.586 84.1982ZM119.824 78.2344C119.901 76.8409 120.911 75.6328 122.464 75.6328C123.947 75.6328 124.919 76.7322 124.925 78.2344H119.824ZM130.83 78.1705C130.83 76.6044 131.789 75.7095 133.118 75.7095C134.416 75.7095 135.202 76.5597 135.202 77.9851V84H137.113V77.755C137.113 75.326 135.777 74.054 133.77 74.054C132.294 74.054 131.328 74.7379 130.875 75.7798H130.753V74.1818H128.919V84H130.83V78.1705ZM147.034 76.5788C146.637 75.0511 145.442 74.054 143.32 74.054C141.102 74.054 139.529 75.2237 139.529 76.9624C139.529 78.3558 140.373 79.2827 142.214 79.6918L143.876 80.0561C144.822 80.267 145.263 80.6889 145.263 81.3026C145.263 82.0632 144.451 82.6577 143.198 82.6577C142.054 82.6577 141.319 82.1655 141.089 81.2003L139.242 81.4815C139.561 83.2202 141.006 84.1982 143.211 84.1982C145.583 84.1982 147.225 82.9389 147.225 81.1619C147.225 79.7749 146.343 78.9183 144.541 78.5028L142.981 78.1449C141.901 77.8892 141.434 77.5249 141.441 76.8601C141.434 76.1058 142.252 75.5689 143.339 75.5689C144.528 75.5689 145.078 76.2273 145.301 76.8857L147.034 76.5788Z" fill="#1C5B36"/>
<line x1="390.5" y1="106.992" x2="392.603" y2="516.992" stroke="black" stroke-width="3"/>
<rect x="127" y="157" width="229" height="311" fill="#F1F1F1"/>
<path d="M257.329 182.781H259.634V177.412H262.766C266.308 177.412 268.06 175.272 268.06 172.453C268.06 169.641 266.323 167.508 262.773 167.508H257.329V182.781ZM259.634 175.458V169.485H262.527C264.809 169.485 265.741 170.723 265.741 172.453C265.741 174.183 264.809 175.458 262.557 175.458H259.634ZM273.066 167.508H270.762V182.781H273.066V167.508ZM288.749 167.508H286.467V178.724H286.325L278.555 167.508H276.422V182.781H278.726V171.58H278.868L286.631 182.781H288.749V167.508ZM300.83 182.781H291.128V184.675H300.83V182.781ZM302.487 182.781H311.712V180.797H304.792V167.508H302.487V182.781ZM314.609 182.781H324.662V180.805H317.786V180.693L320.821 177.516C323.618 174.69 324.416 173.34 324.416 171.632C324.416 169.179 322.417 167.3 319.539 167.3C316.683 167.3 314.595 169.149 314.595 171.938H316.794C316.787 170.297 317.846 169.224 319.494 169.224C321.045 169.224 322.223 170.178 322.223 171.699C322.223 173.049 321.418 174.019 319.777 175.756L314.609 181.111V182.781ZM328.452 182.781H338.505V180.805H331.629V180.693L334.664 177.516C337.461 174.69 338.259 173.34 338.259 171.632C338.259 169.179 336.26 167.3 333.382 167.3C330.525 167.3 328.437 169.149 328.437 171.938H330.637C330.63 170.297 331.689 169.224 333.337 169.224C334.888 169.224 336.066 170.178 336.066 171.699C336.066 173.049 335.261 174.019 333.62 175.756L328.452 181.111V182.781ZM257.329 212.781H259.634V207.412H262.766C266.308 207.412 268.06 205.272 268.06 202.453C268.06 199.641 266.323 197.508 262.773 197.508H257.329V212.781ZM259.634 205.458V199.485H262.527C264.809 199.485 265.741 200.723 265.741 202.453C265.741 204.183 264.809 205.458 262.557 205.458H259.634ZM273.066 197.508H270.762V212.781H273.066V197.508ZM288.749 197.508H286.467V208.724H286.325L278.555 197.508H276.422V212.781H278.726V201.58H278.868L286.631 212.781H288.749V197.508ZM300.83 212.781H291.128V214.675H300.83V212.781ZM302.487 212.781H311.712V210.797H304.792V197.508H302.487V212.781ZM314.609 212.781H324.662V210.805H317.786V210.693L320.821 207.516C323.618 204.69 324.416 203.34 324.416 201.632C324.416 199.179 322.417 197.3 319.539 197.3C316.683 197.3 314.595 199.149 314.595 201.938H316.794C316.787 200.297 317.846 199.224 319.494 199.224C321.045 199.224 322.223 200.178 322.223 201.699C322.223 203.049 321.418 204.019 319.777 205.756L314.609 211.111V212.781ZM335.768 197.508H333.523L329.713 199.999V202.207L333.367 199.82H333.456V212.781H335.768V197.508ZM253.833 242.781H256.137V237.412H259.269C262.811 237.412 264.564 235.272 264.564 232.453C264.564 229.641 262.826 227.508 259.277 227.508H253.833V242.781ZM256.137 235.458V229.485H259.03C261.312 229.485 262.245 230.723 262.245 232.453C262.245 234.183 261.312 235.458 259.06 235.458H256.137ZM269.57 227.508H267.265V242.781H269.57V227.508ZM285.253 227.508H282.971V238.724H282.829L275.058 227.508H272.925V242.781H275.23V231.58H275.371L283.135 242.781H285.253V227.508ZM297.333 242.781H287.631V244.675H297.333V242.781ZM298.991 227.508V242.781H301.183V231.722H301.325L305.829 242.759H307.649L312.153 231.729H312.295V242.781H314.487V227.508H311.691L306.829 239.381H306.65L301.787 227.508H298.991ZM318.106 242.781H328.159V240.805H321.283V240.693L324.318 237.516C327.115 234.69 327.913 233.34 327.913 231.632C327.913 229.179 325.914 227.3 323.035 227.3C320.179 227.3 318.091 229.149 318.091 231.938H320.291C320.284 230.297 321.343 229.224 322.991 229.224C324.542 229.224 325.72 230.178 325.72 231.699C325.72 233.049 324.915 234.019 323.274 235.756L318.106 241.111V242.781ZM331.949 242.781H342.001V240.805H335.126V240.693L338.161 237.516C340.957 234.69 341.755 233.34 341.755 231.632C341.755 229.179 339.757 227.3 336.878 227.3C334.022 227.3 331.934 229.149 331.934 231.938H334.134C334.126 230.297 335.185 229.224 336.833 229.224C338.385 229.224 339.563 230.178 339.563 231.699C339.563 233.049 338.757 234.019 337.117 235.756L331.949 241.111V242.781ZM256.735 272.781H259.039V267.412H262.171C265.713 267.412 267.466 265.272 267.466 262.453C267.466 259.641 265.728 257.508 262.178 257.508H256.735V272.781ZM259.039 265.458V259.485H261.932C264.214 259.485 265.146 260.723 265.146 262.453C265.146 264.183 264.214 265.458 261.962 265.458H259.039ZM272.472 257.508H270.167V272.781H272.472V257.508ZM288.154 257.508H285.872V268.724H285.731L277.96 257.508H275.827V272.781H278.132V261.58H278.273L286.036 272.781H288.154V257.508ZM300.235 272.781H290.533V274.675H300.235V272.781ZM301.566 257.508H299.076L304.572 272.781H307.234L312.73 257.508H310.239L305.989 269.947H305.817L301.566 257.508ZM322.52 257.508H320.275L316.464 259.999V262.207L320.119 259.82H320.208V272.781H322.52V257.508ZM329.047 272.781H339.1V270.805H332.224V270.693L335.259 267.516C338.055 264.69 338.853 263.34 338.853 261.632C338.853 259.179 336.855 257.3 333.976 257.3C331.12 257.3 329.032 259.149 329.032 261.938H331.232C331.225 260.297 332.283 259.224 333.932 259.224C335.483 259.224 336.661 260.178 336.661 261.699C336.661 263.049 335.856 264.019 334.215 265.756L329.047 271.111V272.781ZM252.992 302.781H255.296V297.412H258.428C261.971 297.412 263.723 295.272 263.723 292.453C263.723 289.641 261.985 287.508 258.436 287.508H252.992V302.781ZM255.296 295.458V289.485H258.19C260.472 289.485 261.404 290.723 261.404 292.453C261.404 294.183 260.472 295.458 258.22 295.458H255.296ZM268.729 287.508H266.424V302.781H268.729V287.508ZM284.412 287.508H282.13V298.724H281.988L274.217 287.508H272.085V302.781H274.389V291.58H274.531L282.294 302.781H284.412V287.508ZM296.493 302.781H286.791V304.675H296.493V302.781ZM301.14 302.781H303.467L306.681 291.341H306.801L310.015 302.781H312.334L316.577 287.508H314.146L311.178 299.343H311.036L307.942 287.508H305.54L302.446 299.336H302.304L299.328 287.508H296.905L301.14 302.781ZM326.263 287.508H324.018L320.207 289.999V292.207L323.861 289.82H323.951V302.781H326.263V287.508ZM332.79 302.781H342.842V300.805H335.966V300.693L339.002 297.516C341.798 294.69 342.596 293.34 342.596 291.632C342.596 289.179 340.598 287.3 337.719 287.3C334.863 287.3 332.775 289.149 332.775 291.938H334.975C334.967 290.297 336.026 289.224 337.674 289.224C339.225 289.224 340.404 290.178 340.404 291.699C340.404 293.049 339.598 294.019 337.958 295.756L332.79 301.111V302.781ZM255.935 332.781H258.239V327.412H261.371C264.913 327.412 266.666 325.272 266.666 322.453C266.666 319.641 264.928 317.508 261.379 317.508H255.935V332.781ZM258.239 325.458V319.485H261.133C263.415 319.485 264.347 320.723 264.347 322.453C264.347 324.183 263.415 325.458 261.162 325.458H258.239ZM271.672 317.508H269.367V332.781H271.672V317.508ZM287.355 317.508H285.073V328.724H284.931L277.16 317.508H275.028V332.781H277.332V321.58H277.474L285.237 332.781H287.355V317.508ZM299.436 332.781H289.733V334.675H299.436V332.781ZM310.074 317.508V327.367C310.074 329.44 308.642 330.932 306.315 330.932C303.996 330.932 302.556 329.44 302.556 327.367V317.508H300.252V327.553C300.252 330.76 302.653 333.035 306.315 333.035C309.977 333.035 312.385 330.76 312.385 327.553V317.508H310.074ZM323.32 317.508H321.075L317.264 319.999V322.207L320.918 319.82H321.008V332.781H323.32V317.508ZM329.847 332.781H339.899V330.805H333.024V330.693L336.059 327.516C338.855 324.69 339.653 323.34 339.653 321.632C339.653 319.179 337.655 317.3 334.776 317.3C331.92 317.3 329.832 319.149 329.832 321.938H332.032C332.024 320.297 333.083 319.224 334.731 319.224C336.282 319.224 337.461 320.178 337.461 321.699C337.461 323.049 336.655 324.019 335.015 325.756L329.847 331.111V332.781ZM255.935 362.781H258.239V357.412H261.371C264.913 357.412 266.666 355.272 266.666 352.453C266.666 349.641 264.928 347.508 261.379 347.508H255.935V362.781ZM258.239 355.458V349.485H261.133C263.415 349.485 264.347 350.723 264.347 352.453C264.347 354.183 263.415 355.458 261.162 355.458H258.239ZM271.672 347.508H269.367V362.781H271.672V347.508ZM287.355 347.508H285.073V358.724H284.931L277.16 347.508H275.028V362.781H277.332V351.58H277.474L285.237 362.781H287.355V347.508ZM299.436 362.781H289.733V364.675H299.436V362.781ZM310.074 347.508V357.367C310.074 359.44 308.642 360.932 306.315 360.932C303.996 360.932 302.556 359.44 302.556 357.367V347.508H300.252V357.553C300.252 360.76 302.653 363.035 306.315 363.035C309.977 363.035 312.385 360.76 312.385 357.553V347.508H310.074ZM323.32 347.508H321.075L317.264 349.999V352.207L320.918 349.82H321.008V362.781H323.32V347.508ZM337.162 347.508H334.918L331.107 349.999V352.207L334.761 349.82H334.851V362.781H337.162V347.508ZM260.754 392.781H263.058V387.412H266.191C269.733 387.412 271.485 385.272 271.485 382.453C271.485 379.641 269.748 377.508 266.198 377.508H260.754V392.781ZM263.058 385.458V379.485H265.952C268.234 379.485 269.166 380.723 269.166 382.453C269.166 384.183 268.234 385.458 265.982 385.458H263.058ZM276.491 377.508H274.187V392.781H276.491V377.508ZM292.174 377.508H289.892V388.724H289.75L281.98 377.508H279.847V392.781H282.151V381.58H282.293L290.056 392.781H292.174V377.508ZM304.255 392.781H294.553V394.675H304.255V392.781ZM305.912 377.508V392.781H308.105V381.722H308.246L312.751 392.759H314.57L319.075 381.729H319.216V392.781H321.409V377.508H318.612L313.75 389.381H313.571L308.709 377.508H305.912ZM325.027 392.781H335.08V390.805H328.204V390.693L331.239 387.516C334.036 384.69 334.834 383.34 334.834 381.632C334.834 379.179 332.835 377.3 329.957 377.3C327.101 377.3 325.013 379.149 325.013 381.938H327.212C327.205 380.297 328.264 379.224 329.912 379.224C331.463 379.224 332.641 380.178 332.641 381.699C332.641 383.049 331.836 384.019 330.195 385.756L325.027 391.111V392.781ZM260.754 422.781H263.058V417.412H266.191C269.733 417.412 271.485 415.272 271.485 412.453C271.485 409.641 269.748 407.508 266.198 407.508H260.754V422.781ZM263.058 415.458V409.485H265.952C268.234 409.485 269.166 410.723 269.166 412.453C269.166 414.183 268.234 415.458 265.982 415.458H263.058ZM276.491 407.508H274.187V422.781H276.491V407.508ZM292.174 407.508H289.892V418.724H289.75L281.98 407.508H279.847V422.781H282.151V411.58H282.293L290.056 422.781H292.174V407.508ZM304.255 422.781H294.553V424.675H304.255V422.781ZM305.912 407.508V422.781H308.105V411.722H308.246L312.751 422.759H314.57L319.075 411.729H319.216V422.781H321.409V407.508H318.612L313.75 419.381H313.571L308.709 407.508H305.912ZM332.343 407.508H330.098L326.288 409.999V412.207L329.942 409.82H330.031V422.781H332.343V407.508ZM264.251 452.781H266.555V447.412H269.687C273.229 447.412 274.982 445.272 274.982 442.453C274.982 439.641 273.244 437.508 269.695 437.508H264.251V452.781ZM266.555 445.458V439.485H269.448C271.73 439.485 272.663 440.723 272.663 442.453C272.663 444.183 271.73 445.458 269.478 445.458H266.555ZM279.988 437.508H277.683V452.781H279.988V437.508ZM295.67 437.508H293.389V448.724H293.247L285.476 437.508H283.343V452.781H285.648V441.58H285.789L293.553 452.781H295.67V437.508ZM307.751 452.781H298.049V454.675H307.751V452.781ZM309.409 452.781H318.634V450.797H311.713V437.508H309.409V452.781ZM321.531 452.781H331.583V450.805H324.708V450.693L327.743 447.516C330.539 444.69 331.337 443.34 331.337 441.632C331.337 439.179 329.339 437.3 326.46 437.3C323.604 437.3 321.516 439.149 321.516 441.938H323.716C323.708 440.297 324.767 439.224 326.415 439.224C327.967 439.224 329.145 440.178 329.145 441.699C329.145 443.049 328.339 444.019 326.699 445.756L321.531 451.111V452.781Z" fill="#666666"/>
<line x1="127.5" y1="157" x2="127.5" y2="468.18" stroke="black"/>
<line x1="235.5" y1="157" x2="235.5" y2="468.18" stroke="black"/>
<line x1="356.5" y1="157" x2="356.5" y2="468.18" stroke="black"/>
<line x1="127" y1="467.68" x2="356" y2="467.68" stroke="black"/>
<path d="M157.628 167.739H159.851C159.784 165.293 157.621 163.518 154.519 163.518C151.454 163.518 149.105 165.271 149.105 167.903C149.105 170.029 150.626 171.274 153.079 171.938L154.884 172.43C156.517 172.863 157.778 173.4 157.778 174.757C157.778 176.248 156.353 177.233 154.392 177.233C152.617 177.233 151.14 176.442 151.006 174.779H148.694C148.844 177.546 150.984 179.254 154.407 179.254C157.994 179.254 160.06 177.367 160.06 174.779C160.06 172.027 157.606 170.961 155.667 170.484L154.176 170.096C152.982 169.79 151.394 169.231 151.402 167.769C151.402 166.472 152.587 165.51 154.466 165.51C156.219 165.51 157.464 166.33 157.628 167.739ZM165.804 179H168.13L171.344 167.56H171.464L174.678 179H176.997L181.24 163.727H178.809L175.841 175.562H175.7L172.605 163.727H170.203L167.109 175.555H166.967L163.991 163.727H161.568L165.804 179ZM184.057 182.177H188.957V180.409H186.19V164.92H188.957V163.153H184.057V182.177ZM196.521 179.254C200.048 179.254 202.114 176.375 202.114 171.371C202.114 166.404 200.018 163.518 196.521 163.518C193.016 163.518 190.928 166.397 190.92 171.371C190.92 176.368 192.986 179.246 196.521 179.254ZM196.521 177.262C194.455 177.262 193.209 175.189 193.209 171.371C193.217 167.568 194.462 165.472 196.521 165.472C198.571 165.472 199.824 167.568 199.824 171.371C199.824 175.189 198.579 177.262 196.521 177.262ZM208.984 163.153H204.084V164.92H206.851V180.409H204.084V182.177H208.984V163.153ZM157.628 197.739H159.851C159.784 195.293 157.621 193.518 154.519 193.518C151.454 193.518 149.105 195.271 149.105 197.903C149.105 200.029 150.626 201.274 153.079 201.938L154.884 202.43C156.517 202.863 157.778 203.4 157.778 204.757C157.778 206.248 156.353 207.233 154.392 207.233C152.617 207.233 151.14 206.442 151.006 204.779H148.694C148.844 207.546 150.984 209.254 154.407 209.254C157.994 209.254 160.06 207.367 160.06 204.779C160.06 202.027 157.606 200.961 155.667 200.484L154.176 200.096C152.982 199.79 151.394 199.231 151.402 197.769C151.402 196.472 152.587 195.51 154.466 195.51C156.219 195.51 157.464 196.33 157.628 197.739ZM165.804 209H168.13L171.344 197.56H171.464L174.678 209H176.997L181.24 193.727H178.809L175.841 205.562H175.7L172.605 193.727H170.203L167.109 205.555H166.967L163.991 193.727H161.568L165.804 209ZM184.057 212.177H188.957V210.409H186.19V194.92H188.957V193.153H184.057V212.177ZM198.862 193.727H196.617L192.807 196.218V198.425L196.461 196.039H196.55V209H198.862V193.727ZM208.984 193.153H204.084V194.92H206.851V210.409H204.084V212.177H208.984V193.153ZM157.628 227.739H159.851C159.784 225.293 157.621 223.518 154.519 223.518C151.454 223.518 149.105 225.271 149.105 227.903C149.105 230.029 150.626 231.274 153.079 231.938L154.884 232.43C156.517 232.863 157.778 233.4 157.778 234.757C157.778 236.248 156.353 237.233 154.392 237.233C152.617 237.233 151.14 236.442 151.006 234.779H148.694C148.844 237.546 150.984 239.254 154.407 239.254C157.994 239.254 160.06 237.367 160.06 234.779C160.06 232.027 157.606 230.961 155.667 230.484L154.176 230.096C152.982 229.79 151.394 229.231 151.402 227.769C151.402 226.472 152.587 225.51 154.466 225.51C156.219 225.51 157.464 226.33 157.628 227.739ZM165.804 239H168.13L171.344 227.56H171.464L174.678 239H176.997L181.24 223.727H178.809L175.841 235.562H175.7L172.605 223.727H170.203L167.109 235.555H166.967L163.991 223.727H161.568L165.804 239ZM184.057 242.177H188.957V240.409H186.19V224.92H188.957V223.153H184.057V242.177ZM191.546 239H201.599V237.024H194.723V236.912L197.758 233.735C200.555 230.909 201.353 229.559 201.353 227.851C201.353 225.398 199.354 223.518 196.476 223.518C193.62 223.518 191.532 225.368 191.532 228.157H193.731C193.724 226.516 194.783 225.442 196.431 225.442C197.982 225.442 199.16 226.397 199.16 227.918C199.16 229.268 198.355 230.238 196.714 231.975L191.546 237.33V239ZM208.984 223.153H204.084V224.92H206.851V240.409H204.084V242.177H208.984V223.153ZM157.628 257.739H159.851C159.784 255.293 157.621 253.518 154.519 253.518C151.454 253.518 149.105 255.271 149.105 257.903C149.105 260.029 150.626 261.274 153.079 261.938L154.884 262.43C156.517 262.863 157.778 263.4 157.778 264.757C157.778 266.248 156.353 267.233 154.392 267.233C152.617 267.233 151.14 266.442 151.006 264.779H148.694C148.844 267.546 150.984 269.254 154.407 269.254C157.994 269.254 160.06 267.367 160.06 264.779C160.06 262.027 157.606 260.961 155.667 260.484L154.176 260.096C152.982 259.79 151.394 259.231 151.402 257.769C151.402 256.472 152.587 255.51 154.466 255.51C156.219 255.51 157.464 256.33 157.628 257.739ZM165.804 269H168.13L171.344 257.56H171.464L174.678 269H176.997L181.24 253.727H178.809L175.841 265.562H175.7L172.605 253.727H170.203L167.109 265.555H166.967L163.991 253.727H161.568L165.804 269ZM184.057 272.177H188.957V270.409H186.19V254.92H188.957V253.153H184.057V272.177ZM196.55 269.209C199.668 269.209 201.957 267.344 201.95 264.809C201.957 262.877 200.786 261.49 198.758 261.177V261.058C200.354 260.648 201.39 259.395 201.383 257.68C201.39 255.435 199.548 253.518 196.61 253.518C193.806 253.518 191.554 255.211 191.479 257.695H193.709C193.761 256.293 195.081 255.442 196.58 255.442C198.139 255.442 199.16 256.39 199.153 257.799C199.16 259.276 197.975 260.245 196.282 260.245H194.992V262.124H196.282C198.4 262.124 199.623 263.198 199.623 264.734C199.623 266.218 198.333 267.225 196.535 267.225C194.88 267.225 193.59 266.375 193.5 265.018H191.159C191.256 267.509 193.463 269.209 196.55 269.209ZM208.984 253.153H204.084V254.92H206.851V270.409H204.084V272.177H208.984V253.153ZM157.628 287.739H159.851C159.784 285.293 157.621 283.518 154.519 283.518C151.454 283.518 149.105 285.271 149.105 287.903C149.105 290.029 150.626 291.274 153.079 291.938L154.884 292.43C156.517 292.863 157.778 293.4 157.778 294.757C157.778 296.248 156.353 297.233 154.392 297.233C152.617 297.233 151.14 296.442 151.006 294.779H148.694C148.844 297.546 150.984 299.254 154.407 299.254C157.994 299.254 160.06 297.367 160.06 294.779C160.06 292.027 157.606 290.961 155.667 290.484L154.176 290.096C152.982 289.79 151.394 289.231 151.402 287.769C151.402 286.472 152.587 285.51 154.466 285.51C156.219 285.51 157.464 286.33 157.628 287.739ZM165.804 299H168.13L171.344 287.56H171.464L174.678 299H176.997L181.24 283.727H178.809L175.841 295.562H175.7L172.605 283.727H170.203L167.109 295.555H166.967L163.991 283.727H161.568L165.804 299ZM184.057 302.177H188.957V300.409H186.19V284.92H188.957V283.153H184.057V302.177ZM190.808 296.017H198.049V299H200.249V296.017H202.27V294.063H200.249V283.727H197.408L190.808 294.153V296.017ZM198.064 294.063H193.224V293.944L197.945 286.472H198.064V294.063ZM208.984 283.153H204.084V284.92H206.851V300.409H204.084V302.177H208.984V283.153ZM157.628 317.739H159.851C159.784 315.293 157.621 313.518 154.519 313.518C151.454 313.518 149.105 315.271 149.105 317.903C149.105 320.029 150.626 321.274 153.079 321.938L154.884 322.43C156.517 322.863 157.778 323.4 157.778 324.757C157.778 326.248 156.353 327.233 154.392 327.233C152.617 327.233 151.14 326.442 151.006 324.779H148.694C148.844 327.546 150.984 329.254 154.407 329.254C157.994 329.254 160.06 327.367 160.06 324.779C160.06 322.027 157.606 320.961 155.667 320.484L154.176 320.096C152.982 319.79 151.394 319.231 151.402 317.769C151.402 316.472 152.587 315.51 154.466 315.51C156.219 315.51 157.464 316.33 157.628 317.739ZM165.804 329H168.13L171.344 317.56H171.464L174.678 329H176.997L181.24 313.727H178.809L175.841 325.562H175.7L172.605 313.727H170.203L167.109 325.555H166.967L163.991 313.727H161.568L165.804 329ZM184.057 332.177H188.957V330.409H186.19V314.92H188.957V313.153H184.057V332.177ZM196.483 329.209C199.556 329.209 201.748 327.039 201.741 324.063C201.748 321.11 199.69 318.962 196.908 318.962C195.775 318.962 194.723 319.395 194.127 319.977H194.037L194.522 315.703H201.002V313.727H192.605L191.748 321.423L193.858 321.737C194.432 321.222 195.462 320.871 196.386 320.871C198.198 320.886 199.511 322.244 199.511 324.108C199.511 325.942 198.236 327.27 196.483 327.27C195.007 327.27 193.836 326.33 193.717 325.018H191.479C191.569 327.449 193.679 329.209 196.483 329.209ZM208.984 313.153H204.084V314.92H206.851V330.409H204.084V332.177H208.984V313.153ZM157.628 347.739H159.851C159.784 345.293 157.621 343.518 154.519 343.518C151.454 343.518 149.105 345.271 149.105 347.903C149.105 350.029 150.626 351.274 153.079 351.938L154.884 352.43C156.517 352.863 157.778 353.4 157.778 354.757C157.778 356.248 156.353 357.233 154.392 357.233C152.617 357.233 151.14 356.442 151.006 354.779H148.694C148.844 357.546 150.984 359.254 154.407 359.254C157.994 359.254 160.06 357.367 160.06 354.779C160.06 352.027 157.606 350.961 155.667 350.484L154.176 350.096C152.982 349.79 151.394 349.231 151.402 347.769C151.402 346.472 152.587 345.51 154.466 345.51C156.219 345.51 157.464 346.33 157.628 347.739ZM165.804 359H168.13L171.344 347.56H171.464L174.678 359H176.997L181.24 343.727H178.809L175.841 355.562H175.7L172.605 343.727H170.203L167.109 355.555H166.967L163.991 343.727H161.568L165.804 359ZM184.057 362.177H188.957V360.409H186.19V344.92H188.957V343.153H184.057V362.177ZM196.64 359.209C199.832 359.239 201.95 356.942 201.942 354.011C201.95 351.088 199.824 348.992 197.177 348.992C195.566 348.992 194.171 349.768 193.388 351.058H193.277C193.284 347.59 194.597 345.532 196.834 345.532C198.303 345.532 199.228 346.427 199.541 347.695H201.815C201.465 345.278 199.563 343.518 196.834 343.518C193.284 343.518 191.069 346.569 191.069 351.878C191.062 357.501 193.925 359.186 196.64 359.209ZM196.632 357.27C194.858 357.27 193.56 355.778 193.56 354.063C193.567 352.355 194.925 350.864 196.685 350.864C198.43 350.864 199.712 352.273 199.705 354.041C199.712 355.846 198.377 357.27 196.632 357.27ZM208.984 343.153H204.084V344.92H206.851V360.409H204.084V362.177H208.984V343.153ZM157.628 377.739H159.851C159.784 375.293 157.621 373.518 154.519 373.518C151.454 373.518 149.105 375.271 149.105 377.903C149.105 380.029 150.626 381.274 153.079 381.938L154.884 382.43C156.517 382.863 157.778 383.4 157.778 384.757C157.778 386.248 156.353 387.233 154.392 387.233C152.617 387.233 151.14 386.442 151.006 384.779H148.694C148.844 387.546 150.984 389.254 154.407 389.254C157.994 389.254 160.06 387.367 160.06 384.779C160.06 382.027 157.606 380.961 155.667 380.484L154.176 380.096C152.982 379.79 151.394 379.231 151.402 377.769C151.402 376.472 152.587 375.51 154.466 375.51C156.219 375.51 157.464 376.33 157.628 377.739ZM165.804 389H168.13L171.344 377.56H171.464L174.678 389H176.997L181.24 373.727H178.809L175.841 385.562H175.7L172.605 373.727H170.203L167.109 385.555H166.967L163.991 373.727H161.568L165.804 389ZM184.057 392.177H188.957V390.409H186.19V374.92H188.957V373.153H184.057V392.177ZM192.434 389H194.843L201.487 375.771V373.727H191.39V375.703H199.101V375.815L192.434 389ZM208.984 373.153H204.084V374.92H206.851V390.409H204.084V392.177H208.984V373.153ZM157.628 407.739H159.851C159.784 405.293 157.621 403.518 154.519 403.518C151.454 403.518 149.105 405.271 149.105 407.903C149.105 410.029 150.626 411.274 153.079 411.938L154.884 412.43C156.517 412.863 157.778 413.4 157.778 414.757C157.778 416.248 156.353 417.233 154.392 417.233C152.617 417.233 151.14 416.442 151.006 414.779H148.694C148.844 417.546 150.984 419.254 154.407 419.254C157.994 419.254 160.06 417.367 160.06 414.779C160.06 412.027 157.606 410.961 155.667 410.484L154.176 410.096C152.982 409.79 151.394 409.231 151.402 407.769C151.402 406.472 152.587 405.51 154.466 405.51C156.219 405.51 157.464 406.33 157.628 407.739ZM165.804 419H168.13L171.344 407.56H171.464L174.678 419H176.997L181.24 403.727H178.809L175.841 415.562H175.7L172.605 403.727H170.203L167.109 415.555H166.967L163.991 403.727H161.568L165.804 419ZM184.057 422.177H188.957V420.409H186.19V404.92H188.957V403.153H184.057V422.177ZM196.521 419.209C199.697 419.209 201.942 417.404 201.957 414.928C201.942 413.004 200.592 411.386 198.885 411.08V410.991C200.369 410.633 201.375 409.238 201.39 407.59C201.375 405.256 199.317 403.518 196.521 403.518C193.694 403.518 191.636 405.256 191.651 407.59C191.636 409.231 192.643 410.633 194.157 410.991V411.08C192.419 411.386 191.069 413.004 191.084 414.928C191.069 417.404 193.314 419.209 196.521 419.209ZM196.521 417.322C194.611 417.322 193.403 416.308 193.418 414.779C193.403 413.191 194.716 412.057 196.521 412.057C198.295 412.057 199.608 413.191 199.623 414.779C199.608 416.308 198.407 417.322 196.521 417.322ZM196.521 410.215C194.977 410.215 193.881 409.238 193.896 407.784C193.881 406.352 194.94 405.405 196.521 405.405C198.072 405.405 199.131 406.352 199.146 407.784C199.131 409.238 198.042 410.215 196.521 410.215ZM208.984 403.153H204.084V404.92H206.851V420.409H204.084V422.177H208.984V403.153ZM157.628 437.739H159.851C159.784 435.293 157.621 433.518 154.519 433.518C151.454 433.518 149.105 435.271 149.105 437.903C149.105 440.029 150.626 441.274 153.079 441.938L154.884 442.43C156.517 442.863 157.778 443.4 157.778 444.757C157.778 446.248 156.353 447.233 154.392 447.233C152.617 447.233 151.14 446.442 151.006 444.779H148.694C148.844 447.546 150.984 449.254 154.407 449.254C157.994 449.254 160.06 447.367 160.06 444.779C160.06 442.027 157.606 440.961 155.667 440.484L154.176 440.096C152.982 439.79 151.394 439.231 151.402 437.769C151.402 436.472 152.587 435.51 154.466 435.51C156.219 435.51 157.464 436.33 157.628 437.739ZM165.804 449H168.13L171.344 437.56H171.464L174.678 449H176.997L181.24 433.727H178.809L175.841 445.562H175.7L172.605 433.727H170.203L167.109 445.555H166.967L163.991 433.727H161.568L165.804 449ZM184.057 452.177H188.957V450.409H186.19V434.92H188.957V433.153H184.057V452.177ZM196.371 433.518C193.165 433.489 191.069 435.793 191.069 438.686C191.077 441.602 193.187 443.705 195.834 443.705C197.453 443.705 198.84 442.915 199.623 441.632H199.742C199.735 445.145 198.415 447.195 196.178 447.195C194.716 447.195 193.776 446.3 193.478 444.995H191.203C191.539 447.464 193.448 449.209 196.178 449.209C199.727 449.209 201.95 446.159 201.95 440.812C201.942 435.234 199.093 433.541 196.371 433.518ZM196.379 435.457C198.146 435.457 199.451 436.956 199.451 438.634C199.459 440.335 198.079 441.826 196.334 441.826C194.582 441.826 193.314 440.424 193.306 438.657C193.306 436.882 194.626 435.457 196.379 435.457ZM208.984 433.153H204.084V434.92H206.851V450.409H204.084V452.177H208.984V433.153Z" fill="#666666"/>
<line x1="127" y1="156.5" x2="356" y2="156.5" stroke="black"/>
<rect x="417" y="157" width="229" height="129.925" fill="#F1F1F1"/>
<path d="M546.488 179.415H548.793V174.046H551.925C555.467 174.046 557.22 171.906 557.22 169.087C557.22 166.275 555.482 164.142 551.932 164.142H546.488V179.415ZM548.793 172.092V166.119H551.686C553.968 166.119 554.9 167.357 554.9 169.087C554.9 170.817 553.968 172.092 551.716 172.092H548.793ZM562.225 164.142H559.921V179.415H562.225V164.142ZM577.908 164.142H575.626V175.358H575.485L567.714 164.142H565.581V179.415H567.886V168.214H568.027L575.79 179.415H577.908V164.142ZM589.989 179.415H580.287V181.309H589.989V179.415ZM591.647 179.415H593.951V173.636H597.083C597.135 173.636 597.18 173.636 597.232 173.636L600.335 179.415H602.96L599.574 173.233C601.446 172.539 602.378 170.981 602.378 168.93C602.378 166.119 600.633 164.142 597.091 164.142H591.647V179.415ZM593.951 171.652V166.119H596.844C599.119 166.119 600.059 167.2 600.059 168.93C600.059 170.653 599.119 171.652 596.874 171.652H593.951ZM605.45 179.415H615.503V177.439H608.627V177.327L611.662 174.15C614.459 171.324 615.257 169.974 615.257 168.266C615.257 165.813 613.258 163.934 610.38 163.934C607.523 163.934 605.435 165.783 605.435 168.572H607.635C607.628 166.931 608.687 165.858 610.335 165.858C611.886 165.858 613.064 166.812 613.064 168.333C613.064 169.683 612.259 170.653 610.618 172.39L605.45 177.745V179.415ZM619.293 179.415H629.346V177.439H622.47V177.327L625.505 174.15C628.302 171.324 629.1 169.974 629.1 168.266C629.1 165.813 627.101 163.934 624.222 163.934C621.366 163.934 619.278 165.783 619.278 168.572H621.478C621.471 166.931 622.53 165.858 624.178 165.858C625.729 165.858 626.907 166.812 626.907 168.333C626.907 169.683 626.102 170.653 624.461 172.39L619.293 177.745V179.415ZM546.488 209.415H548.793V204.046H551.925C555.467 204.046 557.22 201.906 557.22 199.087C557.22 196.275 555.482 194.142 551.932 194.142H546.488V209.415ZM548.793 202.092V196.119H551.686C553.968 196.119 554.9 197.357 554.9 199.087C554.9 200.817 553.968 202.092 551.716 202.092H548.793ZM562.225 194.142H559.921V209.415H562.225V194.142ZM577.908 194.142H575.626V205.358H575.485L567.714 194.142H565.581V209.415H567.886V198.214H568.027L575.79 209.415H577.908V194.142ZM589.989 209.415H580.287V211.309H589.989V209.415ZM591.647 209.415H593.951V203.636H597.083C597.135 203.636 597.18 203.636 597.232 203.636L600.335 209.415H602.96L599.574 203.233C601.446 202.539 602.378 200.981 602.378 198.93C602.378 196.119 600.633 194.142 597.091 194.142H591.647V209.415ZM593.951 201.652V196.119H596.844C599.119 196.119 600.059 197.2 600.059 198.93C600.059 200.653 599.119 201.652 596.874 201.652H593.951ZM605.45 209.415H615.503V207.439H608.627V207.327L611.662 204.15C614.459 201.324 615.257 199.974 615.257 198.266C615.257 195.813 613.258 193.934 610.38 193.934C607.523 193.934 605.435 195.783 605.435 198.572H607.635C607.628 196.931 608.687 195.858 610.335 195.858C611.886 195.858 613.064 196.812 613.064 198.333C613.064 199.683 612.259 200.653 610.618 202.39L605.45 207.745V209.415ZM626.609 194.142H624.364L620.553 196.633V198.841L624.207 196.454H624.297V209.415H626.609V194.142ZM547.011 239.415H549.316V234.046H552.448C555.99 234.046 557.743 231.906 557.743 229.087C557.743 226.275 556.005 224.142 552.455 224.142H547.011V239.415ZM549.316 232.092V226.119H552.209C554.491 226.119 555.423 227.357 555.423 229.087C555.423 230.817 554.491 232.092 552.239 232.092H549.316ZM562.748 224.142H560.444V239.415H562.748V224.142ZM578.431 224.142H576.149V235.358H576.008L568.237 224.142H566.104V239.415H568.409V228.214H568.55L576.313 239.415H578.431V224.142ZM590.512 239.415H580.81V241.309H590.512V239.415ZM590.227 226.126H594.985V239.415H597.282V226.126H602.047V224.142H590.227V226.126ZM604.927 239.415H614.98V237.439H608.104V237.327L611.139 234.15C613.936 231.324 614.734 229.974 614.734 228.266C614.734 225.813 612.735 223.934 609.857 223.934C607 223.934 604.912 225.783 604.912 228.572H607.112C607.105 226.931 608.164 225.858 609.812 225.858C611.363 225.858 612.541 226.812 612.541 228.333C612.541 229.683 611.736 230.653 610.095 232.39L604.927 237.745V239.415ZM618.77 239.415H628.823V237.439H621.947V237.327L624.982 234.15C627.779 231.324 628.577 229.974 628.577 228.266C628.577 225.813 626.578 223.934 623.699 223.934C620.843 223.934 618.755 225.783 618.755 228.572H620.955C620.948 226.931 622.007 225.858 623.655 225.858C625.206 225.858 626.384 226.812 626.384 228.333C626.384 229.683 625.579 230.653 623.938 232.39L618.77 237.745V239.415ZM547.011 269.415H549.316V264.046H552.448C555.99 264.046 557.743 261.906 557.743 259.087C557.743 256.275 556.005 254.142 552.455 254.142H547.011V269.415ZM549.316 262.092V256.119H552.209C554.491 256.119 555.423 257.357 555.423 259.087C555.423 260.817 554.491 262.092 552.239 262.092H549.316ZM562.748 254.142H560.444V269.415H562.748V254.142ZM578.431 254.142H576.149V265.358H576.008L568.237 254.142H566.104V269.415H568.409V258.214H568.55L576.313 269.415H578.431V254.142ZM590.512 269.415H580.81V271.309H590.512V269.415ZM590.227 256.126H594.985V269.415H597.282V256.126H602.047V254.142H590.227V256.126ZM604.927 269.415H614.98V267.439H608.104V267.327L611.139 264.15C613.936 261.324 614.734 259.974 614.734 258.266C614.734 255.813 612.735 253.934 609.857 253.934C607 253.934 604.912 255.783 604.912 258.572H607.112C607.105 256.931 608.164 255.858 609.812 255.858C611.363 255.858 612.541 256.812 612.541 258.333C612.541 259.683 611.736 260.653 610.095 262.39L604.927 267.745V269.415ZM626.086 254.142H623.841L620.03 256.633V258.841L623.685 256.454H623.774V269.415H626.086V254.142Z" fill="#666666"/>
<line x1="417.5" y1="157" x2="417.5" y2="287" stroke="black"/>
<line x1="525.5" y1="157" x2="525.5" y2="287" stroke="black"/>
<line x1="646.5" y1="157" x2="646.5" y2="287" stroke="black"/>
<line x1="417" y1="286.5" x2="646" y2="286.5" stroke="black"/>
<path d="M435.833 179.507H438.137V174.756L439.942 172.683L444.879 179.507H447.653L441.47 171.11L447.63 164.234H444.729L438.323 171.527H438.137V164.234H435.833V179.507ZM449.778 179.507H459.443V177.523H452.082V172.847H458.854V170.871H452.082V166.218H459.353V164.234H449.778V179.507ZM461.253 164.234L466.794 173.511V179.507H469.091V173.511L474.632 164.234H472.014L468.024 171.177H467.86L463.871 164.234H461.253ZM477.523 182.683H482.423V180.916H479.656V165.427H482.423V163.66H477.523V182.683ZM489.986 179.76C493.514 179.76 495.579 176.882 495.579 171.878C495.579 166.911 493.484 164.025 489.986 164.025C486.481 164.025 484.393 166.904 484.386 171.878C484.386 176.874 486.452 179.753 489.986 179.76ZM489.986 177.769C487.921 177.769 486.675 175.696 486.675 171.878C486.683 168.074 487.928 165.979 489.986 165.979C492.037 165.979 493.29 168.074 493.29 171.878C493.29 175.696 492.045 177.769 489.986 177.769ZM502.45 163.66H497.55V165.427H500.317V180.916H497.55V182.683H502.45V163.66ZM435.833 209.507H438.137V204.756L439.942 202.683L444.879 209.507H447.653L441.47 201.11L447.63 194.234H444.729L438.323 201.527H438.137V194.234H435.833V209.507ZM449.778 209.507H459.443V207.523H452.082V202.847H458.854V200.871H452.082V196.218H459.353V194.234H449.778V209.507ZM461.253 194.234L466.794 203.511V209.507H469.091V203.511L474.632 194.234H472.014L468.024 201.177H467.86L463.871 194.234H461.253ZM477.523 212.683H482.423V210.916H479.656V195.427H482.423V193.66H477.523V212.683ZM492.328 194.234H490.083L486.273 196.725V198.932L489.927 196.546H490.016V209.507H492.328V194.234ZM502.45 193.66H497.55V195.427H500.317V210.916H497.55V212.683H502.45V193.66ZM435.833 239.507H438.137V234.756L439.942 232.683L444.879 239.507H447.653L441.47 231.11L447.63 224.234H444.729L438.323 231.527H438.137V224.234H435.833V239.507ZM449.778 239.507H459.443V237.523H452.082V232.847H458.854V230.871H452.082V226.218H459.353V224.234H449.778V239.507ZM461.253 224.234L466.794 233.511V239.507H469.091V233.511L474.632 224.234H472.014L468.024 231.177H467.86L463.871 224.234H461.253ZM477.523 242.683H482.423V240.916H479.656V225.427H482.423V223.66H477.523V242.683ZM485.012 239.507H495.065V237.53H488.189V237.419L491.224 234.242C494.021 231.415 494.819 230.066 494.819 228.358C494.819 225.904 492.82 224.025 489.942 224.025C487.085 224.025 484.997 225.874 484.997 228.664H487.197C487.19 227.023 488.249 225.949 489.897 225.949C491.448 225.949 492.626 226.904 492.626 228.425C492.626 229.775 491.821 230.744 490.18 232.482L485.012 237.836V239.507ZM502.45 223.66H497.55V225.427H500.317V240.916H497.55V242.683H502.45V223.66ZM435.833 269.507H438.137V264.756L439.942 262.683L444.879 269.507H447.653L441.47 261.11L447.63 254.234H444.729L438.323 261.527H438.137V254.234H435.833V269.507ZM449.778 269.507H459.443V267.523H452.082V262.847H458.854V260.871H452.082V256.218H459.353V254.234H449.778V269.507ZM461.253 254.234L466.794 263.511V269.507H469.091V263.511L474.632 254.234H472.014L468.024 261.177H467.86L463.871 254.234H461.253ZM477.523 272.683H482.423V270.916H479.656V255.427H482.423V253.66H477.523V272.683ZM490.016 269.715C493.133 269.715 495.423 267.851 495.415 265.316C495.423 263.384 494.252 261.997 492.224 261.684V261.564C493.819 261.154 494.856 259.901 494.849 258.186C494.856 255.942 493.014 254.025 490.076 254.025C487.272 254.025 485.02 255.718 484.945 258.201H487.175C487.227 256.799 488.547 255.949 490.046 255.949C491.605 255.949 492.626 256.896 492.619 258.306C492.626 259.782 491.441 260.752 489.748 260.752H488.458V262.631H489.748C491.866 262.631 493.089 263.705 493.089 265.241C493.089 266.725 491.799 267.732 490.001 267.732C488.346 267.732 487.056 266.882 486.966 265.524H484.625C484.721 268.015 486.929 269.715 490.016 269.715ZM502.45 253.66H497.55V255.427H500.317V270.916H497.55V272.683H502.45V253.66Z" fill="#666666"/>
<line x1="417" y1="156.5" x2="646" y2="156.5" stroke="black"/>
<rect x="417" y="338" width="229" height="129.925" fill="#F1F1F1"/>
<path d="M546.488 360.415H548.793V355.046H551.925C555.467 355.046 557.22 352.906 557.22 350.087C557.22 347.275 555.482 345.142 551.932 345.142H546.488V360.415ZM548.793 353.092V347.119H551.686C553.968 347.119 554.9 348.357 554.9 350.087C554.9 351.817 553.968 353.092 551.716 353.092H548.793ZM562.225 345.142H559.921V360.415H562.225V345.142ZM577.908 345.142H575.626V356.358H575.485L567.714 345.142H565.581V360.415H567.886V349.214H568.027L575.79 360.415H577.908V345.142ZM589.989 360.415H580.287V362.309H589.989V360.415ZM591.647 360.415H593.951V354.636H597.083C597.135 354.636 597.18 354.636 597.232 354.636L600.335 360.415H602.96L599.574 354.233C601.446 353.539 602.378 351.981 602.378 349.93C602.378 347.119 600.633 345.142 597.091 345.142H591.647V360.415ZM593.951 352.652V347.119H596.844C599.119 347.119 600.059 348.2 600.059 349.93C600.059 351.653 599.119 352.652 596.874 352.652H593.951ZM605.45 360.415H615.503V358.439H608.627V358.327L611.662 355.15C614.459 352.324 615.257 350.974 615.257 349.266C615.257 346.813 613.258 344.934 610.38 344.934C607.523 344.934 605.435 346.783 605.435 349.572H607.635C607.628 347.931 608.687 346.858 610.335 346.858C611.886 346.858 613.064 347.812 613.064 349.333C613.064 350.683 612.259 351.653 610.618 353.39L605.45 358.745V360.415ZM624.267 360.669C627.794 360.669 629.86 357.79 629.86 352.786C629.86 347.82 627.765 344.934 624.267 344.934C620.762 344.934 618.674 347.812 618.667 352.786C618.667 357.783 620.732 360.661 624.267 360.669ZM624.267 358.678C622.201 358.678 620.956 356.604 620.956 352.786C620.964 348.983 622.209 346.887 624.267 346.887C626.318 346.887 627.571 348.983 627.571 352.786C627.571 356.604 626.325 358.678 624.267 358.678ZM546.488 390.415H548.793V385.046H551.925C555.467 385.046 557.22 382.906 557.22 380.087C557.22 377.275 555.482 375.142 551.932 375.142H546.488V390.415ZM548.793 383.092V377.119H551.686C553.968 377.119 554.9 378.357 554.9 380.087C554.9 381.817 553.968 383.092 551.716 383.092H548.793ZM562.225 375.142H559.921V390.415H562.225V375.142ZM577.908 375.142H575.626V386.358H575.485L567.714 375.142H565.581V390.415H567.886V379.214H568.027L575.79 390.415H577.908V375.142ZM589.989 390.415H580.287V392.309H589.989V390.415ZM591.647 390.415H593.951V384.636H597.083C597.135 384.636 597.18 384.636 597.232 384.636L600.335 390.415H602.96L599.574 384.233C601.446 383.539 602.378 381.981 602.378 379.93C602.378 377.119 600.633 375.142 597.091 375.142H591.647V390.415ZM593.951 382.652V377.119H596.844C599.119 377.119 600.059 378.2 600.059 379.93C600.059 381.653 599.119 382.652 596.874 382.652H593.951ZM612.766 375.142H610.521L606.711 377.633V379.841L610.365 377.454H610.454V390.415H612.766V375.142ZM624.118 374.934C620.911 374.904 618.816 377.208 618.816 380.102C618.823 383.017 620.934 385.12 623.581 385.12C625.199 385.12 626.586 384.33 627.369 383.047H627.489C627.481 386.56 626.161 388.61 623.924 388.61C622.462 388.61 621.523 387.716 621.225 386.411H618.95C619.286 388.879 621.195 390.624 623.924 390.624C627.474 390.624 629.696 387.574 629.696 382.227C629.689 376.649 626.84 374.956 624.118 374.934ZM624.125 376.873C625.893 376.873 627.198 378.371 627.198 380.049C627.205 381.75 625.826 383.241 624.081 383.241C622.328 383.241 621.06 381.839 621.053 380.072C621.053 378.297 622.373 376.873 624.125 376.873ZM545.935 420.415H548.239V415.046H551.371C554.913 415.046 556.666 412.906 556.666 410.087C556.666 407.275 554.928 405.142 551.379 405.142H545.935V420.415ZM548.239 413.092V407.119H551.133C553.415 407.119 554.347 408.357 554.347 410.087C554.347 411.817 553.415 413.092 551.162 413.092H548.239ZM561.672 405.142H559.367V420.415H561.672V405.142ZM577.355 405.142H575.073V416.358H574.931L567.16 405.142H565.028V420.415H567.332V409.214H567.474L575.237 420.415H577.355V405.142ZM589.436 420.415H579.733V422.309H589.436V420.415ZM600.074 405.142V415.001C600.074 417.074 598.642 418.566 596.315 418.566C593.996 418.566 592.556 417.074 592.556 415.001V405.142H590.252V415.188C590.252 418.394 592.653 420.669 596.315 420.669C599.977 420.669 602.385 418.394 602.385 415.188V405.142H600.074ZM613.32 405.142H611.075L607.264 407.633V409.841L610.918 407.454H611.008V420.415H613.32V405.142ZM624.672 404.934C621.465 404.904 619.369 407.208 619.369 410.102C619.377 413.017 621.487 415.12 624.135 415.12C625.753 415.12 627.14 414.33 627.923 413.047H628.042C628.035 416.56 626.715 418.61 624.478 418.61C623.016 418.61 622.077 417.716 621.778 416.411H619.504C619.839 418.879 621.748 420.624 624.478 420.624C628.028 420.624 630.25 417.574 630.25 412.227C630.242 406.649 627.394 404.956 624.672 404.934ZM624.679 406.873C626.447 406.873 627.752 408.371 627.752 410.049C627.759 411.75 626.379 413.241 624.634 413.241C622.882 413.241 621.614 411.839 621.607 410.072C621.607 408.297 622.927 406.873 624.679 406.873ZM546.068 450.415H548.372V445.046H551.504C555.047 445.046 556.799 442.906 556.799 440.087C556.799 437.275 555.062 435.142 551.512 435.142H546.068V450.415ZM548.372 443.092V437.119H551.266C553.548 437.119 554.48 438.357 554.48 440.087C554.48 441.817 553.548 443.092 551.296 443.092H548.372ZM561.805 435.142H559.501V450.415H561.805V435.142ZM577.488 435.142H575.206V446.358H575.064L567.294 435.142H565.161V450.415H567.465V439.214H567.607L575.37 450.415H577.488V435.142ZM589.569 450.415H579.867V452.309H589.569V450.415ZM590.048 435.142L595.589 444.419V450.415H597.886V444.419L603.427 435.142H600.809L596.819 442.085H596.655L592.666 435.142H590.048ZM613.186 435.142H610.942L607.131 437.633V439.841L610.785 437.454H610.875V450.415H613.186V435.142ZM624.538 434.934C621.332 434.904 619.236 437.208 619.236 440.102C619.244 443.017 621.354 445.12 624.001 445.12C625.62 445.12 627.007 444.33 627.79 443.047H627.909C627.902 446.56 626.582 448.61 624.345 448.61C622.883 448.61 621.943 447.716 621.645 446.411H619.37C619.706 448.879 621.615 450.624 624.345 450.624C627.894 450.624 630.117 447.574 630.117 442.227C630.109 436.649 627.26 434.956 624.538 434.934ZM624.546 436.873C626.313 436.873 627.618 438.371 627.618 440.049C627.626 441.75 626.246 443.241 624.501 443.241C622.749 443.241 621.481 441.839 621.473 440.072C621.473 438.297 622.793 436.873 624.546 436.873Z" fill="#666666"/>
<line x1="417.5" y1="338" x2="417.5" y2="468" stroke="black"/>
<line x1="525.5" y1="338" x2="525.5" y2="468" stroke="black"/>
<line x1="646.5" y1="338" x2="646.5" y2="468" stroke="black"/>
<line x1="417" y1="467.5" x2="646" y2="467.5" stroke="black"/>
<path d="M434.721 361H443.946V359.016H437.026V345.727H434.721V361ZM446.575 361H456.24V359.016H448.879V354.341H455.651V352.364H448.879V347.711H456.15V345.727H446.575V361ZM464.172 361C468.826 361 471.518 358.114 471.518 353.341C471.518 348.591 468.826 345.727 464.329 345.727H459.228V361H464.172ZM461.533 358.987V347.741H464.187C467.528 347.741 469.251 349.739 469.251 353.341C469.251 356.958 467.528 358.987 464.046 358.987H461.533ZM474.383 361H476.688V355.221H479.82C479.872 355.221 479.917 355.221 479.969 355.221L483.071 361H485.696L482.311 354.818C484.182 354.124 485.115 352.566 485.115 350.515C485.115 347.703 483.37 345.727 479.827 345.727H474.383V361ZM476.688 353.237V347.703H479.581C481.856 347.703 482.795 348.785 482.795 350.515C482.795 352.238 481.856 353.237 479.611 353.237H476.688ZM488.635 364.177H493.534V362.409H490.767V346.92H493.534V345.153H488.635V364.177ZM501.098 361.254C504.625 361.254 506.691 358.375 506.691 353.371C506.691 348.404 504.595 345.518 501.098 345.518C497.593 345.518 495.505 348.397 495.497 353.371C495.497 358.368 497.563 361.246 501.098 361.254ZM501.098 359.262C499.032 359.262 497.787 357.189 497.787 353.371C497.794 349.568 499.039 347.472 501.098 347.472C503.148 347.472 504.401 349.568 504.401 353.371C504.401 357.189 503.156 359.262 501.098 359.262ZM513.561 345.153H508.661V346.92H511.428V362.409H508.661V364.177H513.561V345.153ZM434.721 391H443.946V389.016H437.026V375.727H434.721V391ZM446.575 391H456.24V389.016H448.879V384.341H455.651V382.364H448.879V377.711H456.15V375.727H446.575V391ZM464.172 391C468.826 391 471.518 388.114 471.518 383.341C471.518 378.591 468.826 375.727 464.329 375.727H459.228V391H464.172ZM461.533 388.987V377.741H464.187C467.528 377.741 469.251 379.739 469.251 383.341C469.251 386.958 467.528 388.987 464.046 388.987H461.533ZM474.383 391H476.688V385.221H479.82C479.872 385.221 479.917 385.221 479.969 385.221L483.071 391H485.696L482.311 384.818C484.182 384.124 485.115 382.566 485.115 380.515C485.115 377.703 483.37 375.727 479.827 375.727H474.383V391ZM476.688 383.237V377.703H479.581C481.856 377.703 482.795 378.785 482.795 380.515C482.795 382.238 481.856 383.237 479.611 383.237H476.688ZM488.635 394.177H493.534V392.409H490.767V376.92H493.534V375.153H488.635V394.177ZM503.439 375.727H501.195L497.384 378.218V380.425L501.038 378.039H501.128V391H503.439V375.727ZM513.561 375.153H508.661V376.92H511.428V392.409H508.661V394.177H513.561V375.153ZM434.721 421H443.946V419.016H437.026V405.727H434.721V421ZM446.575 421H456.24V419.016H448.879V414.341H455.651V412.364H448.879V407.711H456.15V405.727H446.575V421ZM464.172 421C468.826 421 471.518 418.114 471.518 413.341C471.518 408.591 468.826 405.727 464.329 405.727H459.228V421H464.172ZM461.533 418.987V407.741H464.187C467.528 407.741 469.251 409.739 469.251 413.341C469.251 416.958 467.528 418.987 464.046 418.987H461.533ZM474.383 421H476.688V415.221H479.82C479.872 415.221 479.917 415.221 479.969 415.221L483.071 421H485.696L482.311 414.818C484.182 414.124 485.115 412.566 485.115 410.515C485.115 407.703 483.37 405.727 479.827 405.727H474.383V421ZM476.688 413.237V407.703H479.581C481.856 407.703 482.795 408.785 482.795 410.515C482.795 412.238 481.856 413.237 479.611 413.237H476.688ZM488.635 424.177H493.534V422.409H490.767V406.92H493.534V405.153H488.635V424.177ZM496.124 421H506.176V419.024H499.3V418.912L502.336 415.735C505.132 412.909 505.93 411.559 505.93 409.851C505.93 407.398 503.932 405.518 501.053 405.518C498.197 405.518 496.109 407.368 496.109 410.157H498.309C498.301 408.516 499.36 407.442 501.008 407.442C502.559 407.442 503.738 408.397 503.738 409.918C503.738 411.268 502.932 412.238 501.292 413.975L496.124 419.33V421ZM513.561 405.153H508.661V406.92H511.428V422.409H508.661V424.177H513.561V405.153ZM434.721 451H443.946V449.016H437.026V435.727H434.721V451ZM446.575 451H456.24V449.016H448.879V444.341H455.651V442.364H448.879V437.711H456.15V435.727H446.575V451ZM464.172 451C468.826 451 471.518 448.114 471.518 443.341C471.518 438.591 468.826 435.727 464.329 435.727H459.228V451H464.172ZM461.533 448.987V437.741H464.187C467.528 437.741 469.251 439.739 469.251 443.341C469.251 446.958 467.528 448.987 464.046 448.987H461.533ZM474.383 451H476.688V445.221H479.82C479.872 445.221 479.917 445.221 479.969 445.221L483.071 451H485.696L482.311 444.818C484.182 444.124 485.115 442.566 485.115 440.515C485.115 437.703 483.37 435.727 479.827 435.727H474.383V451ZM476.688 443.237V437.703H479.581C481.856 437.703 482.795 438.785 482.795 440.515C482.795 442.238 481.856 443.237 479.611 443.237H476.688ZM488.635 454.177H493.534V452.409H490.767V436.92H493.534V435.153H488.635V454.177ZM501.128 451.209C504.245 451.209 506.534 449.344 506.527 446.809C506.534 444.877 505.363 443.49 503.335 443.177V443.058C504.931 442.648 505.967 441.395 505.96 439.68C505.967 437.435 504.125 435.518 501.187 435.518C498.383 435.518 496.131 437.211 496.057 439.695H498.286C498.338 438.293 499.658 437.442 501.157 437.442C502.716 437.442 503.738 438.39 503.73 439.799C503.738 441.276 502.552 442.245 500.859 442.245H499.569V444.124H500.859C502.977 444.124 504.2 445.198 504.2 446.734C504.2 448.218 502.91 449.225 501.113 449.225C499.457 449.225 498.167 448.375 498.077 447.018H495.736C495.833 449.509 498.04 451.209 501.128 451.209ZM513.561 435.153H508.661V436.92H511.428V452.409H508.661V454.177H513.561V435.153Z" fill="#666666"/>
<line x1="417" y1="337.5" x2="646" y2="337.5" stroke="black"/>
<path d="M149.722 130H152.884V124.102H156.224C160.256 124.102 162.42 121.682 162.42 118.324C162.42 114.991 160.281 112.545 156.267 112.545H149.722V130ZM152.884 121.503V115.188H155.781C158.151 115.188 159.199 116.466 159.199 118.324C159.199 120.182 158.151 121.503 155.798 121.503H152.884ZM165.031 130H168.116V116.909H165.031V130ZM166.582 115.051C167.562 115.051 168.363 114.301 168.363 113.381C168.363 112.452 167.562 111.702 166.582 111.702C165.593 111.702 164.792 112.452 164.792 113.381C164.792 114.301 165.593 115.051 166.582 115.051ZM174.374 122.33C174.374 120.438 175.516 119.347 177.143 119.347C178.737 119.347 179.692 120.395 179.692 122.142V130H182.777V121.665C182.786 118.528 180.996 116.739 178.294 116.739C176.334 116.739 174.987 117.676 174.391 119.134H174.237V116.909H171.288V130H174.374V122.33ZM189.68 130.264C191.734 130.264 192.962 129.301 193.524 128.202H193.626V130H196.592V121.239C196.592 117.778 193.771 116.739 191.274 116.739C188.521 116.739 186.408 117.966 185.726 120.352L188.607 120.761C188.913 119.866 189.783 119.099 191.291 119.099C192.723 119.099 193.507 119.832 193.507 121.119V121.17C193.507 122.057 192.578 122.099 190.268 122.347C187.729 122.619 185.3 123.378 185.3 126.327C185.3 128.901 187.183 130.264 189.68 130.264ZM190.482 127.997C189.195 127.997 188.274 127.409 188.274 126.276C188.274 125.091 189.305 124.597 190.686 124.401C191.496 124.29 193.115 124.085 193.516 123.761V125.304C193.516 126.761 192.339 127.997 190.482 127.997ZM205.388 135.182C208.925 135.182 211.533 133.562 211.533 130.213V116.909H208.49V119.074H208.32C207.851 118.128 206.871 116.739 204.561 116.739C201.536 116.739 199.158 119.108 199.158 123.412C199.158 127.682 201.536 129.812 204.553 129.812C206.794 129.812 207.842 128.611 208.32 127.648H208.473V130.128C208.473 132.054 207.195 132.847 205.439 132.847C203.581 132.847 202.763 131.969 202.388 131.202L199.609 131.875C200.172 133.707 202.055 135.182 205.388 135.182ZM205.413 127.392C203.376 127.392 202.303 125.807 202.303 123.395C202.303 121.017 203.359 119.27 205.413 119.27C207.399 119.27 208.49 120.915 208.49 123.395C208.49 125.892 207.382 127.392 205.413 127.392ZM220.49 130.256C223.541 130.256 225.638 128.764 226.183 126.489L223.303 126.165C222.885 127.273 221.862 127.852 220.533 127.852C218.538 127.852 217.217 126.54 217.192 124.298H226.311V123.352C226.311 118.759 223.55 116.739 220.328 116.739C216.578 116.739 214.132 119.491 214.132 123.531C214.132 127.639 216.544 130.256 220.49 130.256ZM217.2 122.219C217.294 120.548 218.53 119.142 220.371 119.142C222.143 119.142 223.337 120.438 223.354 122.219H217.2ZM228.921 130H232.006V122.04C232.006 120.429 233.08 119.338 234.41 119.338C235.714 119.338 236.609 120.216 236.609 121.562V130H239.634V121.835C239.634 120.361 240.512 119.338 242.004 119.338C243.248 119.338 244.237 120.071 244.237 121.69V130H247.33V121.213C247.33 118.29 245.643 116.739 243.239 116.739C241.339 116.739 239.89 117.676 239.31 119.134H239.174C238.671 117.651 237.401 116.739 235.637 116.739C233.881 116.739 232.569 117.642 232.023 119.134H231.87V116.909H228.921V130ZM266.036 117.344H269.078C269.018 114.395 266.504 112.307 262.788 112.307C259.124 112.307 256.371 114.369 256.379 117.455C256.379 119.96 258.161 121.401 261.033 122.142L263.018 122.653C264.902 123.131 266.146 123.719 266.155 125.074C266.146 126.565 264.732 127.562 262.669 127.562C260.692 127.562 259.158 126.676 259.03 124.844H255.919C256.047 128.312 258.629 130.264 262.695 130.264C266.879 130.264 269.308 128.176 269.317 125.099C269.308 122.074 266.811 120.693 264.186 120.071L262.55 119.662C261.118 119.321 259.567 118.716 259.584 117.259C259.592 115.946 260.768 114.983 262.746 114.983C264.629 114.983 265.874 115.861 266.036 117.344ZM274.701 130H277.923L280.377 121.153H280.556L283.011 130H286.224L289.931 116.909H286.778L284.511 126.062H284.383L282.031 116.909H278.92L276.567 126.114H276.448L274.147 116.909H271.002L274.701 130ZM292.085 130H295.17V116.909H292.085V130ZM293.636 115.051C294.616 115.051 295.418 114.301 295.418 113.381C295.418 112.452 294.616 111.702 293.636 111.702C292.648 111.702 291.847 112.452 291.847 113.381C291.847 114.301 292.648 115.051 293.636 115.051ZM304.88 116.909H302.298V113.773H299.212V116.909H297.354V119.295H299.212V126.574C299.195 129.037 300.985 130.247 303.303 130.179C304.181 130.153 304.786 129.983 305.119 129.872L304.599 127.46C304.428 127.503 304.079 127.58 303.695 127.58C302.92 127.58 302.298 127.307 302.298 126.062V119.295H304.88V116.909ZM313.03 130.256C316.32 130.256 318.416 128.304 318.638 125.526H315.689C315.425 126.932 314.411 127.741 313.055 127.741C311.129 127.741 309.885 126.131 309.885 123.455C309.885 120.812 311.155 119.227 313.055 119.227C314.538 119.227 315.45 120.182 315.689 121.443H318.638C318.425 118.605 316.209 116.739 313.013 116.739C309.178 116.739 306.757 119.509 306.757 123.506C306.757 127.469 309.118 130.256 313.03 130.256ZM324.256 122.33C324.256 120.438 325.433 119.347 327.086 119.347C328.705 119.347 329.66 120.378 329.66 122.142V130H332.745V121.665C332.745 118.503 330.955 116.739 328.237 116.739C326.225 116.739 324.947 117.651 324.342 119.134H324.188V112.545H321.171V130H324.256V122.33Z" fill="#2E384D"/>
<path d="M440.722 130H443.884V124.102H447.224C451.256 124.102 453.42 121.682 453.42 118.324C453.42 114.991 451.281 112.545 447.267 112.545H440.722V130ZM443.884 121.503V115.188H446.781C449.151 115.188 450.199 116.466 450.199 118.324C450.199 120.182 449.151 121.503 446.798 121.503H443.884ZM456.031 130H459.116V116.909H456.031V130ZM457.582 115.051C458.562 115.051 459.363 114.301 459.363 113.381C459.363 112.452 458.562 111.702 457.582 111.702C456.593 111.702 455.792 112.452 455.792 113.381C455.792 114.301 456.593 115.051 457.582 115.051ZM465.374 122.33C465.374 120.438 466.516 119.347 468.143 119.347C469.737 119.347 470.692 120.395 470.692 122.142V130H473.777V121.665C473.786 118.528 471.996 116.739 469.294 116.739C467.334 116.739 465.987 117.676 465.391 119.134H465.237V116.909H462.288V130H465.374V122.33ZM480.68 130.264C482.734 130.264 483.962 129.301 484.524 128.202H484.626V130H487.592V121.239C487.592 117.778 484.771 116.739 482.274 116.739C479.521 116.739 477.408 117.966 476.726 120.352L479.607 120.761C479.913 119.866 480.783 119.099 482.291 119.099C483.723 119.099 484.507 119.832 484.507 121.119V121.17C484.507 122.057 483.578 122.099 481.268 122.347C478.729 122.619 476.3 123.378 476.3 126.327C476.3 128.901 478.183 130.264 480.68 130.264ZM481.482 127.997C480.195 127.997 479.274 127.409 479.274 126.276C479.274 125.091 480.305 124.597 481.686 124.401C482.496 124.29 484.115 124.085 484.516 123.761V125.304C484.516 126.761 483.339 127.997 481.482 127.997ZM496.388 135.182C499.925 135.182 502.533 133.562 502.533 130.213V116.909H499.49V119.074H499.32C498.851 118.128 497.871 116.739 495.561 116.739C492.536 116.739 490.158 119.108 490.158 123.412C490.158 127.682 492.536 129.812 495.553 129.812C497.794 129.812 498.842 128.611 499.32 127.648H499.473V130.128C499.473 132.054 498.195 132.847 496.439 132.847C494.581 132.847 493.763 131.969 493.388 131.202L490.609 131.875C491.172 133.707 493.055 135.182 496.388 135.182ZM496.413 127.392C494.376 127.392 493.303 125.807 493.303 123.395C493.303 121.017 494.359 119.27 496.413 119.27C498.399 119.27 499.49 120.915 499.49 123.395C499.49 125.892 498.382 127.392 496.413 127.392ZM511.49 130.256C514.541 130.256 516.638 128.764 517.183 126.489L514.303 126.165C513.885 127.273 512.862 127.852 511.533 127.852C509.538 127.852 508.217 126.54 508.192 124.298H517.311V123.352C517.311 118.759 514.55 116.739 511.328 116.739C507.578 116.739 505.132 119.491 505.132 123.531C505.132 127.639 507.544 130.256 511.49 130.256ZM508.2 122.219C508.294 120.548 509.53 119.142 511.371 119.142C513.143 119.142 514.337 120.438 514.354 122.219H508.2ZM519.921 130H523.006V122.04C523.006 120.429 524.08 119.338 525.41 119.338C526.714 119.338 527.609 120.216 527.609 121.562V130H530.634V121.835C530.634 120.361 531.512 119.338 533.004 119.338C534.248 119.338 535.237 120.071 535.237 121.69V130H538.33V121.213C538.33 118.29 536.643 116.739 534.239 116.739C532.339 116.739 530.89 117.676 530.31 119.134H530.174C529.671 117.651 528.401 116.739 526.637 116.739C524.881 116.739 523.569 117.642 523.023 119.134H522.87V116.909H519.921V130ZM547.55 130H554.615C558.612 130 560.572 127.963 560.572 125.244C560.572 122.602 558.697 121.051 556.839 120.957V120.787C558.544 120.386 559.891 119.193 559.891 117.071C559.891 114.472 558.016 112.545 554.232 112.545H547.55V130ZM550.712 127.358V122.244H554.197C556.149 122.244 557.359 123.438 557.359 124.997C557.359 126.386 556.405 127.358 554.112 127.358H550.712ZM550.712 119.969V115.153H553.908C555.766 115.153 556.729 116.134 556.729 117.48C556.729 119.014 555.484 119.969 553.839 119.969H550.712ZM571.531 124.494C571.531 126.489 570.107 127.477 568.744 127.477C567.261 127.477 566.272 126.429 566.272 124.767V116.909H563.187V125.244C563.187 128.389 564.977 130.17 567.55 130.17C569.511 130.17 570.891 129.139 571.488 127.673H571.624V130H574.616V116.909H571.531V124.494ZM584.325 116.909H581.743V113.773H578.658V116.909H576.8V119.295H578.658V126.574C578.641 129.037 580.43 130.247 582.749 130.179C583.626 130.153 584.232 129.983 584.564 129.872L584.044 127.46C583.874 127.503 583.524 127.58 583.141 127.58C582.365 127.58 581.743 127.307 581.743 126.062V119.295H584.325V116.909ZM593.442 116.909H590.86V113.773H587.775V116.909H585.917V119.295H587.775V126.574C587.758 129.037 589.548 130.247 591.866 130.179C592.744 130.153 593.349 129.983 593.681 129.872L593.161 127.46C592.991 127.503 592.641 127.58 592.258 127.58C591.482 127.58 590.86 127.307 590.86 126.062V119.295H593.442V116.909ZM601.592 130.256C605.428 130.256 607.865 127.554 607.865 123.506C607.865 119.449 605.428 116.739 601.592 116.739C597.757 116.739 595.32 119.449 595.32 123.506C595.32 127.554 597.757 130.256 601.592 130.256ZM601.609 127.784C599.487 127.784 598.447 125.892 598.447 123.497C598.447 121.102 599.487 119.185 601.609 119.185C603.697 119.185 604.737 121.102 604.737 123.497C604.737 125.892 603.697 127.784 601.609 127.784ZM613.569 122.33C613.569 120.438 614.711 119.347 616.339 119.347C617.933 119.347 618.887 120.395 618.887 122.142V130H621.972V121.665C621.981 118.528 620.191 116.739 617.489 116.739C615.529 116.739 614.183 117.676 613.586 119.134H613.433V116.909H610.484V130H613.569V122.33Z" fill="#2E384D"/>
<path d="M458.722 321H461.884V315.102H465.224C469.256 315.102 471.42 312.682 471.42 309.324C471.42 305.991 469.281 303.545 465.267 303.545H458.722V321ZM461.884 312.503V306.188H464.781C467.151 306.188 468.199 307.466 468.199 309.324C468.199 311.182 467.151 312.503 464.798 312.503H461.884ZM474.031 321H477.116V307.909H474.031V321ZM475.582 306.051C476.562 306.051 477.363 305.301 477.363 304.381C477.363 303.452 476.562 302.702 475.582 302.702C474.593 302.702 473.792 303.452 473.792 304.381C473.792 305.301 474.593 306.051 475.582 306.051ZM483.374 313.33C483.374 311.438 484.516 310.347 486.143 310.347C487.737 310.347 488.692 311.395 488.692 313.142V321H491.777V312.665C491.786 309.528 489.996 307.739 487.294 307.739C485.334 307.739 483.987 308.676 483.391 310.134H483.237V307.909H480.288V321H483.374V313.33ZM498.68 321.264C500.734 321.264 501.962 320.301 502.524 319.202H502.626V321H505.592V312.239C505.592 308.778 502.771 307.739 500.274 307.739C497.521 307.739 495.408 308.966 494.726 311.352L497.607 311.761C497.913 310.866 498.783 310.099 500.291 310.099C501.723 310.099 502.507 310.832 502.507 312.119V312.17C502.507 313.057 501.578 313.099 499.268 313.347C496.729 313.619 494.3 314.378 494.3 317.327C494.3 319.901 496.183 321.264 498.68 321.264ZM499.482 318.997C498.195 318.997 497.274 318.409 497.274 317.276C497.274 316.091 498.305 315.597 499.686 315.401C500.496 315.29 502.115 315.085 502.516 314.761V316.304C502.516 317.761 501.339 318.997 499.482 318.997ZM514.388 326.182C517.925 326.182 520.533 324.562 520.533 321.213V307.909H517.49V310.074H517.32C516.851 309.128 515.871 307.739 513.561 307.739C510.536 307.739 508.158 310.108 508.158 314.412C508.158 318.682 510.536 320.812 513.553 320.812C515.794 320.812 516.842 319.611 517.32 318.648H517.473V321.128C517.473 323.054 516.195 323.847 514.439 323.847C512.581 323.847 511.763 322.969 511.388 322.202L508.609 322.875C509.172 324.707 511.055 326.182 514.388 326.182ZM514.413 318.392C512.376 318.392 511.303 316.807 511.303 314.395C511.303 312.017 512.359 310.27 514.413 310.27C516.399 310.27 517.49 311.915 517.49 314.395C517.49 316.892 516.382 318.392 514.413 318.392ZM529.49 321.256C532.541 321.256 534.638 319.764 535.183 317.489L532.303 317.165C531.885 318.273 530.862 318.852 529.533 318.852C527.538 318.852 526.217 317.54 526.192 315.298H535.311V314.352C535.311 309.759 532.55 307.739 529.328 307.739C525.578 307.739 523.132 310.491 523.132 314.531C523.132 318.639 525.544 321.256 529.49 321.256ZM526.2 313.219C526.294 311.548 527.53 310.142 529.371 310.142C531.143 310.142 532.337 311.438 532.354 313.219H526.2ZM537.921 321H541.006V313.04C541.006 311.429 542.08 310.338 543.41 310.338C544.714 310.338 545.609 311.216 545.609 312.562V321H548.634V312.835C548.634 311.361 549.512 310.338 551.004 310.338C552.248 310.338 553.237 311.071 553.237 312.69V321H556.33V312.213C556.33 309.29 554.643 307.739 552.239 307.739C550.339 307.739 548.89 308.676 548.31 310.134H548.174C547.671 308.651 546.401 307.739 544.637 307.739C542.881 307.739 541.569 308.642 541.023 310.134H540.87V307.909H537.921V321ZM565.55 321H576.399V318.349H568.712V303.545H565.55V321ZM584.803 321.256C587.854 321.256 589.95 319.764 590.496 317.489L587.615 317.165C587.197 318.273 586.175 318.852 584.845 318.852C582.851 318.852 581.53 317.54 581.504 315.298H590.624V314.352C590.624 309.759 587.862 307.739 584.641 307.739C580.891 307.739 578.445 310.491 578.445 314.531C578.445 318.639 580.857 321.256 584.803 321.256ZM581.513 313.219C581.607 311.548 582.842 310.142 584.683 310.142C586.456 310.142 587.649 311.438 587.666 313.219H581.513ZM598.092 321.23C600.342 321.23 601.356 319.892 601.842 318.938H602.029V321H605.063V303.545H601.969V310.074H601.842C601.373 309.128 600.41 307.739 598.1 307.739C595.075 307.739 592.697 310.108 592.697 314.472C592.697 318.784 595.006 321.23 598.092 321.23ZM598.952 318.699C596.915 318.699 595.842 316.909 595.842 314.455C595.842 312.017 596.898 310.27 598.952 310.27C600.938 310.27 602.029 311.915 602.029 314.455C602.029 316.994 600.921 318.699 598.952 318.699Z" fill="#2E384D"/>
<defs>
<filter id="filter0_d" x="0" y="0" width="979" height="593" filterUnits="userSpaceOnUse" color-interpolation-filters="sRGB">
<feFlood flood-opacity="0" result="BackgroundImageFix"/>
<feColorMatrix in="SourceAlpha" type="matrix" values="0 0 0 0 0 0 0 0 0 0 0 0 0 0 0 0 0 0 127 0" result="hardAlpha"/>
<feOffset dy="1"/>
<feGaussianBlur stdDeviation="15"/>
<feComposite in2="hardAlpha" operator="out"/>
<feColorMatrix type="matrix" values="0 0 0 0 0 0 0 0 0 0 0 0 0 0 0 0 0 0 0.1 0"/>
<feBlend mode="normal" in2="BackgroundImageFix" result="effect1_dropShadow"/>
<feBlend mode="normal" in="SourceGraphic" in2="effect1_dropShadow" result="shape"/>
</filter>
</defs>
</svg>
